{
  "accessors": [
    {
      "bufferView": 2,
      "componentType": 5126,
      "count": 48,
      "max": [
        -38.622398376464844,
        2.7269999980926514,
        3.8366100788116455
      ],
      "min": [
        -38.98870086669922,
        2.3185501098632813,
        3.651370048522949
      ],
      "type": "VEC3"
    },
    {
      "bufferView": 2,
      "byteOffset": 576,
      "componentType": 5126,
      "count": 48,
      "max": [
        0.9873175024986267,
        0.9590849876403809,
        0.9920337200164795
      ],
      "min": [
        -0.999721109867096,
        -0.9929882884025574,
        -0.6062801480293274
      ],
      "type": "VEC3"
    },
    {
      "bufferView": 1,
      "componentType": 5126,
      "count": 48,
      "max": [
        1.0839999914169312,
        1.1337000131607056
      ],
      "min": [
        -0.02019999921321869,
        0.10249999910593033
      ],
      "type": "VEC2"
    },
    {
      "bufferView": 0,
      "componentType": 5125,
      "count": 54,
      "type": "SCALAR"
    },
    {
      "bufferView": 2,
      "byteOffset": 1152,
      "componentType": 5126,
      "count": 25,
      "max": [
        -38.63740158081055,
        2.6979498863220215,
        3.8217599391937256
      ],
      "min": [
        -38.99909973144531,
        2.288980007171631,
        3.7856500148773193
      ],
      "type": "VEC3"
    },
    {
      "bufferView": 2,
      "byteOffset": 1452,
      "componentType": 5126,
      "count": 25,
      "max": [
        0.0,
        -0.0862911194562912,
        -0.996269941329956
      ],
      "min": [
        0.0,
        -0.0862911194562912,
        -0.996269941329956
      ],
      "type": "VEC3"
    },
    {
      "bufferView": 1,
      "byteOffset": 384,
      "componentType": 5126,
      "count": 25,
      "max": [
        -0.021400000900030136,
        1.270300030708313
      ],
      "min": [
        -0.551800012588501,
        0.8008000254631042
      ],
      "type": "VEC2"
    },
    {
      "bufferView": 0,
      "byteOffset": 216,
      "componentType": 5125,
      "count": 72,
      "type": "SCALAR"
    },
    {
      "bufferView": 2,
      "byteOffset": 1752,
      "componentType": 5126,
      "count": 169,
      "max": [
        -38.595298767089844,
        2.7423698902130127,
        4.099299907684326
      ],
      "min": [
        -39.041500091552734,
        2.2465999126434326,
        4.021039962768555
      ],
      "type": "VEC3"
    },
    {
      "bufferView": 2,
      "byteOffset": 3780,
      "componentType": 5126,
      "count": 169,
      "max": [
        0.9984536170959473,
        0.9979909658432007,
        1.0
      ],
      "min": [
        -0.9991022348403931,
        -0.9999690055847168,
        -0.3861621618270874
      ],
      "type": "VEC3"
    },
    {
      "bufferView": 1,
      "byteOffset": 584,
      "componentType": 5126,
      "count": 169,
      "max": [
        0.20080000162124634,
        0.7996000051498413
      ],
      "min": [
        -0.551800012588501,
        0.10249999910593033
      ],
      "type": "VEC2"
    },
    {
      "bufferView": 0,
      "byteOffset": 504,
      "componentType": 5125,
      "count": 936,
      "type": "SCALAR"
    },
    {
      "bufferView": 2,
      "byteOffset": 5808,
      "componentType": 5126,
      "count": 512,
      "max": [
        -38.58829879760742,
        2.7418301105499268,
        4.038909912109375
      ],
      "min": [
        -39.042198181152344,
        2.250849962234497,
        4.013510227203369
      ],
      "type": "VEC3"
    },
    {
      "bufferView": 2,
      "byteOffset": 11952,
      "componentType": 5126,
      "count": 512,
      "max": [
        1.0,
        1.0,
        1.0
      ],
      "min": [
        -1.0,
        -1.0,
        -0.11043129861354828
      ],
      "type": "VEC3"
    },
    {
      "bufferView": 1,
      "byteOffset": 1936,
      "componentType": 5126,
      "count": 512,
      "max": [
        0.24298599362373352,
        1.2006299495697021
      ],
      "min": [
        0.14543700218200684,
        1.1110800504684448
      ],
      "type": "VEC2"
    },
    {
      "bufferView": 0,
      "byteOffset": 4248,
      "componentType": 5125,
      "count": 1764,
      "type": "SCALAR"
    },
    {
      "bufferView": 2,
      "byteOffset": 18096,
      "componentType": 5126,
      "count": 1291,
      "max": [
        -35.42890167236328,
        -5.428880214691162,
        4.330009937286377
      ],
      "min": [
        -37.486900329589844,
        -6.513050079345703,
        1.0
      ],
      "type": "VEC3"
    },
    {
      "bufferView": 2,
      "byteOffset": 33588,
      "componentType": 5126,
      "count": 1291,
      "max": [
        1.0,
        1.0,
        1.0
      ],
      "min": [
        -1.0,
        -1.0,
        -1.0
      ],
      "type": "VEC3"
    },
    {
      "bufferView": 1,
      "byteOffset": 6032,
      "componentType": 5126,
      "count": 1291,
      "max": [
        1.135740041732788,
        0.9187009930610657
      ],
      "min": [
        -0.08642580360174179,
        0.0009765619761310518
      ],
      "type": "VEC2"
    },
    {
      "bufferView": 0,
      "byteOffset": 11304,
      "componentType": 5125,
      "count": 5910,
      "type": "SCALAR"
    },
    {
      "bufferView": 2,
      "byteOffset": 49080,
      "componentType": 5126,
      "count": 248,
      "max": [
        -38.576698303222656,
        2.7615199089050293,
        4.021240234375
      ],
      "min": [
        -39.059600830078125,
        2.225130081176758,
        3.7835299968719482
      ],
      "type": "VEC3"
    },
    {
      "bufferView": 2,
      "byteOffset": 52056,
      "componentType": 5126,
      "count": 248,
      "max": [
        0.9778037071228027,
        0.9782295823097229,
        1.0
      ],
      "min": [
        -0.978778064250946,
        -0.9820625185966492,
        -0.9980218410491943
      ],
      "type": "VEC3"
    },
    {
      "bufferView": 1,
      "byteOffset": 16360,
      "componentType": 5126,
      "count": 248,
      "max": [
        1.551800012588501,
        1.361799955368042
      ],
      "min": [
        -0.551800012588501,
        -0.4844000041484833
      ],
      "type": "VEC2"
    },
    {
      "bufferView": 0,
      "byteOffset": 34944,
      "componentType": 5125,
      "count": 1008,
      "type": "SCALAR"
    },
    {
      "bufferView": 2,
      "byteOffset": 55032,
      "componentType": 5126,
      "count": 74,
      "max": [
        -39.90399932861328,
        -1.963089942932129,
        2.563430070877075
      ],
      "min": [
        -42.0,
        -5.0,
        1.0
      ],
      "type": "VEC3"
    },
    {
      "bufferView": 2,
      "byteOffset": 55920,
      "componentType": 5126,
      "count": 74,
      "max": [
        0.9968835711479187,
        0.9918800592422485,
        0.9959929585456848
      ],
      "min": [
        -0.9982068538665771,
        -0.9409231543540955,
        -0.9999380111694336
      ],
      "type": "VEC3"
    },
    {
      "bufferView": 1,
      "byteOffset": 18344,
      "componentType": 5126,
      "count": 74,
      "max": [
        0.7861329913139343,
        0.9961950182914734
      ],
      "min": [
        0.00380516005679965,
        0.00390625
      ],
      "type": "VEC2"
    },
    {
      "bufferView": 0,
      "byteOffset": 38976,
      "componentType": 5125,
      "count": 348,
      "type": "SCALAR"
    },
    {
      "bufferView": 2,
      "byteOffset": 56808,
      "componentType": 5126,
      "count": 158,
      "max": [
        -30.89259910583496,
        -2.107379913330078,
        3.7725300788879395
      ],
      "min": [
        -33.726200103759766,
        -2.7262299060821533,
        1.0
      ],
      "type": "VEC3"
    },
    {
      "bufferView": 2,
      "byteOffset": 58704,
      "componentType": 5126,
      "count": 158,
      "max": [
        1.0,
        1.0,
        1.0
      ],
      "min": [
        -1.0,
        -1.0,
        -1.0
      ],
      "type": "VEC3"
    },
    {
      "bufferView": 1,
      "byteOffset": 18936,
      "componentType": 5126,
      "count": 158,
      "max": [
        0.6460149884223938,
        3.157059907913208
      ],
      "min": [
        -2.1875898838043213,
        0.38452398777008057
      ],
      "type": "VEC2"
    },
    {
      "bufferView": 0,
      "byteOffset": 40368,
      "componentType": 5125,
      "count": 348,
      "type": "SCALAR"
    },
    {
      "bufferView": 2,
      "byteOffset": 60600,
      "componentType": 5126,
      "count": 120,
      "max": [
        -39.05860137939453,
        2.0,
        3.762809991836548
      ],
      "min": [
        -40.0,
        0.2057649940252304,
        1.0
      ],
      "type": "VEC3"
    },
    {
      "bufferView": 2,
      "byteOffset": 62040,
      "componentType": 5126,
      "count": 120,
      "max": [
        1.0,
        0.9999690055847168,
        0.9999380111694336
      ],
      "min": [
        -0.9999690055847168,
        -0.9999690055847168,
        -0.9999380111694336
      ],
      "type": "VEC3"
    },
    {
      "bufferView": 1,
      "byteOffset": 20200,
      "componentType": 5126,
      "count": 120,
      "max": [
        0.9863280057907104,
        0.9653319716453552
      ],
      "min": [
        0.006168370135128498,
        0.008789059706032276
      ],
      "type": "VEC2"
    },
    {
      "bufferView": 0,
      "byteOffset": 41760,
      "componentType": 5125,
      "count": 180,
      "type": "SCALAR"
    },
    {
      "bufferView": 2,
      "byteOffset": 63480,
      "componentType": 5126,
      "count": 746,
      "max": [
        -35.0,
        -1.0,
        1.200600028038025
      ],
      "min": [
        -35.5004997253418,
        -2.9521100521087646,
        1.0
      ],
      "type": "VEC3"
    },
    {
      "bufferView": 2,
      "byteOffset": 72432,
      "componentType": 5126,
      "count": 746,
      "max": [
        0.9995043277740479,
        0.9947196841239929,
        0.9999690055847168
      ],
      "min": [
        -1.0,
        -0.9938837289810181,
        -0.9999690055847168
      ],
      "type": "VEC3"
    },
    {
      "bufferView": 1,
      "byteOffset": 21160,
      "componentType": 5126,
      "count": 746,
      "max": [
        0.9633790254592896,
        1.0067100524902344
      ],
      "min": [
        0.03240999951958656,
        0.10449200123548508
      ],
      "type": "VEC2"
    },
    {
      "bufferView": 0,
      "byteOffset": 42480,
      "componentType": 5125,
      "count": 912,
      "type": "SCALAR"
    },
    {
      "bufferView": 2,
      "byteOffset": 81384,
      "componentType": 5126,
      "count": 496,
      "max": [
        -30.0,
        2.0,
        1.4464199542999268
      ],
      "min": [
        -32.33380126953125,
        -0.29607799649238586,
        1.0
      ],
      "type": "VEC3"
    },
    {
      "bufferView": 2,
      "byteOffset": 87336,
      "componentType": 5126,
      "count": 496,
      "max": [
        0.9992258548736572,
        0.9987623691558838,
        0.9991950392723083
      ],
      "min": [
        -0.999721109867096,
        -0.999721109867096,
        -0.996269941329956
      ],
      "type": "VEC3"
    },
    {
      "bufferView": 1,
      "byteOffset": 27128,
      "componentType": 5126,
      "count": 496,
      "max": [
        3.708980083465576,
        1.2145999670028687
      ],
      "min": [
        -2.708980083465576,
        -0.8867189884185791
      ],
      "type": "VEC2"
    },
    {
      "bufferView": 0,
      "byteOffset": 46128,
      "componentType": 5125,
      "count": 2304,
      "type": "SCALAR"
    },
    {
      "bufferView": 2,
      "byteOffset": 93288,
      "componentType": 5126,
      "count": 174,
      "max": [
        -38.523799896240234,
        -5.0,
        3.0
      ],
      "min": [
        -40.0,
        -7.750249862670898,
        1.489150047302246
      ],
      "type": "VEC3"
    },
    {
      "bufferView": 2,
      "byteOffset": 95376,
      "componentType": 5126,
      "count": 174,
      "max": [
        0.9905305504798889,
        0.999721109867096,
        1.0
      ],
      "min": [
        -0.9905305504798889,
        -0.9999690055847168,
        -1.0
      ],
      "type": "VEC3"
    },
    {
      "bufferView": 1,
      "byteOffset": 31096,
      "componentType": 5126,
      "count": 174,
      "max": [
        0.9931640028953552,
        0.9884719848632813
      ],
      "min": [
        0.006965640000998974,
        0.0078125
      ],
      "type": "VEC2"
    },
    {
      "bufferView": 0,
      "byteOffset": 55344,
      "componentType": 5125,
      "count": 768,
      "type": "SCALAR"
    },
    {
      "bufferView": 2,
      "byteOffset": 97464,
      "componentType": 5126,
      "count": 196,
      "max": [
        -36.101600646972656,
        -1.0,
        2.3071401119232178
      ],
      "min": [
        -37.0,
        -1.9055999517440796,
        1.0
      ],
      "type": "VEC3"
    },
    {
      "bufferView": 2,
      "byteOffset": 99816,
      "componentType": 5126,
      "count": 196,
      "max": [
        0.9954954981803894,
        0.9946886897087097,
        0.9760149717330933
      ],
      "min": [
        -0.999721109867096,
        -0.9938528537750244,
        -1.0
      ],
      "type": "VEC3"
    },
    {
      "bufferView": 1,
      "byteOffset": 32488,
      "componentType": 5126,
      "count": 196,
      "max": [
        0.9775390028953552,
        0.7886959910392761
      ],
      "min": [
        0.010826099663972855,
        0.0234375
      ],
      "type": "VEC2"
    },
    {
      "bufferView": 0,
      "byteOffset": 58416,
      "componentType": 5125,
      "count": 612,
      "type": "SCALAR"
    },
    {
      "bufferView": 2,
      "byteOffset": 102168,
      "componentType": 5126,
      "count": 4528,
      "max": [
        -32.54759979248047,
        0.9999989867210388,
        2.233799934387207
      ],
      "min": [
        -33.79159927368164,
        -1.962630033493042,
        1.7450400590896606
      ],
      "type": "VEC3"
    },
    {
      "bufferView": 2,
      "byteOffset": 156504,
      "componentType": 5126,
      "count": 4528,
      "max": [
        1.0,
        1.0,
        1.0
      ],
      "min": [
        -1.0,
        -1.0,
        -1.0
      ],
      "type": "VEC3"
    },
    {
      "bufferView": 1,
      "byteOffset": 34056,
      "componentType": 5126,
      "count": 4528,
      "max": [
        0.9833980202674866,
        0.9914469718933105
      ],
      "min": [
        0.008553000167012215,
        0.0087890001013875
      ],
      "type": "VEC2"
    },
    {
      "bufferView": 0,
      "byteOffset": 60864,
      "componentType": 5125,
      "count": 5466,
      "type": "SCALAR"
    },
    {
      "bufferView": 2,
      "byteOffset": 210840,
      "componentType": 5126,
      "count": 567,
      "max": [
        -39.0,
        -0.6187210083007813,
        3.6580801010131836
      ],
      "min": [
        -40.28379821777344,
        -2.0,
        1.0
      ],
      "type": "VEC3"
    },
    {
      "bufferView": 2,
      "byteOffset": 217644,
      "componentType": 5126,
      "count": 567,
      "max": [
        0.996269941329956,
        0.9994733929634094,
        0.9978986978530884
      ],
      "min": [
        -0.9995043277740479,
        -0.9987623691558838,
        -0.9999380111694336
      ],
      "type": "VEC3"
    },
    {
      "bufferView": 1,
      "byteOffset": 70280,
      "componentType": 5126,
      "count": 567,
      "max": [
        0.9902340173721313,
        0.9885709881782532
      ],
      "min": [
        0.006698609795421362,
        0.008300780318677425
      ],
      "type": "VEC2"
    },
    {
      "bufferView": 0,
      "byteOffset": 82728,
      "componentType": 5125,
      "count": 1896,
      "type": "SCALAR"
    },
    {
      "bufferView": 2,
      "byteOffset": 224448,
      "componentType": 5126,
      "count": 2047,
      "max": [
        -33.0817985534668,
        -2.898400068283081,
        10.657099723815918
      ],
      "min": [
        -35.0,
        -4.908400058746338,
        2.3071401119232178
      ],
      "type": "VEC3"
    },
    {
      "bufferView": 2,
      "byteOffset": 249012,
      "componentType": 5126,
      "count": 2047,
      "max": [
        0.9892780780792236,
        0.9952159523963928,
        0.9982068538665771
      ],
      "min": [
        -0.9997521042823792,
        -0.9993805885314941,
        -0.9952159523963928
      ],
      "type": "VEC3"
    },
    {
      "bufferView": 1,
      "byteOffset": 74816,
      "componentType": 5126,
      "count": 2047,
      "max": [
        2.400399923324585,
        2.0225000381469727
      ],
      "min": [
        -1.4608999490737915,
        -0.8291000127792358
      ],
      "type": "VEC2"
    },
    {
      "bufferView": 0,
      "byteOffset": 90312,
      "componentType": 5125,
      "count": 2289,
      "type": "SCALAR"
    },
    {
      "bufferView": 2,
      "byteOffset": 273576,
      "componentType": 5126,
      "count": 528,
      "max": [
        -32.547698974609375,
        2.0,
        1.7450599670410156
      ],
      "min": [
        -35.0,
        -0.9289690256118774,
        1.0000200271606445
      ],
      "type": "VEC3"
    },
    {
      "bufferView": 2,
      "byteOffset": 279912,
      "componentType": 5126,
      "count": 528,
      "max": [
        1.0,
        1.0,
        0.999721109867096
      ],
      "min": [
        -0.9588183760643005,
        -0.9987623691558838,
        -0.9998760223388672
      ],
      "type": "VEC3"
    },
    {
      "bufferView": 1,
      "byteOffset": 91192,
      "componentType": 5126,
      "count": 528,
      "max": [
        0.9897459745407104,
        0.9939990043640137
      ],
      "min": [
        0.012458800338208675,
        0.03759770095348358
      ],
      "type": "VEC2"
    },
    {
      "bufferView": 0,
      "byteOffset": 99468,
      "componentType": 5125,
      "count": 1488,
      "type": "SCALAR"
    },
    {
      "bufferView": 2,
      "byteOffset": 286248,
      "componentType": 5126,
      "count": 94,
      "max": [
        -37.33639907836914,
        2.797559976577759,
        3.0
      ],
      "min": [
        -38.486900329589844,
        1.571120023727417,
        1.7740199565887451
      ],
      "type": "VEC3"
    },
    {
      "bufferView": 2,
      "byteOffset": 287376,
      "componentType": 5126,
      "count": 94,
      "max": [
        1.0,
        0.9967300891876221,
        0.9962393045425415
      ],
      "min": [
        -0.996791422367096,
        -0.9992258548736572,
        -0.9997521042823792
      ],
      "type": "VEC3"
    },
    {
      "bufferView": 1,
      "byteOffset": 95416,
      "componentType": 5126,
      "count": 94,
      "max": [
        0.9858400225639343,
        0.9491879940032959
      ],
      "min": [
        0.002986910054460168,
        0.017089800909161568
      ],
      "type": "VEC2"
    },
    {
      "bufferView": 0,
      "byteOffset": 105420,
      "componentType": 5125,
      "count": 144,
      "type": "SCALAR"
    },
    {
      "bufferView": 2,
      "byteOffset": 288504,
      "componentType": 5126,
      "count": 94,
      "max": [
        -36.0,
        2.226449966430664,
        2.225980043411255
      ],
      "min": [
        -37.15060043334961,
        1.0,
        1.0
      ],
      "type": "VEC3"
    },
    {
      "bufferView": 2,
      "byteOffset": 289632,
      "componentType": 5126,
      "count": 94,
      "max": [
        0.996791422367096,
        0.9967300891876221,
        0.9997521042823792
      ],
      "min": [
        -1.0,
        -0.9992258548736572,
        -0.9962393045425415
      ],
      "type": "VEC3"
    },
    {
      "bufferView": 1,
      "byteOffset": 96168,
      "componentType": 5126,
      "count": 94,
      "max": [
        0.9858400225639343,
        0.9491879940032959
      ],
      "min": [
        0.002986910054460168,
        0.017089800909161568
      ],
      "type": "VEC2"
    },
    {
      "bufferView": 0,
      "byteOffset": 105996,
      "componentType": 5125,
      "count": 144,
      "type": "SCALAR"
    },
    {
      "bufferView": 2,
      "byteOffset": 290760,
      "componentType": 5126,
      "count": 196,
      "max": [
        -34.094398498535156,
        -3.0,
        2.3071401119232178
      ],
      "min": [
        -35.0,
        -3.8984100818634033,
        1.0
      ],
      "type": "VEC3"
    },
    {
      "bufferView": 2,
      "byteOffset": 293112,
      "componentType": 5126,
      "count": 196,
      "max": [
        0.9946886897087097,
        0.999721109867096,
        0.9760149717330933
      ],
      "min": [
        -0.9938528537750244,
        -0.9954954981803894,
        -1.0
      ],
      "type": "VEC3"
    },
    {
      "bufferView": 1,
      "byteOffset": 96920,
      "componentType": 5126,
      "count": 196,
      "max": [
        0.9775390028953552,
        0.7886959910392761
      ],
      "min": [
        0.010826099663972855,
        0.0234375
      ],
      "type": "VEC2"
    },
    {
      "bufferView": 0,
      "byteOffset": 106572,
      "componentType": 5125,
      "count": 612,
      "type": "SCALAR"
    },
    {
      "bufferView": 2,
      "byteOffset": 295464,
      "componentType": 5126,
      "count": 713,
      "max": [
        -31.38759994506836,
        3.0,
        4.093120098114014
      ],
      "min": [
        -32.33380126953125,
        0.9200440049171448,
        1.4464199542999268
      ],
      "type": "VEC3"
    },
    {
      "bufferView": 2,
      "byteOffset": 304020,
      "componentType": 5126,
      "count": 713,
      "max": [
        1.0,
        1.0,
        1.0
      ],
      "min": [
        -1.0,
        -1.0,
        -1.0
      ],
      "type": "VEC3"
    },
    {
      "bufferView": 1,
      "byteOffset": 98488,
      "componentType": 5126,
      "count": 713,
      "max": [
        0.9584959745407104,
        0.9361569881439209
      ],
      "min": [
        0.03189089894294739,
        0.07666020095348358
      ],
      "type": "VEC2"
    },
    {
      "bufferView": 0,
      "byteOffset": 109020,
      "componentType": 5125,
      "count": 1983,
      "type": "SCALAR"
    },
    {
      "bufferView": 2,
      "byteOffset": 312576,
      "componentType": 5126,
      "count": 320,
      "max": [
        -33.0,
        -4.055190086364746,
        2.1508901119232178
      ],
      "min": [
        -34.92399978637695,
        -6.0,
        1.0
      ],
      "type": "VEC3"
    },
    {
      "bufferView": 2,
      "byteOffset": 316416,
      "componentType": 5126,
      "count": 320,
      "max": [
        0.9980218410491943,
        0.9937601089477539,
        1.0
      ],
      "min": [
        -0.9964231848716736,
        -0.9772266745567322,
        -0.9986079335212708
      ],
      "type": "VEC3"
    },
    {
      "bufferView": 1,
      "byteOffset": 104192,
      "componentType": 5126,
      "count": 320,
      "max": [
        0.9707030057907104,
        0.9932209849357605
      ],
      "min": [
        0.3232420086860657,
        0.015136700123548508
      ],
      "type": "VEC2"
    },
    {
      "bufferView": 0,
      "byteOffset": 116952,
      "componentType": 5125,
      "count": 864,
      "type": "SCALAR"
    },
    {
      "bufferView": 2,
      "byteOffset": 320256,
      "componentType": 5126,
      "count": 254,
      "max": [
        -32.03120040893555,
        -4.0,
        1.4811899662017822
      ],
      "min": [
        -33.0,
        -5.802730083465576,
        0.9999979734420776
      ],
      "type": "VEC3"
    },
    {
      "bufferView": 2,
      "byteOffset": 323304,
      "componentType": 5126,
      "count": 254,
      "max": [
        0.9973753690719604,
        0.9878722429275513,
        0.9984536170959473
      ],
      "min": [
        -0.9979909658432007,
        -0.9993805885314941,
        -0.9980218410491943
      ],
      "type": "VEC3"
    },
    {
      "bufferView": 1,
      "byteOffset": 106752,
      "componentType": 5126,
      "count": 254,
      "max": [
        0.9965819716453552,
        0.966094970703125
      ],
      "min": [
        0.0029716501012444496,
        0.0034179699141532183
      ],
      "type": "VEC2"
    },
    {
      "bufferView": 0,
      "byteOffset": 120408,
      "componentType": 5125,
      "count": 480,
      "type": "SCALAR"
    },
    {
      "bufferView": 2,
      "byteOffset": 326352,
      "componentType": 5126,
      "count": 420,
      "max": [
        -35.08190155029297,
        -5.96045985901128e-08,
        2.5810599327087402
      ],
      "min": [
        -36.0,
        -0.8799999952316284,
        1.0
      ],
      "type": "VEC3"
    },
    {
      "bufferView": 2,
      "byteOffset": 331392,
      "componentType": 5126,
      "count": 420,
      "max": [
        0.9820019006729126,
        0.9917570948600769,
        0.999845027923584
      ],
      "min": [
        -0.9820019006729126,
        -0.9899190068244934,
        -1.0
      ],
      "type": "VEC3"
    },
    {
      "bufferView": 1,
      "byteOffset": 108784,
      "componentType": 5126,
      "count": 420,
      "max": [
        0.9921879768371582,
        0.9964789748191833
      ],
      "min": [
        0.034363001585006714,
        0.006835999898612499
      ],
      "type": "VEC2"
    },
    {
      "bufferView": 0,
      "byteOffset": 122328,
      "componentType": 5125,
      "count": 1488,
      "type": "SCALAR"
    },
    {
      "bufferView": 2,
      "byteOffset": 336432,
      "componentType": 5126,
      "count": 36,
      "max": [
        -31.886999130249023,
        2.8347198963165283,
        2.919980049133301
      ],
      "min": [
        -32.1775016784668,
        1.2711000442504883,
        2.2327399253845215
      ],
      "type": "VEC3"
    },
    {
      "bufferView": 2,
      "byteOffset": 336864,
      "componentType": 5126,
      "count": 36,
      "max": [
        0.9988859295845032,
        1.0,
        0.9988859295845032
      ],
      "min": [
        -0.9988859295845032,
        -1.0,
        -0.9988859295845032
      ],
      "type": "VEC3"
    },
    {
      "bufferView": 1,
      "byteOffset": 112144,
      "componentType": 5126,
      "count": 36,
      "max": [
        1.701889991760254,
        0.9053660035133362
      ],
      "min": [
        0.22152400016784668,
        -0.8287760019302368
      ],
      "type": "VEC2"
    },
    {
      "bufferView": 0,
      "byteOffset": 128280,
      "componentType": 5125,
      "count": 60,
      "type": "SCALAR"
    },
    {
      "bufferView": 2,
      "byteOffset": 337296,
      "componentType": 5126,
      "count": 50,
      "max": [
        -31.081300735473633,
        -2.2980198860168457,
        3.6501901149749756
      ],
      "min": [
        -33.573299407958984,
        -2.389780044555664,
        1.8653500080108643
      ],
      "type": "VEC3"
    },
    {
      "bufferView": 2,
      "byteOffset": 337896,
      "componentType": 5126,
      "count": 50,
      "max": [
        1.0,
        1.0,
        0.999721109867096
      ],
      "min": [
        -0.9861799478530884,
        -1.0,
        -0.9984844326972961
      ],
      "type": "VEC3"
    },
    {
      "bufferView": 1,
      "byteOffset": 112432,
      "componentType": 5126,
      "count": 50,
      "max": [
        -0.16136600077152252,
        1.8901900053024292
      ],
      "min": [
        -0.7843599915504456,
        1.4439799785614014
      ],
      "type": "VEC2"
    },
    {
      "bufferView": 0,
      "byteOffset": 128520,
      "componentType": 5125,
      "count": 90,
      "type": "SCALAR"
    },
    {
      "bufferView": 2,
      "byteOffset": 338496,
      "componentType": 5126,
      "count": 590,
      "max": [
        -32.689998626708984,
        -4.122620105743408,
        1.5012999773025513
      ],
      "min": [
        -32.939998626708984,
        -4.342619895935059,
        1.211300015449524
      ],
      "type": "VEC3"
    },
    {
      "bufferView": 2,
      "byteOffset": 345576,
      "componentType": 5126,
      "count": 590,
      "max": [
        1.0,
        1.0,
        1.0
      ],
      "min": [
        -1.0,
        -1.0,
        -1.0
      ],
      "type": "VEC3"
    },
    {
      "bufferView": 1,
      "byteOffset": 112832,
      "componentType": 5126,
      "count": 590,
      "max": [
        0.18405599892139435,
        1.2246099710464478
      ],
      "min": [
        0.007279769983142614,
        1.0195499658584595
      ],
      "type": "VEC2"
    },
    {
      "bufferView": 0,
      "byteOffset": 128880,
      "componentType": 5125,
      "count": 2880,
      "type": "SCALAR"
    },
    {
      "bufferView": 2,
      "byteOffset": 352656,
      "componentType": 5126,
      "count": 158,
      "max": [
        -30.872600555419922,
        -2.0875399112701416,
        3.792530059814453
      ],
      "min": [
        -33.74589920043945,
        -2.741339921951294,
        0.9800000190734863
      ],
      "type": "VEC3"
    },
    {
      "bufferView": 2,
      "byteOffset": 354552,
      "componentType": 5126,
      "count": 158,
      "max": [
        1.0,
        1.0,
        1.0
      ],
      "min": [
        -1.0,
        -1.0,
        -1.0
      ],
      "type": "VEC3"
    },
    {
      "bufferView": 1,
      "byteOffset": 117552,
      "componentType": 5126,
      "count": 158,
      "max": [
        0.2833609879016876,
        1.277250051498413
      ],
      "min": [
        -0.2833609879016876,
        0.7227470278739929
      ],
      "type": "VEC2"
    },
    {
      "bufferView": 0,
      "byteOffset": 140400,
      "componentType": 5125,
      "count": 348,
      "type": "SCALAR"
    },
    {
      "bufferView": 2,
      "byteOffset": 356448,
      "componentType": 5126,
      "count": 516,
      "max": [
        -36.857398986816406,
        3.0000100135803223,
        3.5012600421905518
      ],
      "min": [
        -42.0,
        -8.0,
        0.9999989867210388
      ],
      "type": "VEC3"
    },
    {
      "bufferView": 2,
      "byteOffset": 362640,
      "componentType": 5126,
      "count": 516,
      "max": [
        1.0,
        1.0,
        0.9999380111694336
      ],
      "min": [
        -0.9999380111694336,
        -1.0,
        -1.0
      ],
      "type": "VEC3"
    },
    {
      "bufferView": 1,
      "byteOffset": 118816,
      "componentType": 5126,
      "count": 516,
      "max": [
        0.9931640028953552,
        0.9801790118217468
      ],
      "min": [
        0.008491519838571548,
        0.013671900145709515
      ],
      "type": "VEC2"
    },
    {
      "bufferView": 0,
      "byteOffset": 141792,
      "componentType": 5125,
      "count": 1572,
      "type": "SCALAR"
    }
  ],
  "asset": {
    "extras": {
      "author": "juandavidchibuque (https://sketchfab.com/juandavidchibuque)",
      "license": "CC-BY-4.0 (http://creativecommons.org/licenses/by/4.0/)",
      "source": "https://sketchfab.com/3d-models/hello-neighbor-objects-e11e0a75f1fb4e14872c2c345c067291",
      "title": "Hello Neighbor Objects"
    },
    "generator": "Sketchfab-13.52.1",
    "version": "2.0"
  },
  "bufferViews": [
    {
      "buffer": 0,
      "byteLength": 148080,
      "name": "floatBufferViews",
      "target": 34963
    },
    {
      "buffer": 0,
      "byteLength": 122944,
      "byteOffset": 148080,
      "byteStride": 8,
      "name": "floatBufferViews",
      "target": 34962
    },
    {
      "buffer": 0,
      "byteLength": 368832,
      "byteOffset": 271024,
      "byteStride": 12,
      "name": "floatBufferViews",
      "target": 34962
    }
  ],
  "buffers": [
    {
      "byteLength": 639856,
      "uri": "scene.bin"
    }
  ],
  "images": [
    {
      "uri": "textures/21Mtl_baseColor.png"
    },
    {
      "uri": "textures/41Mtl_baseColor.png"
    },
    {
      "uri": "textures/Handle11Mtl_baseColor.png"
    },
    {
      "uri": "textures/Handle12Mtl_baseColor.png"
    },
    {
      "uri": "textures/Handle13Mtl_baseColor.png"
    },
    {
      "uri": "textures/Handle15Mtl_baseColor.png"
    },
    {
      "uri": "textures/Handle16Mtl_baseColor.png"
    },
    {
      "uri": "textures/Handle1Mtl_baseColor.png"
    },
    {
      "uri": "textures/Handle24Mtl_baseColor.png"
    },
    {
      "uri": "textures/Handle26Mtl_baseColor.png"
    },
    {
      "uri": "textures/Handle27Mtl_baseColor.png"
    },
    {
      "uri": "textures/Handle28Mtl_baseColor.png"
    },
    {
      "uri": "textures/Handle2Mtl_baseColor.png"
    },
    {
      "uri": "textures/Handle3Mtl_baseColor.png"
    },
    {
      "uri": "textures/Handle4Mtl_baseColor.png"
    },
    {
      "uri": "textures/Handle5Mtl_baseColor.png"
    },
    {
      "uri": "textures/Handle6Mtl_baseColor.png"
    },
    {
      "uri": "textures/Handle7Mtl_baseColor.png"
    },
    {
      "uri": "textures/Handle8Mtl_baseColor.png"
    },
    {
      "uri": "textures/Handle9Mtl_baseColor.png"
    },
    {
      "uri": "textures/MeshesholdingCoffee1Mtl_baseColor.png"
    }
  ],
  "materials": [
    {
      "doubleSided": true,
      "name": "21Mtl",
      "pbrMetallicRoughness": {
        "baseColorTexture": {
          "index": 0
        },
        "metallicFactor": 0.0,
        "roughnessFactor": 0.6
      }
    },
    {
      "doubleSided": true,
      "name": "31Mtl",
      "pbrMetallicRoughness": {
        "metallicFactor": 0.0,
        "roughnessFactor": 0.6
      }
    },
    {
      "doubleSided": true,
      "name": "41Mtl",
      "pbrMetallicRoughness": {
        "baseColorTexture": {
          "index": 1
        },
        "metallicFactor": 0.0,
        "roughnessFactor": 0.6
      }
    },
    {
      "doubleSided": true,
      "name": "51Mtl",
      "pbrMetallicRoughness": {
        "metallicFactor": 0.0,
        "roughnessFactor": 0.6
      }
    },
    {
      "doubleSided": true,
      "name": "Handle10Mtl",
      "pbrMetallicRoughness": {
        "metallicFactor": 0.0,
        "roughnessFactor": 0.6
      }
    },
    {
      "doubleSided": true,
      "name": "Handle11Mtl",
      "pbrMetallicRoughness": {
        "baseColorTexture": {
          "index": 2
        },
        "metallicFactor": 0.0,
        "roughnessFactor": 0.6
      }
    },
    {
      "doubleSided": true,
      "name": "Handle12Mtl",
      "pbrMetallicRoughness": {
        "baseColorTexture": {
          "index": 3
        },
        "metallicFactor": 0.0,
        "roughnessFactor": 0.6
      }
    },
    {
      "doubleSided": true,
      "name": "Handle13Mtl",
      "pbrMetallicRoughness": {
        "baseColorTexture": {
          "index": 4
        },
        "metallicFactor": 0.0,
        "roughnessFactor": 0.6
      }
    },
    {
      "doubleSided": true,
      "name": "Handle15Mtl",
      "pbrMetallicRoughness": {
        "baseColorTexture": {
          "index": 5
        },
        "metallicFactor": 0.0,
        "roughnessFactor": 0.6
      }
    },
    {
      "doubleSided": true,
      "name": "Handle16Mtl",
      "pbrMetallicRoughness": {
        "baseColorTexture": {
          "index": 6
        },
        "metallicFactor": 0.0,
        "roughnessFactor": 0.6
      }
    },
    {
      "doubleSided": true,
      "name": "Handle17Mtl",
      "pbrMetallicRoughness": {
        "baseColorFactor": [
          0.0,
          0.0,
          0.0,
          1.0
        ],
        "metallicFactor": 0.0,
        "roughnessFactor": 0.6
      }
    },
    {
      "doubleSided": true,
      "name": "Handle18Mtl",
      "pbrMetallicRoughness": {
        "baseColorFactor": [
          0.0,
          0.0,
          0.0,
          1.0
        ],
        "metallicFactor": 0.0,
        "roughnessFactor": 0.6
      }
    },
    {
      "doubleSided": true,
      "name": "Handle1Mtl",
      "pbrMetallicRoughness": {
        "baseColorTexture": {
          "index": 7
        },
        "metallicFactor": 0.0,
        "roughnessFactor": 0.6
      }
    },
    {
      "doubleSided": true,
      "name": "Handle24Mtl",
      "pbrMetallicRoughness": {
        "baseColorTexture": {
          "index": 8
        },
        "metallicFactor": 0.0,
        "roughnessFactor": 0.6
      }
    },
    {
      "doubleSided": true,
      "name": "Handle26Mtl",
      "pbrMetallicRoughness": {
        "baseColorTexture": {
          "index": 9
        },
        "metallicFactor": 0.0,
        "roughnessFactor": 0.6
      }
    },
    {
      "doubleSided": true,
      "name": "Handle27Mtl",
      "pbrMetallicRoughness": {
        "baseColorTexture": {
          "index": 10
        },
        "metallicFactor": 0.0,
        "roughnessFactor": 0.6
      }
    },
    {
      "doubleSided": true,
      "name": "Handle28Mtl",
      "pbrMetallicRoughness": {
        "baseColorTexture": {
          "index": 11
        },
        "metallicFactor": 0.0,
        "roughnessFactor": 0.6
      }
    },
    {
      "doubleSided": true,
      "name": "Handle2Mtl",
      "pbrMetallicRoughness": {
        "baseColorTexture": {
          "index": 12
        },
        "metallicFactor": 0.0,
        "roughnessFactor": 0.6
      }
    },
    {
      "doubleSided": true,
      "name": "Handle3Mtl",
      "pbrMetallicRoughness": {
        "baseColorTexture": {
          "index": 13
        },
        "metallicFactor": 0.0,
        "roughnessFactor": 0.6
      }
    },
    {
      "doubleSided": true,
      "name": "Handle4Mtl",
      "pbrMetallicRoughness": {
        "baseColorTexture": {
          "index": 14
        },
        "metallicFactor": 0.0,
        "roughnessFactor": 0.6
      }
    },
    {
      "doubleSided": true,
      "name": "Handle5Mtl",
      "pbrMetallicRoughness": {
        "baseColorTexture": {
          "index": 15
        },
        "metallicFactor": 0.0,
        "roughnessFactor": 0.6
      }
    },
    {
      "doubleSided": true,
      "name": "Handle6Mtl",
      "pbrMetallicRoughness": {
        "baseColorTexture": {
          "index": 16
        },
        "metallicFactor": 0.0,
        "roughnessFactor": 0.6
      }
    },
    {
      "doubleSided": true,
      "name": "Handle7Mtl",
      "pbrMetallicRoughness": {
        "baseColorTexture": {
          "index": 17
        },
        "metallicFactor": 0.0,
        "roughnessFactor": 0.6
      }
    },
    {
      "doubleSided": true,
      "name": "Handle8Mtl",
      "pbrMetallicRoughness": {
        "baseColorTexture": {
          "index": 18
        },
        "metallicFactor": 0.0,
        "roughnessFactor": 0.6
      }
    },
    {
      "doubleSided": true,
      "name": "Handle9Mtl",
      "pbrMetallicRoughness": {
        "baseColorTexture": {
          "index": 19
        },
        "metallicFactor": 0.0,
        "roughnessFactor": 0.6
      }
    },
    {
      "doubleSided": true,
      "name": "Meshesball31Mtl",
      "pbrMetallicRoughness": {
        "baseColorFactor": [
          1.0,
          0.0,
          0.0,
          1.0
        ],
        "metallicFactor": 0.0,
        "roughnessFactor": 0.6
      }
    },
    {
      "doubleSided": true,
      "name": "MeshesholdingCoffee1Mtl",
      "pbrMetallicRoughness": {
        "baseColorTexture": {
          "index": 20
        },
        "metallicFactor": 0.0,
        "roughnessFactor": 0.6
      }
    },
    {
      "doubleSided": true,
      "name": "Union1Mtl",
      "pbrMetallicRoughness": {
        "metallicFactor": 0.0,
        "roughnessFactor": 0.6
      }
    },
    {
      "doubleSided": true,
      "name": "Union2Mtl",
      "pbrMetallicRoughness": {
        "baseColorFactor": [
          0.512241594656483,
          0.9692805475029113,
          1.0,
          1.0
        ],
        "metallicFactor": 0.0,
        "roughnessFactor": 0.6
      }
    }
  ],
  "meshes": [
    {
      "name": "Object_0",
      "primitives": [
        {
          "attributes": {
            "NORMAL": 1,
            "POSITION": 0,
            "TEXCOORD_0": 2
          },
          "indices": 3,
          "material": 0,
          "mode": 4
        }
      ]
    },
    {
      "name": "Object_1",
      "primitives": [
        {
          "attributes": {
            "NORMAL": 5,
            "POSITION": 4,
            "TEXCOORD_0": 6
          },
          "indices": 7,
          "material": 3,
          "mode": 4
        }
      ]
    },
    {
      "name": "Object_2",
      "primitives": [
        {
          "attributes": {
            "NORMAL": 9,
            "POSITION": 8,
            "TEXCOORD_0": 10
          },
          "indices": 11,
          "material": 2,
          "mode": 4
        }
      ]
    },
    {
      "name": "Object_3",
      "primitives": [
        {
          "attributes": {
            "NORMAL": 13,
            "POSITION": 12,
            "TEXCOORD_0": 14
          },
          "indices": 15,
          "material": 1,
          "mode": 4
        }
      ]
    },
    {
      "name": "Object_4",
      "primitives": [
        {
          "attributes": {
            "NORMAL": 17,
            "POSITION": 16,
            "TEXCOORD_0": 18
          },
          "indices": 19,
          "material": 6,
          "mode": 4
        }
      ]
    },
    {
      "name": "Object_5",
      "primitives": [
        {
          "attributes": {
            "NORMAL": 21,
            "POSITION": 20,
            "TEXCOORD_0": 22
          },
          "indices": 23,
          "material": 5,
          "mode": 4
        }
      ]
    },
    {
      "name": "Object_6",
      "primitives": [
        {
          "attributes": {
            "NORMAL": 25,
            "POSITION": 24,
            "TEXCOORD_0": 26
          },
          "indices": 27,
          "material": 4,
          "mode": 4
        }
      ]
    },
    {
      "name": "Object_7",
      "primitives": [
        {
          "attributes": {
            "NORMAL": 29,
            "POSITION": 28,
            "TEXCOORD_0": 30
          },
          "indices": 31,
          "material": 10,
          "mode": 4
        }
      ]
    },
    {
      "name": "Object_8",
      "primitives": [
        {
          "attributes": {
            "NORMAL": 33,
            "POSITION": 32,
            "TEXCOORD_0": 34
          },
          "indices": 35,
          "material": 13,
          "mode": 4
        }
      ]
    },
    {
      "name": "Object_9",
      "primitives": [
        {
          "attributes": {
            "NORMAL": 37,
            "POSITION": 36,
            "TEXCOORD_0": 38
          },
          "indices": 39,
          "material": 14,
          "mode": 4
        }
      ]
    },
    {
      "name": "Object_10",
      "primitives": [
        {
          "attributes": {
            "NORMAL": 41,
            "POSITION": 40,
            "TEXCOORD_0": 42
          },
          "indices": 43,
          "material": 17,
          "mode": 4
        }
      ]
    },
    {
      "name": "Object_11",
      "primitives": [
        {
          "attributes": {
            "NORMAL": 45,
            "POSITION": 44,
            "TEXCOORD_0": 46
          },
          "indices": 47,
          "material": 15,
          "mode": 4
        }
      ]
    },
    {
      "name": "Object_12",
      "primitives": [
        {
          "attributes": {
            "NORMAL": 49,
            "POSITION": 48,
            "TEXCOORD_0": 50
          },
          "indices": 51,
          "material": 12,
          "mode": 4
        }
      ]
    },
    {
      "name": "Object_13",
      "primitives": [
        {
          "attributes": {
            "NORMAL": 53,
            "POSITION": 52,
            "TEXCOORD_0": 54
          },
          "indices": 55,
          "material": 7,
          "mode": 4
        }
      ]
    },
    {
      "name": "Object_14",
      "primitives": [
        {
          "attributes": {
            "NORMAL": 57,
            "POSITION": 56,
            "TEXCOORD_0": 58
          },
          "indices": 59,
          "material": 9,
          "mode": 4
        }
      ]
    },
    {
      "name": "Object_15",
      "primitives": [
        {
          "attributes": {
            "NORMAL": 61,
            "POSITION": 60,
            "TEXCOORD_0": 62
          },
          "indices": 63,
          "material": 8,
          "mode": 4
        }
      ]
    },
    {
      "name": "Object_16",
      "primitives": [
        {
          "attributes": {
            "NORMAL": 65,
            "POSITION": 64,
            "TEXCOORD_0": 66
          },
          "indices": 67,
          "material": 16,
          "mode": 4
        }
      ]
    },
    {
      "name": "Object_17",
      "primitives": [
        {
          "attributes": {
            "NORMAL": 69,
            "POSITION": 68,
            "TEXCOORD_0": 70
          },
          "indices": 71,
          "material": 20,
          "mode": 4
        }
      ]
    },
    {
      "name": "Object_18",
      "primitives": [
        {
          "attributes": {
            "NORMAL": 73,
            "POSITION": 72,
            "TEXCOORD_0": 74
          },
          "indices": 75,
          "material": 22,
          "mode": 4
        }
      ]
    },
    {
      "name": "Object_19",
      "primitives": [
        {
          "attributes": {
            "NORMAL": 77,
            "POSITION": 76,
            "TEXCOORD_0": 78
          },
          "indices": 79,
          "material": 21,
          "mode": 4
        }
      ]
    },
    {
      "name": "Object_20",
      "primitives": [
        {
          "attributes": {
            "NORMAL": 81,
            "POSITION": 80,
            "TEXCOORD_0": 82
          },
          "indices": 83,
          "material": 24,
          "mode": 4
        }
      ]
    },
    {
      "name": "Object_21",
      "primitives": [
        {
          "attributes": {
            "NORMAL": 85,
            "POSITION": 84,
            "TEXCOORD_0": 86
          },
          "indices": 87,
          "material": 19,
          "mode": 4
        }
      ]
    },
    {
      "name": "Object_22",
      "primitives": [
        {
          "attributes": {
            "NORMAL": 89,
            "POSITION": 88,
            "TEXCOORD_0": 90
          },
          "indices": 91,
          "material": 23,
          "mode": 4
        }
      ]
    },
    {
      "name": "Object_23",
      "primitives": [
        {
          "attributes": {
            "NORMAL": 93,
            "POSITION": 92,
            "TEXCOORD_0": 94
          },
          "indices": 95,
          "material": 26,
          "mode": 4
        }
      ]
    },
    {
      "name": "Object_24",
      "primitives": [
        {
          "attributes": {
            "NORMAL": 97,
            "POSITION": 96,
            "TEXCOORD_0": 98
          },
          "indices": 99,
          "material": 27,
          "mode": 4
        }
      ]
    },
    {
      "name": "Object_25",
      "primitives": [
        {
          "attributes": {
            "NORMAL": 101,
            "POSITION": 100,
            "TEXCOORD_0": 102
          },
          "indices": 103,
          "material": 28,
          "mode": 4
        }
      ]
    },
    {
      "name": "Object_26",
      "primitives": [
        {
          "attributes": {
            "NORMAL": 105,
            "POSITION": 104,
            "TEXCOORD_0": 106
          },
          "indices": 107,
          "material": 25,
          "mode": 4
        }
      ]
    },
    {
      "name": "Object_27",
      "primitives": [
        {
          "attributes": {
            "NORMAL": 109,
            "POSITION": 108,
            "TEXCOORD_0": 110
          },
          "indices": 111,
          "material": 11,
          "mode": 4
        }
      ]
    },
    {
      "name": "Object_28",
      "primitives": [
        {
          "attributes": {
            "NORMAL": 113,
            "POSITION": 112,
            "TEXCOORD_0": 114
          },
          "indices": 115,
          "material": 18,
          "mode": 4
        }
      ]
    }
  ],
  "nodes": [
    {
      "children": [
        1
      ],
      "matrix": [
        1.0,
        0.0,
        0.0,
        0.0,
        0.0,
        2.220446049250313e-16,
        -1.0,
        0.0,
        0.0,
        1.0,
        2.220446049250313e-16,
        0.0,
        0.0,
        0.0,
        0.0,
        1.0
      ],
      "name": "Sketchfab_model"
    },
    {
      "children": [
        2,
        3,
        4,
        5,
        6,
        7,
        8,
        9,
        10,
        11,
        12,
        13,
        14,
        15,
        16,
        17,
        18,
        19,
        20,
        21,
        22,
        23,
        24,
        25,
        26,
        27,
        28,
        29,
        30
      ],
      "name": "hello neighbor objects.obj.cleaner.materialmerger.gles"
    },
    {
      "mesh": 0,
      "name": "Object_2"
    },
    {
      "mesh": 1,
      "name": "Object_3"
    },
    {
      "mesh": 2,
      "name": "Object_4"
    },
    {
      "mesh": 3,
      "name": "Object_5"
    },
    {
      "mesh": 4,
      "name": "Object_6"
    },
    {
      "mesh": 5,
      "name": "Object_7"
    },
    {
      "mesh": 6,
      "name": "Object_8"
    },
    {
      "mesh": 7,
      "name": "Object_9"
    },
    {
      "mesh": 8,
      "name": "Object_10"
    },
    {
      "mesh": 9,
      "name": "Object_11"
    },
    {
      "mesh": 10,
      "name": "Object_12"
    },
    {
      "mesh": 11,
      "name": "Object_13"
    },
    {
      "mesh": 12,
      "name": "Object_14"
    },
    {
      "mesh": 13,
      "name": "Object_15"
    },
    {
      "mesh": 14,
      "name": "Object_16"
    },
    {
      "mesh": 15,
      "name": "Object_17"
    },
    {
      "mesh": 16,
      "name": "Object_18"
    },
    {
      "mesh": 17,
      "name": "Object_19"
    },
    {
      "mesh": 18,
      "name": "Object_20"
    },
    {
      "mesh": 19,
      "name": "Object_21"
    },
    {
      "mesh": 20,
      "name": "Object_22"
    },
    {
      "mesh": 21,
      "name": "Object_23"
    },
    {
      "mesh": 22,
      "name": "Object_24"
    },
    {
      "mesh": 23,
      "name": "Object_25"
    },
    {
      "mesh": 24,
      "name": "Object_26"
    },
    {
      "mesh": 25,
      "name": "Object_27"
    },
    {
      "mesh": 26,
      "name": "Object_28"
    },
    {
      "mesh": 27,
      "name": "Object_29"
    },
    {
      "mesh": 28,
      "name": "Object_30"
    }
  ],
  "samplers": [
    {
      "magFilter": 9729,
      "minFilter": 9987,
      "wrapS": 10497,
      "wrapT": 10497
    }
  ],
  "scene": 0,
  "scenes": [
    {
      "name": "Sketchfab_Scene",
      "nodes": [
        0
      ]
    }
  ],
  "textures": [
    {
      "sampler": 0,
      "source": 0
    },
    {
      "sampler": 0,
      "source": 1
    },
    {
      "sampler": 0,
      "source": 2
    },
    {
      "sampler": 0,
      "source": 3
    },
    {
      "sampler": 0,
      "source": 4
    },
    {
      "sampler": 0,
      "source": 5
    },
    {
      "sampler": 0,
      "source": 6
    },
    {
      "sampler": 0,
      "source": 7
    },
    {
      "sampler": 0,
      "source": 8
    },
    {
      "sampler": 0,
      "source": 9
    },
    {
      "sampler": 0,
      "source": 10
    },
    {
      "sampler": 0,
      "source": 11
    },
    {
      "sampler": 0,
      "source": 12
    },
    {
      "sampler": 0,
      "source": 13
    },
    {
      "sampler": 0,
      "source": 14
    },
    {
      "sampler": 0,
      "source": 15
    },
    {
      "sampler": 0,
      "source": 16
    },
    {
      "sampler": 0,
      "source": 17
    },
    {
      "sampler": 0,
      "source": 18
    },
    {
      "sampler": 0,
      "source": 19
    },
    {
      "sampler": 0,
      "source": 20
    }
  ]
}
