{
  "accessors": [
    {
      "bufferView": 2,
      "componentType": 5126,
      "count": 318,
      "max": [
        0.5135980248451233,
        0.4352110028266907,
        2.002634048461914
      ],
      "min": [
        -0.5537880063056946,
        -0.6618490219116211,
        0.13756200671195984
      ],
      "type": "VEC3"
    },
    {
      "bufferView": 2,
      "byteOffset": 3816,
      "componentType": 5126,
      "count": 318,
      "max": [
        0.9997027516365051,
        0.9983496069908142,
        0.9905545115470886
      ],
      "min": [
        -0.9999344348907471,
        -0.9998970031738281,
        -0.9946444630622864
      ],
      "type": "VEC3"
    },
    {
      "bufferView": 3,
      "componentType": 5126,
      "count": 318,
      "max": [
        0.9999183416366577,
        0.9994180202484131,
        0.7313735485076904,
        1.0
      ],
      "min": [
        -0.9998507499694824,
        -0.9995111227035522,
        -0.5955948829650879,
        1.0
      ],
      "type": "VEC4"
    },
    {
      "bufferView": 1,
      "componentType": 5126,
      "count": 318,
      "max": [
        5.296899795532227,
        1.9042999744415283
      ],
      "min": [
        -4.496099948883057,
        -7.140600204467773
      ],
      "type": "VEC2"
    },
    {
      "bufferView": 0,
      "componentType": 5125,
      "count": 942,
      "type": "SCALAR"
    },
    {
      "bufferView": 2,
      "byteOffset": 7632,
      "componentType": 5126,
      "count": 75,
      "max": [
        0.31650298833847046,
        0.24085399508476257,
        1.8944640159606934
      ],
      "min": [
        -0.3111949861049652,
        -0.5817710161209106,
        0.21803900599479675
      ],
      "type": "VEC3"
    },
    {
      "bufferView": 2,
      "byteOffset": 8532,
      "componentType": 5126,
      "count": 75,
      "max": [
        0.5326026678085327,
        0.08529620617628098,
        0.9999474287033081
      ],
      "min": [
        -0.5603106617927551,
        -0.9999310970306396,
        -0.8510974049568176
      ],
      "type": "VEC3"
    },
    {
      "bufferView": 3,
      "byteOffset": 5088,
      "componentType": 5126,
      "count": 75,
      "max": [
        0.9999718070030212,
        0.4882484972476959,
        0.46158772706985474,
        1.0
      ],
      "min": [
        0.7812144160270691,
        -0.4344618022441864,
        -0.22199919819831848,
        1.0
      ],
      "type": "VEC4"
    },
    {
      "bufferView": 1,
      "byteOffset": 2544,
      "componentType": 5126,
      "count": 75,
      "max": [
        3.474600076675415,
        1.5722999572753906
      ],
      "min": [
        -0.3668999969959259,
        -6.269499778747559
      ],
      "type": "VEC2"
    },
    {
      "bufferView": 0,
      "byteOffset": 3768,
      "componentType": 5125,
      "count": 258,
      "type": "SCALAR"
    },
    {
      "bufferView": 2,
      "byteOffset": 9432,
      "componentType": 5126,
      "count": 105,
      "max": [
        0.34319600462913513,
        0.19794400036334991,
        0.2374970018863678
      ],
      "min": [
        -0.3657500147819519,
        -0.5149340033531189,
        9.999999974752427e-07
      ],
      "type": "VEC3"
    },
    {
      "bufferView": 2,
      "byteOffset": 10692,
      "componentType": 5126,
      "count": 105,
      "max": [
        0.9999939203262329,
        0.9997190833091736,
        0.14440767467021942
      ],
      "min": [
        -0.994205117225647,
        -0.9978129863739014,
        -1.0
      ],
      "type": "VEC3"
    },
    {
      "bufferView": 1,
      "byteOffset": 3144,
      "componentType": 5126,
      "count": 105,
      "max": [
        4.023399829864502,
        8.683600425720215
      ],
      "min": [
        -2.039099931716919,
        -1.5059000253677368
      ],
      "type": "VEC2"
    },
    {
      "bufferView": 0,
      "byteOffset": 4800,
      "componentType": 5125,
      "count": 120,
      "type": "SCALAR"
    },
    {
      "bufferView": 2,
      "byteOffset": 11952,
      "componentType": 5126,
      "count": 12,
      "max": [
        0.2913860082626343,
        0.10204800218343735,
        0.23471200466156006
      ],
      "min": [
        -0.3111949861049652,
        -0.5137379765510559,
        0.21803900599479675
      ],
      "type": "VEC3"
    },
    {
      "bufferView": 2,
      "byteOffset": 12096,
      "componentType": 5126,
      "count": 12,
      "max": [
        0.09310290217399597,
        0.01999989151954651,
        -0.9955311417579651
      ],
      "min": [
        -0.08850103616714478,
        -9.999684698414057e-05,
        -0.999823272228241
      ],
      "type": "VEC3"
    },
    {
      "bufferView": 3,
      "byteOffset": 6288,
      "componentType": 5126,
      "count": 12,
      "max": [
        0.9999814629554749,
        0.05863431841135025,
        0.09387680888175964,
        1.0
      ],
      "min": [
        0.9889872670173645,
        -0.11747607588768005,
        -0.09002078324556351,
        1.0
      ],
      "type": "VEC4"
    },
    {
      "bufferView": 1,
      "byteOffset": 3984,
      "componentType": 5126,
      "count": 12,
      "max": [
        3.4296998977661133,
        -6.246099948883057
      ],
      "min": [
        2.585900068283081,
        -7.109399795532227
      ],
      "type": "VEC2"
    },
    {
      "bufferView": 0,
      "byteOffset": 5280,
      "componentType": 5125,
      "count": 24,
      "type": "SCALAR"
    }
  ],
  "asset": {
    "extras": {
      "author": "Youthful strawbewwy (https://sketchfab.com/Youthful-Strawberry)",
      "license": "CC-BY-4.0 (http://creativecommons.org/licenses/by/4.0/)",
      "source": "https://sketchfab.com/3d-models/hello-neighbor-armchair-2-944811879ab14baa8c9b4051717ef243",
      "title": "hello neighbor - Armchair 2"
    },
    "generator": "Sketchfab-12.67.0",
    "version": "2.0"
  },
  "bufferViews": [
    {
      "buffer": 0,
      "byteLength": 5376,
      "name": "floatBufferViews",
      "target": 34963
    },
    {
      "buffer": 0,
      "byteLength": 4080,
      "byteOffset": 5376,
      "byteStride": 8,
      "name": "floatBufferViews",
      "target": 34962
    },
    {
      "buffer": 0,
      "byteLength": 12240,
      "byteOffset": 9456,
      "byteStride": 12,
      "name": "floatBufferViews",
      "target": 34962
    },
    {
      "buffer": 0,
      "byteLength": 6480,
      "byteOffset": 21696,
      "byteStride": 16,
      "name": "floatBufferViews",
      "target": 34962
    }
  ],
  "buffers": [
    {
      "byteLength": 28176,
      "uri": "scene.bin"
    }
  ],
  "images": [
    {
      "uri": "textures/brown_fabric_Inst_normal.png"
    },
    {
      "uri": "textures/carpet_3_inst_baseColor.png"
    },
    {
      "uri": "textures/carpet_3_inst_normal.png"
    },
    {
      "uri": "textures/wood_23_inst_baseColor.png"
    },
    {
      "uri": "textures/wood_28_inst_normal.png"
    }
  ],
  "materials": [
    {
      "doubleSided": true,
      "name": "brown_fabric_Inst",
      "normalTexture": {
        "index": 0
      },
      "pbrMetallicRoughness": {
        "baseColorFactor": [
          0.09503719220000001,
          0.013567647800000004,
          0.002333680099999999,
          1.0
        ],
        "metallicFactor": 0.0,
        "roughnessFactor": 0.6
      }
    },
    {
      "doubleSided": true,
      "name": "carpet_3_inst",
      "normalTexture": {
        "index": 2
      },
      "pbrMetallicRoughness": {
        "baseColorTexture": {
          "index": 1
        },
        "metallicFactor": 0.0,
        "roughnessFactor": 0.6
      }
    },
    {
      "doubleSided": true,
      "name": "wood_23_inst",
      "pbrMetallicRoughness": {
        "baseColorTexture": {
          "index": 3
        },
        "metallicFactor": 0.0,
        "roughnessFactor": 0.6
      }
    },
    {
      "doubleSided": true,
      "name": "wood_28_inst",
      "normalTexture": {
        "index": 4
      },
      "pbrMetallicRoughness": {
        "baseColorTexture": {
          "index": 3
        },
        "metallicFactor": 0.0,
        "roughnessFactor": 0.6
      }
    }
  ],
  "meshes": [
    {
      "name": "Object_0",
      "primitives": [
        {
          "attributes": {
            "NORMAL": 1,
            "POSITION": 0,
            "TANGENT": 2,
            "TEXCOORD_0": 3
          },
          "indices": 4,
          "material": 0,
          "mode": 4
        }
      ]
    },
    {
      "name": "Object_1",
      "primitives": [
        {
          "attributes": {
            "NORMAL": 6,
            "POSITION": 5,
            "TANGENT": 7,
            "TEXCOORD_0": 8
          },
          "indices": 9,
          "material": 1,
          "mode": 4
        }
      ]
    },
    {
      "name": "Object_2",
      "primitives": [
        {
          "attributes": {
            "NORMAL": 11,
            "POSITION": 10,
            "TEXCOORD_0": 12
          },
          "indices": 13,
          "material": 2,
          "mode": 4
        }
      ]
    },
    {
      "name": "Object_3",
      "primitives": [
        {
          "attributes": {
            "NORMAL": 15,
            "POSITION": 14,
            "TANGENT": 16,
            "TEXCOORD_0": 17
          },
          "indices": 18,
          "material": 3,
          "mode": 4
        }
      ]
    }
  ],
  "nodes": [
    {
      "children": [
        1
      ],
      "matrix": [
        1.0,
        0.0,
        0.0,
        0.0,
        0.0,
        2.220446049250313e-16,
        -1.0,
        0.0,
        0.0,
        1.0,
        2.220446049250313e-16,
        0.0,
        0.0,
        0.0,
        0.0,
        1.0
      ],
      "name": "Sketchfab_model"
    },
    {
      "children": [
        2,
        3,
        4,
        5
      ],
      "name": "c33430fb0ed2424098cb43742e527ea4.obj.cleaner.materialmerger.gles"
    },
    {
      "mesh": 0,
      "name": "Object_2"
    },
    {
      "mesh": 1,
      "name": "Object_3"
    },
    {
      "mesh": 2,
      "name": "Object_4"
    },
    {
      "mesh": 3,
      "name": "Object_5"
    }
  ],
  "samplers": [
    {
      "magFilter": 9729,
      "minFilter": 9987,
      "wrapS": 10497,
      "wrapT": 10497
    },
    {
      "magFilter": 9729,
      "minFilter": 9729,
      "wrapS": 10497,
      "wrapT": 10497
    }
  ],
  "scene": 0,
  "scenes": [
    {
      "name": "Sketchfab_Scene",
      "nodes": [
        0
      ]
    }
  ],
  "textures": [
    {
      "sampler": 0,
      "source": 0
    },
    {
      "sampler": 1,
      "source": 1
    },
    {
      "sampler": 0,
      "source": 2
    },
    {
      "sampler": 0,
      "source": 3
    },
    {
      "sampler": 0,
      "source": 4
    }
  ]
}
