{
  "accessors": [
    {
      "bufferView": 2,
      "componentType": 5126,
      "count": 240,
      "max": [
        1.0454950332641602,
        0.24635100364685059,
        2.06188702583313
      ],
      "min": [
        -0.026189999654889107,
        -0.016054999083280563,
        0.0008590000215917826
      ],
      "type": "VEC3"
    },
    {
      "bufferView": 2,
      "byteOffset": 2880,
      "componentType": 5126,
      "count": 240,
      "max": [
        1.0,
        1.0,
        0.9947225451469421
      ],
      "min": [
        -1.0,
        -1.0,
        -1.0
      ],
      "type": "VEC3"
    },
    {
      "bufferView": 1,
      "componentType": 5126,
      "count": 240,
      "max": [
        0.9970700144767761,
        0.9843440055847168
      ],
      "min": [
        0.006268000230193138,
        0.00976600032299757
      ],
      "type": "VEC2"
    },
    {
      "bufferView": 0,
      "componentType": 5125,
      "count": 474,
      "type": "SCALAR"
    },
    {
      "bufferView": 2,
      "byteOffset": 5760,
      "componentType": 5126,
      "count": 190,
      "max": [
        -1.1333839893341064,
        0.24623100459575653,
        1.3123079538345337
      ],
      "min": [
        -1.6782809495925903,
        -0.016054999083280563,
        0.0012619999470189214
      ],
      "type": "VEC3"
    },
    {
      "bufferView": 2,
      "byteOffset": 8040,
      "componentType": 5126,
      "count": 190,
      "max": [
        1.0,
        1.0,
        0.9658538103103638
      ],
      "min": [
        -1.0,
        -1.0,
        -1.0
      ],
      "type": "VEC3"
    },
    {
      "bufferView": 1,
      "byteOffset": 1920,
      "componentType": 5126,
      "count": 190,
      "max": [
        0.9887700080871582,
        0.8920289874076843
      ],
      "min": [
        0.006268000230193138,
        0.01660200022161007
      ],
      "type": "VEC2"
    },
    {
      "bufferView": 0,
      "byteOffset": 1896,
      "componentType": 5125,
      "count": 354,
      "type": "SCALAR"
    },
    {
      "bufferView": 2,
      "byteOffset": 10320,
      "componentType": 5126,
      "count": 240,
      "max": [
        -0.21161800622940063,
        0.2473430037498474,
        1.917098045349121
      ],
      "min": [
        -0.9838449954986572,
        -0.016054999083280563,
        0.0012619999470189214
      ],
      "type": "VEC3"
    },
    {
      "bufferView": 2,
      "byteOffset": 13200,
      "componentType": 5126,
      "count": 240,
      "max": [
        1.0,
        1.0,
        0.9947225451469421
      ],
      "min": [
        -1.0,
        -1.0,
        -1.0
      ],
      "type": "VEC3"
    },
    {
      "bufferView": 1,
      "byteOffset": 3440,
      "componentType": 5126,
      "count": 240,
      "max": [
        0.9980469942092896,
        0.9705960154533386
      ],
      "min": [
        0.006268000230193138,
        0.006835999898612499
      ],
      "type": "VEC2"
    },
    {
      "bufferView": 0,
      "byteOffset": 3312,
      "componentType": 5125,
      "count": 450,
      "type": "SCALAR"
    },
    {
      "bufferView": 2,
      "byteOffset": 16080,
      "componentType": 5126,
      "count": 224,
      "max": [
        1.6234970092773438,
        0.2461560070514679,
        1.4241479635238647
      ],
      "min": [
        1.136564016342163,
        -0.016054999083280563,
        0.0012450000504031777
      ],
      "type": "VEC3"
    },
    {
      "bufferView": 2,
      "byteOffset": 18768,
      "componentType": 5126,
      "count": 224,
      "max": [
        1.0,
        1.0,
        0.9998751878738403
      ],
      "min": [
        -1.0,
        -1.0,
        -1.0
      ],
      "type": "VEC3"
    },
    {
      "bufferView": 1,
      "byteOffset": 5360,
      "componentType": 5126,
      "count": 224,
      "max": [
        0.9916989803314209,
        0.8920289874076843
      ],
      "min": [
        0.006268000230193138,
        0.016112999990582466
      ],
      "type": "VEC2"
    },
    {
      "bufferView": 0,
      "byteOffset": 5112,
      "componentType": 5125,
      "count": 414,
      "type": "SCALAR"
    }
  ],
  "asset": {
    "extras": {
      "author": "IrvingXD (https://sketchfab.com/Irv1ng)",
      "license": "CC-BY-4.0 (http://creativecommons.org/licenses/by/4.0/)",
      "source": "https://sketchfab.com/3d-models/hello-neighbor-search-and-rescue-cutouts-1-aa0c9dc66f81418ea823801168535e0d",
      "title": "Hello Neighbor Search and Rescue Cutouts 1"
    },
    "generator": "Sketchfab-16.31.0",
    "version": "2.0"
  },
  "bufferViews": [
    {
      "buffer": 0,
      "byteLength": 6768,
      "name": "floatBufferViews",
      "target": 34963
    },
    {
      "buffer": 0,
      "byteLength": 7152,
      "byteOffset": 6768,
      "byteStride": 8,
      "name": "floatBufferViews",
      "target": 34962
    },
    {
      "buffer": 0,
      "byteLength": 21456,
      "byteOffset": 13920,
      "byteStride": 12,
      "name": "floatBufferViews",
      "target": 34962
    }
  ],
  "buffers": [
    {
      "byteLength": 35376,
      "uri": "scene.bin"
    }
  ],
  "images": [
    {
      "uri": "textures/MI_CharacterCutouts.002_baseColor.png"
    }
  ],
  "materials": [
    {
      "doubleSided": true,
      "name": "MI_CharacterCutouts.002",
      "pbrMetallicRoughness": {
        "baseColorTexture": {
          "index": 0
        },
        "metallicFactor": 0.0,
        "roughnessFactor": 0.8011823178082373
      }
    },
    {
      "doubleSided": true,
      "name": "MI_CharacterCutouts.003",
      "pbrMetallicRoughness": {
        "baseColorTexture": {
          "index": 0
        },
        "metallicFactor": 0.0,
        "roughnessFactor": 0.8011823178082373
      }
    },
    {
      "doubleSided": true,
      "name": "MI_CharacterCutouts.005",
      "pbrMetallicRoughness": {
        "baseColorTexture": {
          "index": 0
        },
        "metallicFactor": 0.0,
        "roughnessFactor": 0.8011823178082373
      }
    },
    {
      "doubleSided": true,
      "name": "MI_CharacterCutouts.009",
      "pbrMetallicRoughness": {
        "baseColorTexture": {
          "index": 0
        },
        "metallicFactor": 0.0,
        "roughnessFactor": 0.8011823178082373
      }
    }
  ],
  "meshes": [
    {
      "name": "Object_0",
      "primitives": [
        {
          "attributes": {
            "NORMAL": 1,
            "POSITION": 0,
            "TEXCOORD_0": 2
          },
          "indices": 3,
          "material": 0,
          "mode": 4
        }
      ]
    },
    {
      "name": "Object_1",
      "primitives": [
        {
          "attributes": {
            "NORMAL": 5,
            "POSITION": 4,
            "TEXCOORD_0": 6
          },
          "indices": 7,
          "material": 1,
          "mode": 4
        }
      ]
    },
    {
      "name": "Object_2",
      "primitives": [
        {
          "attributes": {
            "NORMAL": 9,
            "POSITION": 8,
            "TEXCOORD_0": 10
          },
          "indices": 11,
          "material": 2,
          "mode": 4
        }
      ]
    },
    {
      "name": "Object_3",
      "primitives": [
        {
          "attributes": {
            "NORMAL": 13,
            "POSITION": 12,
            "TEXCOORD_0": 14
          },
          "indices": 15,
          "material": 3,
          "mode": 4
        }
      ]
    }
  ],
  "nodes": [
    {
      "children": [
        1
      ],
      "matrix": [
        1.0,
        0.0,
        0.0,
        0.0,
        0.0,
        2.220446049250313e-16,
        -1.0,
        0.0,
        0.0,
        1.0,
        2.220446049250313e-16,
        0.0,
        0.0,
        0.0,
        0.0,
        1.0
      ],
      "name": "Sketchfab_model"
    },
    {
      "children": [
        2,
        3,
        4,
        5
      ],
      "name": "CharacterCutouts1.obj.cleaner.materialmerger.gles"
    },
    {
      "mesh": 0,
      "name": "Object_2"
    },
    {
      "mesh": 1,
      "name": "Object_3"
    },
    {
      "mesh": 2,
      "name": "Object_4"
    },
    {
      "mesh": 3,
      "name": "Object_5"
    }
  ],
  "samplers": [
    {
      "magFilter": 9729,
      "minFilter": 9987,
      "wrapS": 10497,
      "wrapT": 10497
    }
  ],
  "scene": 0,
  "scenes": [
    {
      "name": "Sketchfab_Scene",
      "nodes": [
        0
      ]
    }
  ],
  "textures": [
    {
      "sampler": 0,
      "source": 0
    }
  ]
}
