{
  "accessors": [
    {
      "bufferView": 2,
      "componentType": 5126,
      "count": 781,
      "max": [
        4.03242826461792,
        7.354681491851807,
        1.0483185052871704
      ],
      "min": [
        -4.03242826461792,
        -5.4228835105896,
        -1.0483185052871704
      ],
      "type": "VEC3"
    },
    {
      "bufferView": 2,
      "byteOffset": 9372,
      "componentType": 5126,
      "count": 781,
      "max": [
        1.0,
        1.0,
        1.0
      ],
      "min": [
        -1.0,
        -1.0,
        -1.0
      ],
      "type": "VEC3"
    },
    {
      "bufferView": 1,
      "componentType": 5126,
      "count": 781,
      "max": [
        0.875,
        1.0
      ],
      "min": [
        0.3951130509376526,
        0.0
      ],
      "type": "VEC2"
    },
    {
      "bufferView": 0,
      "componentType": 5125,
      "count": 1944,
      "type": "SCALAR"
    },
    {
      "bufferView": 2,
      "byteOffset": 18744,
      "componentType": 5126,
      "count": 14,
      "max": [
        1.0,
        1.0,
        1.0
      ],
      "min": [
        -1.0,
        -1.0,
        -1.0
      ],
      "type": "VEC3"
    },
    {
      "bufferView": 2,
      "byteOffset": 18912,
      "componentType": 5126,
      "count": 14,
      "max": [
        0.5773502588272095,
        0.5773502588272095,
        0.5773502588272095
      ],
      "min": [
        -0.5773502588272095,
        -0.5773502588272095,
        -0.5773502588272095
      ],
      "type": "VEC3"
    },
    {
      "bufferView": 1,
      "byteOffset": 6248,
      "componentType": 5126,
      "count": 14,
      "max": [
        0.875,
        1.0
      ],
      "min": [
        0.125,
        0.0
      ],
      "type": "VEC2"
    },
    {
      "bufferView": 0,
      "byteOffset": 7776,
      "componentType": 5125,
      "count": 36,
      "type": "SCALAR"
    },
    {
      "bufferView": 2,
      "byteOffset": 19080,
      "componentType": 5126,
      "count": 14,
      "max": [
        1.0,
        1.0,
        1.0
      ],
      "min": [
        -1.0,
        -1.0,
        -1.0
      ],
      "type": "VEC3"
    },
    {
      "bufferView": 2,
      "byteOffset": 19248,
      "componentType": 5126,
      "count": 14,
      "max": [
        0.5773502588272095,
        0.5773502588272095,
        0.5773502588272095
      ],
      "min": [
        -0.5773502588272095,
        -0.5773502588272095,
        -0.5773502588272095
      ],
      "type": "VEC3"
    },
    {
      "bufferView": 1,
      "byteOffset": 6360,
      "componentType": 5126,
      "count": 14,
      "max": [
        0.875,
        1.0
      ],
      "min": [
        0.125,
        0.0
      ],
      "type": "VEC2"
    },
    {
      "bufferView": 0,
      "byteOffset": 7920,
      "componentType": 5125,
      "count": 36,
      "type": "SCALAR"
    },
    {
      "bufferView": 2,
      "byteOffset": 19416,
      "componentType": 5126,
      "count": 14,
      "max": [
        1.0,
        1.0,
        1.0
      ],
      "min": [
        -1.0,
        -1.0,
        -1.0
      ],
      "type": "VEC3"
    },
    {
      "bufferView": 2,
      "byteOffset": 19584,
      "componentType": 5126,
      "count": 14,
      "max": [
        0.5773502588272095,
        0.5773502588272095,
        0.5773502588272095
      ],
      "min": [
        -0.5773502588272095,
        -0.5773502588272095,
        -0.5773502588272095
      ],
      "type": "VEC3"
    },
    {
      "bufferView": 1,
      "byteOffset": 6472,
      "componentType": 5126,
      "count": 14,
      "max": [
        0.875,
        1.0
      ],
      "min": [
        0.125,
        0.0
      ],
      "type": "VEC2"
    },
    {
      "bufferView": 0,
      "byteOffset": 8064,
      "componentType": 5125,
      "count": 36,
      "type": "SCALAR"
    },
    {
      "bufferView": 2,
      "byteOffset": 19752,
      "componentType": 5126,
      "count": 14,
      "max": [
        1.0,
        1.0,
        1.0
      ],
      "min": [
        -1.0,
        -1.0,
        -1.0
      ],
      "type": "VEC3"
    },
    {
      "bufferView": 2,
      "byteOffset": 19920,
      "componentType": 5126,
      "count": 14,
      "max": [
        0.5773502588272095,
        0.5773502588272095,
        0.5773502588272095
      ],
      "min": [
        -0.5773502588272095,
        -0.5773502588272095,
        -0.5773502588272095
      ],
      "type": "VEC3"
    },
    {
      "bufferView": 1,
      "byteOffset": 6584,
      "componentType": 5126,
      "count": 14,
      "max": [
        0.875,
        1.0
      ],
      "min": [
        0.125,
        0.0
      ],
      "type": "VEC2"
    },
    {
      "bufferView": 0,
      "byteOffset": 8208,
      "componentType": 5125,
      "count": 36,
      "type": "SCALAR"
    },
    {
      "bufferView": 2,
      "byteOffset": 20088,
      "componentType": 5126,
      "count": 14,
      "max": [
        1.0,
        1.0,
        1.0
      ],
      "min": [
        -1.0,
        -1.0,
        -1.0
      ],
      "type": "VEC3"
    },
    {
      "bufferView": 2,
      "byteOffset": 20256,
      "componentType": 5126,
      "count": 14,
      "max": [
        0.5773502588272095,
        0.5773502588272095,
        0.5773502588272095
      ],
      "min": [
        -0.5773502588272095,
        -0.5773502588272095,
        -0.5773502588272095
      ],
      "type": "VEC3"
    },
    {
      "bufferView": 1,
      "byteOffset": 6696,
      "componentType": 5126,
      "count": 14,
      "max": [
        0.875,
        1.0
      ],
      "min": [
        0.125,
        0.0
      ],
      "type": "VEC2"
    },
    {
      "bufferView": 0,
      "byteOffset": 8352,
      "componentType": 5125,
      "count": 36,
      "type": "SCALAR"
    },
    {
      "bufferView": 2,
      "byteOffset": 20424,
      "componentType": 5126,
      "count": 14,
      "max": [
        1.0,
        1.0,
        1.0
      ],
      "min": [
        -1.0,
        -1.0,
        -1.0
      ],
      "type": "VEC3"
    },
    {
      "bufferView": 2,
      "byteOffset": 20592,
      "componentType": 5126,
      "count": 14,
      "max": [
        0.5773502588272095,
        0.5773502588272095,
        0.5773502588272095
      ],
      "min": [
        -0.5773502588272095,
        -0.5773502588272095,
        -0.5773502588272095
      ],
      "type": "VEC3"
    },
    {
      "bufferView": 1,
      "byteOffset": 6808,
      "componentType": 5126,
      "count": 14,
      "max": [
        0.875,
        1.0
      ],
      "min": [
        0.125,
        0.0
      ],
      "type": "VEC2"
    },
    {
      "bufferView": 0,
      "byteOffset": 8496,
      "componentType": 5125,
      "count": 36,
      "type": "SCALAR"
    },
    {
      "bufferView": 2,
      "byteOffset": 20760,
      "componentType": 5126,
      "count": 14,
      "max": [
        1.0,
        1.0,
        1.0
      ],
      "min": [
        -1.0,
        -1.0,
        -1.0
      ],
      "type": "VEC3"
    },
    {
      "bufferView": 2,
      "byteOffset": 20928,
      "componentType": 5126,
      "count": 14,
      "max": [
        0.5773502588272095,
        0.5773502588272095,
        0.5773502588272095
      ],
      "min": [
        -0.5773502588272095,
        -0.5773502588272095,
        -0.5773502588272095
      ],
      "type": "VEC3"
    },
    {
      "bufferView": 1,
      "byteOffset": 6920,
      "componentType": 5126,
      "count": 14,
      "max": [
        0.875,
        1.0
      ],
      "min": [
        0.125,
        0.0
      ],
      "type": "VEC2"
    },
    {
      "bufferView": 0,
      "byteOffset": 8640,
      "componentType": 5125,
      "count": 36,
      "type": "SCALAR"
    },
    {
      "bufferView": 2,
      "byteOffset": 21096,
      "componentType": 5126,
      "count": 14,
      "max": [
        1.0,
        1.0,
        1.0
      ],
      "min": [
        -1.0,
        -1.0,
        -1.0
      ],
      "type": "VEC3"
    },
    {
      "bufferView": 2,
      "byteOffset": 21264,
      "componentType": 5126,
      "count": 14,
      "max": [
        0.5773502588272095,
        0.5773502588272095,
        0.5773502588272095
      ],
      "min": [
        -0.5773502588272095,
        -0.5773502588272095,
        -0.5773502588272095
      ],
      "type": "VEC3"
    },
    {
      "bufferView": 1,
      "byteOffset": 7032,
      "componentType": 5126,
      "count": 14,
      "max": [
        0.875,
        1.0
      ],
      "min": [
        0.125,
        0.0
      ],
      "type": "VEC2"
    },
    {
      "bufferView": 0,
      "byteOffset": 8784,
      "componentType": 5125,
      "count": 36,
      "type": "SCALAR"
    },
    {
      "bufferView": 2,
      "byteOffset": 21432,
      "componentType": 5126,
      "count": 14,
      "max": [
        1.0,
        1.0,
        1.0
      ],
      "min": [
        -1.0,
        -1.0,
        -1.0
      ],
      "type": "VEC3"
    },
    {
      "bufferView": 2,
      "byteOffset": 21600,
      "componentType": 5126,
      "count": 14,
      "max": [
        0.5773502588272095,
        0.5773502588272095,
        0.5773502588272095
      ],
      "min": [
        -0.5773502588272095,
        -0.5773502588272095,
        -0.5773502588272095
      ],
      "type": "VEC3"
    },
    {
      "bufferView": 1,
      "byteOffset": 7144,
      "componentType": 5126,
      "count": 14,
      "max": [
        0.875,
        1.0
      ],
      "min": [
        0.125,
        0.0
      ],
      "type": "VEC2"
    },
    {
      "bufferView": 0,
      "byteOffset": 8928,
      "componentType": 5125,
      "count": 36,
      "type": "SCALAR"
    },
    {
      "bufferView": 2,
      "byteOffset": 21768,
      "componentType": 5126,
      "count": 14,
      "max": [
        1.0,
        1.0,
        1.0
      ],
      "min": [
        -1.0,
        -1.0,
        -1.0
      ],
      "type": "VEC3"
    },
    {
      "bufferView": 2,
      "byteOffset": 21936,
      "componentType": 5126,
      "count": 14,
      "max": [
        0.5773502588272095,
        0.5773502588272095,
        0.5773502588272095
      ],
      "min": [
        -0.5773502588272095,
        -0.5773502588272095,
        -0.5773502588272095
      ],
      "type": "VEC3"
    },
    {
      "bufferView": 1,
      "byteOffset": 7256,
      "componentType": 5126,
      "count": 14,
      "max": [
        0.875,
        1.0
      ],
      "min": [
        0.125,
        0.0
      ],
      "type": "VEC2"
    },
    {
      "bufferView": 0,
      "byteOffset": 9072,
      "componentType": 5125,
      "count": 36,
      "type": "SCALAR"
    },
    {
      "bufferView": 2,
      "byteOffset": 22104,
      "componentType": 5126,
      "count": 14,
      "max": [
        1.0,
        1.0,
        1.0
      ],
      "min": [
        -1.0,
        -1.0,
        -1.0
      ],
      "type": "VEC3"
    },
    {
      "bufferView": 2,
      "byteOffset": 22272,
      "componentType": 5126,
      "count": 14,
      "max": [
        0.5773502588272095,
        0.5773502588272095,
        0.5773502588272095
      ],
      "min": [
        -0.5773502588272095,
        -0.5773502588272095,
        -0.5773502588272095
      ],
      "type": "VEC3"
    },
    {
      "bufferView": 1,
      "byteOffset": 7368,
      "componentType": 5126,
      "count": 14,
      "max": [
        0.875,
        1.0
      ],
      "min": [
        0.125,
        0.0
      ],
      "type": "VEC2"
    },
    {
      "bufferView": 0,
      "byteOffset": 9216,
      "componentType": 5125,
      "count": 36,
      "type": "SCALAR"
    },
    {
      "bufferView": 2,
      "byteOffset": 22440,
      "componentType": 5126,
      "count": 14,
      "max": [
        1.0,
        1.0,
        1.0
      ],
      "min": [
        -1.0,
        -1.0,
        -1.0
      ],
      "type": "VEC3"
    },
    {
      "bufferView": 2,
      "byteOffset": 22608,
      "componentType": 5126,
      "count": 14,
      "max": [
        0.5773502588272095,
        0.5773502588272095,
        0.5773502588272095
      ],
      "min": [
        -0.5773502588272095,
        -0.5773502588272095,
        -0.5773502588272095
      ],
      "type": "VEC3"
    },
    {
      "bufferView": 1,
      "byteOffset": 7480,
      "componentType": 5126,
      "count": 14,
      "max": [
        0.875,
        1.0
      ],
      "min": [
        0.125,
        0.0
      ],
      "type": "VEC2"
    },
    {
      "bufferView": 0,
      "byteOffset": 9360,
      "componentType": 5125,
      "count": 36,
      "type": "SCALAR"
    },
    {
      "bufferView": 2,
      "byteOffset": 22776,
      "componentType": 5126,
      "count": 11,
      "max": [
        0.5,
        0.0,
        -1.8326919078826904
      ],
      "min": [
        -0.4953426718711853,
        -0.0708165168762207,
        -1.8326919078826904
      ],
      "type": "VEC3"
    },
    {
      "bufferView": 2,
      "byteOffset": 22908,
      "componentType": 5126,
      "count": 11,
      "max": [
        0.7060011029243469,
        2.5017862981258077e-07,
        1.0
      ],
      "min": [
        -0.7070679664611816,
        -0.7071067690849304,
        0.5773502588272095
      ],
      "type": "VEC3"
    },
    {
      "bufferView": 1,
      "byteOffset": 7592,
      "componentType": 5126,
      "count": 11,
      "max": [
        0.9894809722900391,
        0.9993629455566406
      ],
      "min": [
        0.032874416559934616,
        0.02244618907570839
      ],
      "type": "VEC2"
    },
    {
      "bufferView": 0,
      "byteOffset": 9504,
      "componentType": 5125,
      "count": 21,
      "type": "SCALAR"
    },
    {
      "bufferView": 2,
      "byteOffset": 23040,
      "componentType": 5126,
      "count": 19,
      "max": [
        0.9449719786643982,
        0.8866182565689087,
        0.7647154927253723
      ],
      "min": [
        -0.9163161516189575,
        0.5454084873199463,
        0.7647154927253723
      ],
      "type": "VEC3"
    },
    {
      "bufferView": 2,
      "byteOffset": 23268,
      "componentType": 5126,
      "count": 19,
      "max": [
        0.0,
        4.692616428769725e-08,
        1.0
      ],
      "min": [
        0.0,
        4.692616428769725e-08,
        1.0
      ],
      "type": "VEC3"
    },
    {
      "bufferView": 1,
      "byteOffset": 7680,
      "componentType": 5126,
      "count": 19,
      "max": [
        0.5219375491142273,
        0.9164455533027649
      ],
      "min": [
        0.016479337587952614,
        0.09724825620651245
      ],
      "type": "VEC2"
    },
    {
      "bufferView": 0,
      "byteOffset": 9588,
      "componentType": 5125,
      "count": 51,
      "type": "SCALAR"
    },
    {
      "bufferView": 2,
      "byteOffset": 23496,
      "componentType": 5126,
      "count": 378,
      "max": [
        1.0,
        1.0,
        1.0
      ],
      "min": [
        -1.0,
        -1.0,
        -1.8326919078826904
      ],
      "type": "VEC3"
    },
    {
      "bufferView": 2,
      "byteOffset": 28032,
      "componentType": 5126,
      "count": 378,
      "max": [
        1.0,
        1.0,
        1.0
      ],
      "min": [
        -1.0,
        -1.0,
        -1.0
      ],
      "type": "VEC3"
    },
    {
      "bufferView": 1,
      "byteOffset": 7832,
      "componentType": 5126,
      "count": 378,
      "max": [
        0.9469550848007202,
        0.1596064269542694
      ],
      "min": [
        0.8297922015190125,
        0.042443543672561646
      ],
      "type": "VEC2"
    },
    {
      "bufferView": 0,
      "byteOffset": 9792,
      "componentType": 5125,
      "count": 1374,
      "type": "SCALAR"
    },
    {
      "bufferView": 2,
      "byteOffset": 32568,
      "componentType": 5126,
      "count": 608,
      "max": [
        0.4700000286102295,
        0.009999999776482582,
        0.009000000543892384
      ],
      "min": [
        0.030000001192092896,
        -0.009999999776482582,
        -0.6910000443458557
      ],
      "type": "VEC3"
    },
    {
      "bufferView": 2,
      "byteOffset": 39864,
      "componentType": 5126,
      "count": 608,
      "max": [
        1.0,
        1.0,
        1.0
      ],
      "min": [
        -1.0,
        -1.0,
        -1.0
      ],
      "type": "VEC3"
    },
    {
      "bufferView": 1,
      "byteOffset": 10856,
      "componentType": 5126,
      "count": 608,
      "max": [
        1.0,
        1.0
      ],
      "min": [
        0.0,
        0.0
      ],
      "type": "VEC2"
    },
    {
      "bufferView": 0,
      "byteOffset": 15288,
      "componentType": 5125,
      "count": 1152,
      "type": "SCALAR"
    },
    {
      "bufferView": 2,
      "byteOffset": 47160,
      "componentType": 5126,
      "count": 18,
      "max": [
        0.30000001192092896,
        0.009999999776482582,
        -0.0
      ],
      "min": [
        0.20200000703334808,
        -0.009999999776482582,
        -0.6820000410079956
      ],
      "type": "VEC3"
    },
    {
      "bufferView": 2,
      "byteOffset": 47376,
      "componentType": 5126,
      "count": 18,
      "max": [
        0.7071068286895752,
        1.0,
        0.7071068286895752
      ],
      "min": [
        -0.7071068286895752,
        -1.0,
        -0.7071068286895752
      ],
      "type": "VEC3"
    },
    {
      "bufferView": 1,
      "byteOffset": 15720,
      "componentType": 5126,
      "count": 18,
      "max": [
        1.0,
        1.0
      ],
      "min": [
        0.0,
        0.0
      ],
      "type": "VEC2"
    },
    {
      "bufferView": 0,
      "byteOffset": 19896,
      "componentType": 5125,
      "count": 36,
      "type": "SCALAR"
    },
    {
      "bufferView": 2,
      "byteOffset": 47592,
      "componentType": 5126,
      "count": 482,
      "max": [
        0.4660000205039978,
        0.009999999776482582,
        -0.0
      ],
      "min": [
        0.03400000184774399,
        -0.009999999776482582,
        -0.6910000443458557
      ],
      "type": "VEC3"
    },
    {
      "bufferView": 2,
      "byteOffset": 53376,
      "componentType": 5126,
      "count": 482,
      "max": [
        0.9999859929084778,
        1.0,
        0.999904215335846
      ],
      "min": [
        -0.9998740553855896,
        -1.0,
        -0.9999055862426758
      ],
      "type": "VEC3"
    },
    {
      "bufferView": 1,
      "byteOffset": 15864,
      "componentType": 5126,
      "count": 482,
      "max": [
        1.0,
        1.0
      ],
      "min": [
        0.0,
        0.0
      ],
      "type": "VEC2"
    },
    {
      "bufferView": 0,
      "byteOffset": 20040,
      "componentType": 5125,
      "count": 1056,
      "type": "SCALAR"
    },
    {
      "bufferView": 2,
      "byteOffset": 59160,
      "componentType": 5126,
      "count": 886,
      "max": [
        0.4240000247955322,
        0.009999999776482582,
        0.009000000543892384
      ],
      "min": [
        0.06400000303983688,
        -0.009999999776482582,
        -0.6910000443458557
      ],
      "type": "VEC3"
    },
    {
      "bufferView": 2,
      "byteOffset": 69792,
      "componentType": 5126,
      "count": 886,
      "max": [
        0.9999196529388428,
        1.0,
        0.9999053478240967
      ],
      "min": [
        -1.0,
        -1.0,
        -0.999915361404419
      ],
      "type": "VEC3"
    },
    {
      "bufferView": 1,
      "byteOffset": 19720,
      "componentType": 5126,
      "count": 886,
      "max": [
        1.0,
        1.0
      ],
      "min": [
        0.0,
        0.0
      ],
      "type": "VEC2"
    },
    {
      "bufferView": 0,
      "byteOffset": 24264,
      "componentType": 5125,
      "count": 1752,
      "type": "SCALAR"
    },
    {
      "bufferView": 2,
      "byteOffset": 80424,
      "componentType": 5126,
      "count": 76,
      "max": [
        0.4710000157356262,
        0.009999999776482582,
        -0.0
      ],
      "min": [
        0.01100000087171793,
        -0.009999999776482582,
        -0.6910000443458557
      ],
      "type": "VEC3"
    },
    {
      "bufferView": 2,
      "byteOffset": 81336,
      "componentType": 5126,
      "count": 76,
      "max": [
        0.9018459916114807,
        1.0,
        0.9018460512161255
      ],
      "min": [
        -0.9418606162071228,
        -1.0,
        -0.9035868048667908
      ],
      "type": "VEC3"
    },
    {
      "bufferView": 1,
      "byteOffset": 26808,
      "componentType": 5126,
      "count": 76,
      "max": [
        1.0,
        1.0
      ],
      "min": [
        0.0,
        0.0
      ],
      "type": "VEC2"
    },
    {
      "bufferView": 0,
      "byteOffset": 31272,
      "componentType": 5125,
      "count": 168,
      "type": "SCALAR"
    },
    {
      "bufferView": 2,
      "byteOffset": 82248,
      "componentType": 5126,
      "count": 482,
      "max": [
        0.43800002336502075,
        0.009999999776482582,
        0.009000000543892384
      ],
      "min": [
        0.05000000074505806,
        -0.009999999776482582,
        -0.6820000410079956
      ],
      "type": "VEC3"
    },
    {
      "bufferView": 2,
      "byteOffset": 88032,
      "componentType": 5126,
      "count": 482,
      "max": [
        1.0,
        1.0,
        0.9997766613960266
      ],
      "min": [
        -0.9999938011169434,
        -1.0,
        -0.9998733401298523
      ],
      "type": "VEC3"
    },
    {
      "bufferView": 1,
      "byteOffset": 27416,
      "componentType": 5126,
      "count": 482,
      "max": [
        1.0,
        1.0
      ],
      "min": [
        0.0,
        0.0
      ],
      "type": "VEC2"
    },
    {
      "bufferView": 0,
      "byteOffset": 31944,
      "componentType": 5125,
      "count": 924,
      "type": "SCALAR"
    },
    {
      "bufferView": 2,
      "byteOffset": 93816,
      "componentType": 5126,
      "count": 754,
      "max": [
        0.4650000333786011,
        0.009999999776482582,
        0.009000000543892384
      ],
      "min": [
        0.04400000348687172,
        -0.009999999776482582,
        -0.6910000443458557
      ],
      "type": "VEC3"
    },
    {
      "bufferView": 2,
      "byteOffset": 102864,
      "componentType": 5126,
      "count": 754,
      "max": [
        0.9999922513961792,
        1.0,
        0.9999932646751404
      ],
      "min": [
        -0.9999962449073792,
        -1.0,
        -0.9999387264251709
      ],
      "type": "VEC3"
    },
    {
      "bufferView": 1,
      "byteOffset": 31272,
      "componentType": 5126,
      "count": 754,
      "max": [
        1.0,
        1.0
      ],
      "min": [
        0.0,
        0.0
      ],
      "type": "VEC2"
    },
    {
      "bufferView": 0,
      "byteOffset": 35640,
      "componentType": 5125,
      "count": 1452,
      "type": "SCALAR"
    },
    {
      "bufferView": 2,
      "byteOffset": 111912,
      "componentType": 5126,
      "count": 26,
      "max": [
        0.49000000953674316,
        0.009999999776482582,
        0.009000000543892384
      ],
      "min": [
        0.049000002443790436,
        -0.009999999776482582,
        -0.6820000410079956
      ],
      "type": "VEC3"
    },
    {
      "bufferView": 2,
      "byteOffset": 112224,
      "componentType": 5126,
      "count": 26,
      "max": [
        0.8391129970550537,
        1.0,
        0.9326011538505554
      ],
      "min": [
        -0.9324883222579956,
        -1.0,
        -0.7071068286895752
      ],
      "type": "VEC3"
    },
    {
      "bufferView": 1,
      "byteOffset": 37304,
      "componentType": 5126,
      "count": 26,
      "max": [
        1.0,
        1.0
      ],
      "min": [
        0.0,
        0.0
      ],
      "type": "VEC2"
    },
    {
      "bufferView": 0,
      "byteOffset": 41448,
      "componentType": 5125,
      "count": 60,
      "type": "SCALAR"
    },
    {
      "bufferView": 2,
      "byteOffset": 112536,
      "componentType": 5126,
      "count": 1210,
      "max": [
        0.46800002455711365,
        0.009999999776482582,
        0.009000000543892384
      ],
      "min": [
        0.03200000151991844,
        -0.009999999776482582,
        -0.6910000443458557
      ],
      "type": "VEC3"
    },
    {
      "bufferView": 2,
      "byteOffset": 127056,
      "componentType": 5126,
      "count": 1210,
      "max": [
        0.9999986886978149,
        1.0,
        1.0
      ],
      "min": [
        -0.9999958276748657,
        -1.0,
        -1.0
      ],
      "type": "VEC3"
    },
    {
      "bufferView": 1,
      "byteOffset": 37512,
      "componentType": 5126,
      "count": 1210,
      "max": [
        1.0,
        1.0
      ],
      "min": [
        0.0,
        0.0
      ],
      "type": "VEC2"
    },
    {
      "bufferView": 0,
      "byteOffset": 41688,
      "componentType": 5125,
      "count": 2316,
      "type": "SCALAR"
    },
    {
      "bufferView": 2,
      "byteOffset": 141576,
      "componentType": 5126,
      "count": 824,
      "max": [
        0.4610000252723694,
        0.009999999776482582,
        0.009000000543892384
      ],
      "min": [
        0.036000002175569534,
        -0.009999999776482582,
        -0.6910000443458557
      ],
      "type": "VEC3"
    },
    {
      "bufferView": 2,
      "byteOffset": 151464,
      "componentType": 5126,
      "count": 824,
      "max": [
        0.9999991059303284,
        1.0,
        0.9999651312828064
      ],
      "min": [
        -0.9999988079071045,
        -1.0,
        -0.9999983906745911
      ],
      "type": "VEC3"
    },
    {
      "bufferView": 1,
      "byteOffset": 47192,
      "componentType": 5126,
      "count": 824,
      "max": [
        1.0,
        1.0
      ],
      "min": [
        0.0,
        0.0
      ],
      "type": "VEC2"
    },
    {
      "bufferView": 0,
      "byteOffset": 50952,
      "componentType": 5125,
      "count": 1596,
      "type": "SCALAR"
    }
  ],
  "asset": {
    "extras": {
      "author": "Aya Dja (https://sketchfab.com/ayadja1977)",
      "license": "CC-BY-4.0 (http://creativecommons.org/licenses/by/4.0/)",
      "source": "https://sketchfab.com/3d-models/low-poly-panel-code-keypad-cbd5419755bc4711b1d9c0e0c3527f9f",
      "title": "Low poly panel code ( keypad )"
    },
    "generator": "Sketchfab-15.27.0",
    "version": "2.0"
  },
  "bufferViews": [
    {
      "buffer": 0,
      "byteLength": 57336,
      "name": "floatBufferViews",
      "target": 34963
    },
    {
      "buffer": 0,
      "byteLength": 53784,
      "byteOffset": 57336,
      "byteStride": 8,
      "name": "floatBufferViews",
      "target": 34962
    },
    {
      "buffer": 0,
      "byteLength": 161352,
      "byteOffset": 111120,
      "byteStride": 12,
      "name": "floatBufferViews",
      "target": 34962
    }
  ],
  "buffers": [
    {
      "byteLength": 272472,
      "uri": "scene.bin"
    }
  ],
  "extensionsUsed": [
    "KHR_materials_specular"
  ],
  "images": [
    {
      "uri": "textures/main_baseColor.png"
    },
    {
      "uri": "textures/back-screen_baseColor.png"
    }
  ],
  "materials": [
    {
      "doubleSided": true,
      "name": "met2",
      "pbrMetallicRoughness": {
        "baseColorFactor": [
          0.003616200000000001,
          0.00954131,
          0.014660300000000001,
          1.0
        ],
        "metallicFactor": 0.204918,
        "roughnessFactor": 0.122951
      }
    },
    {
      "doubleSided": true,
      "extensions": {
        "KHR_materials_specular": {
          "specularColorFactor": [
            1.0,
            1.0,
            1.0
          ],
          "specularFactor": 0.6568215575607289
        }
      },
      "name": "buttons",
      "pbrMetallicRoughness": {
        "baseColorFactor": [
          0.11051657273957766,
          0.09777309487476762,
          0.11443619636633401,
          1.0
        ],
        "metallicFactor": 0.23580489384321285,
        "roughnessFactor": 0.09546600593737414
      }
    },
    {
      "doubleSided": true,
      "extensions": {
        "KHR_materials_specular": {
          "specularColorFactor": [
            1.0,
            1.0,
            1.0
          ],
          "specularFactor": 0.19309305839360977
        }
      },
      "name": "main",
      "pbrMetallicRoughness": {
        "baseColorFactor": [
          0.2480082754002423,
          0.2480082754002423,
          0.2480082754002423,
          1.0
        ],
        "baseColorTexture": {
          "index": 0
        },
        "metallicFactor": 0.10766938749440359,
        "roughnessFactor": 0.5
      }
    },
    {
      "doubleSided": true,
      "extensions": {
        "KHR_materials_specular": {
          "specularColorFactor": [
            1.0,
            1.0,
            1.0
          ],
          "specularFactor": 0.5774995774400375
        }
      },
      "name": "back-screen",
      "pbrMetallicRoughness": {
        "baseColorFactor": [
          0.11987276905143306,
          0.11987276905143306,
          0.11987276905143306,
          1.0
        ],
        "baseColorTexture": {
          "index": 1
        },
        "metallicFactor": 0.0,
        "roughnessFactor": 0.02
      }
    },
    {
      "doubleSided": true,
      "name": "main2",
      "pbrMetallicRoughness": {
        "baseColorFactor": [
          0.00265456,
          0.007667979999999999,
          0.0173878,
          1.0
        ],
        "metallicFactor": 0.0,
        "roughnessFactor": 0.5
      }
    },
    {
      "doubleSided": true,
      "name": "numbers",
      "pbrMetallicRoughness": {
        "baseColorFactor": [
          0.204259,
          0.213593,
          0.342384,
          1.0
        ],
        "roughnessFactor": 0.02
      }
    }
  ],
  "meshes": [
    {
      "name": "Object_0",
      "primitives": [
        {
          "attributes": {
            "NORMAL": 1,
            "POSITION": 0,
            "TEXCOORD_0": 2
          },
          "indices": 3,
          "material": 0,
          "mode": 4
        }
      ]
    },
    {
      "name": "Object_1",
      "primitives": [
        {
          "attributes": {
            "NORMAL": 5,
            "POSITION": 4,
            "TEXCOORD_0": 6
          },
          "indices": 7,
          "material": 1,
          "mode": 4
        }
      ]
    },
    {
      "name": "Object_2",
      "primitives": [
        {
          "attributes": {
            "NORMAL": 9,
            "POSITION": 8,
            "TEXCOORD_0": 10
          },
          "indices": 11,
          "material": 1,
          "mode": 4
        }
      ]
    },
    {
      "name": "Object_3",
      "primitives": [
        {
          "attributes": {
            "NORMAL": 13,
            "POSITION": 12,
            "TEXCOORD_0": 14
          },
          "indices": 15,
          "material": 1,
          "mode": 4
        }
      ]
    },
    {
      "name": "Object_4",
      "primitives": [
        {
          "attributes": {
            "NORMAL": 17,
            "POSITION": 16,
            "TEXCOORD_0": 18
          },
          "indices": 19,
          "material": 1,
          "mode": 4
        }
      ]
    },
    {
      "name": "Object_5",
      "primitives": [
        {
          "attributes": {
            "NORMAL": 21,
            "POSITION": 20,
            "TEXCOORD_0": 22
          },
          "indices": 23,
          "material": 1,
          "mode": 4
        }
      ]
    },
    {
      "name": "Object_6",
      "primitives": [
        {
          "attributes": {
            "NORMAL": 25,
            "POSITION": 24,
            "TEXCOORD_0": 26
          },
          "indices": 27,
          "material": 1,
          "mode": 4
        }
      ]
    },
    {
      "name": "Object_7",
      "primitives": [
        {
          "attributes": {
            "NORMAL": 29,
            "POSITION": 28,
            "TEXCOORD_0": 30
          },
          "indices": 31,
          "material": 1,
          "mode": 4
        }
      ]
    },
    {
      "name": "Object_8",
      "primitives": [
        {
          "attributes": {
            "NORMAL": 33,
            "POSITION": 32,
            "TEXCOORD_0": 34
          },
          "indices": 35,
          "material": 1,
          "mode": 4
        }
      ]
    },
    {
      "name": "Object_9",
      "primitives": [
        {
          "attributes": {
            "NORMAL": 37,
            "POSITION": 36,
            "TEXCOORD_0": 38
          },
          "indices": 39,
          "material": 1,
          "mode": 4
        }
      ]
    },
    {
      "name": "Object_10",
      "primitives": [
        {
          "attributes": {
            "NORMAL": 41,
            "POSITION": 40,
            "TEXCOORD_0": 42
          },
          "indices": 43,
          "material": 1,
          "mode": 4
        }
      ]
    },
    {
      "name": "Object_11",
      "primitives": [
        {
          "attributes": {
            "NORMAL": 45,
            "POSITION": 44,
            "TEXCOORD_0": 46
          },
          "indices": 47,
          "material": 1,
          "mode": 4
        }
      ]
    },
    {
      "name": "Object_12",
      "primitives": [
        {
          "attributes": {
            "NORMAL": 49,
            "POSITION": 48,
            "TEXCOORD_0": 50
          },
          "indices": 51,
          "material": 1,
          "mode": 4
        }
      ]
    },
    {
      "name": "Object_13",
      "primitives": [
        {
          "attributes": {
            "NORMAL": 53,
            "POSITION": 52,
            "TEXCOORD_0": 54
          },
          "indices": 55,
          "material": 2,
          "mode": 4
        }
      ]
    },
    {
      "name": "Object_14",
      "primitives": [
        {
          "attributes": {
            "NORMAL": 57,
            "POSITION": 56,
            "TEXCOORD_0": 58
          },
          "indices": 59,
          "material": 3,
          "mode": 4
        }
      ]
    },
    {
      "name": "Object_15",
      "primitives": [
        {
          "attributes": {
            "NORMAL": 61,
            "POSITION": 60,
            "TEXCOORD_0": 62
          },
          "indices": 63,
          "material": 4,
          "mode": 4
        }
      ]
    },
    {
      "name": "Object_16",
      "primitives": [
        {
          "attributes": {
            "NORMAL": 65,
            "POSITION": 64,
            "TEXCOORD_0": 66
          },
          "indices": 67,
          "material": 5,
          "mode": 4
        }
      ]
    },
    {
      "name": "Object_17",
      "primitives": [
        {
          "attributes": {
            "NORMAL": 69,
            "POSITION": 68,
            "TEXCOORD_0": 70
          },
          "indices": 71,
          "material": 5,
          "mode": 4
        }
      ]
    },
    {
      "name": "Object_18",
      "primitives": [
        {
          "attributes": {
            "NORMAL": 73,
            "POSITION": 72,
            "TEXCOORD_0": 74
          },
          "indices": 75,
          "material": 5,
          "mode": 4
        }
      ]
    },
    {
      "name": "Object_19",
      "primitives": [
        {
          "attributes": {
            "NORMAL": 77,
            "POSITION": 76,
            "TEXCOORD_0": 78
          },
          "indices": 79,
          "material": 5,
          "mode": 4
        }
      ]
    },
    {
      "name": "Object_20",
      "primitives": [
        {
          "attributes": {
            "NORMAL": 81,
            "POSITION": 80,
            "TEXCOORD_0": 82
          },
          "indices": 83,
          "material": 5,
          "mode": 4
        }
      ]
    },
    {
      "name": "Object_21",
      "primitives": [
        {
          "attributes": {
            "NORMAL": 85,
            "POSITION": 84,
            "TEXCOORD_0": 86
          },
          "indices": 87,
          "material": 5,
          "mode": 4
        }
      ]
    },
    {
      "name": "Object_22",
      "primitives": [
        {
          "attributes": {
            "NORMAL": 89,
            "POSITION": 88,
            "TEXCOORD_0": 90
          },
          "indices": 91,
          "material": 5,
          "mode": 4
        }
      ]
    },
    {
      "name": "Object_23",
      "primitives": [
        {
          "attributes": {
            "NORMAL": 93,
            "POSITION": 92,
            "TEXCOORD_0": 94
          },
          "indices": 95,
          "material": 5,
          "mode": 4
        }
      ]
    },
    {
      "name": "Object_24",
      "primitives": [
        {
          "attributes": {
            "NORMAL": 97,
            "POSITION": 96,
            "TEXCOORD_0": 98
          },
          "indices": 99,
          "material": 5,
          "mode": 4
        }
      ]
    },
    {
      "name": "Object_25",
      "primitives": [
        {
          "attributes": {
            "NORMAL": 101,
            "POSITION": 100,
            "TEXCOORD_0": 102
          },
          "indices": 103,
          "material": 5,
          "mode": 4
        }
      ]
    }
  ],
  "nodes": [
    {
      "children": [
        1
      ],
      "matrix": [
        1.0,
        0.0,
        0.0,
        0.0,
        0.0,
        2.220446049250313e-16,
        -1.0,
        0.0,
        0.0,
        1.0,
        2.220446049250313e-16,
        0.0,
        0.0,
        0.0,
        0.0,
        1.0
      ],
      "name": "Sketchfab_model"
    },
    {
      "children": [
        2
      ],
      "name": "root"
    },
    {
      "children": [
        3,
        5,
        7,
        9,
        11,
        13,
        15,
        17,
        19,
        21,
        23,
        25,
        27,
        29,
        33,
        35,
        37,
        39,
        41,
        43,
        45,
        47,
        49,
        51
      ],
      "matrix": [
        1.0,
        0.0,
        0.0,
        0.0,
        0.0,
        2.220446049250313e-16,
        1.0,
        0.0,
        0.0,
        -1.0,
        2.220446049250313e-16,
        0.0,
        0.0,
        0.0,
        0.0,
        1.0
      ],
      "name": "GLTF_SceneRootNode"
    },
    {
      "children": [
        4
      ],
      "name": "Cube_0"
    },
    {
      "mesh": 0,
      "name": "Object_4"
    },
    {
      "children": [
        6
      ],
      "matrix": [
        1.0,
        0.0,
        0.0,
        0.0,
        0.0,
        1.277021050453186,
        0.0,
        0.0,
        0.0,
        0.0,
        0.2771347463130951,
        0.0,
        0.0,
        -0.6298961043357849,
        0.9000517129898071,
        1.0
      ],
      "name": "Cube.001_3"
    },
    {
      "mesh": 1,
      "name": "Object_6"
    },
    {
      "children": [
        8
      ],
      "matrix": [
        1.0,
        0.0,
        0.0,
        0.0,
        0.0,
        1.277021050453186,
        0.0,
        0.0,
        0.0,
        0.0,
        0.2771347463130951,
        0.0,
        2.629135847091675,
        -0.6298961043357849,
        0.9000517129898071,
        1.0
      ],
      "name": "Cube.002_4"
    },
    {
      "mesh": 2,
      "name": "Object_8"
    },
    {
      "children": [
        10
      ],
      "matrix": [
        1.0,
        0.0,
        0.0,
        0.0,
        0.0,
        1.277021050453186,
        0.0,
        0.0,
        0.0,
        0.0,
        0.2771347463130951,
        0.0,
        -2.6411423683166504,
        -0.6298961043357849,
        0.9000517129898071,
        1.0
      ],
      "name": "Cube.003_5"
    },
    {
      "mesh": 3,
      "name": "Object_10"
    },
    {
      "children": [
        12
      ],
      "matrix": [
        1.0,
        0.0,
        0.0,
        0.0,
        0.0,
        1.277021050453186,
        0.0,
        0.0,
        0.0,
        0.0,
        0.2771347463130951,
        0.0,
        -2.6411423683166504,
        2.725529193878174,
        0.9000517129898071,
        1.0
      ],
      "name": "Cube.004_6"
    },
    {
      "mesh": 4,
      "name": "Object_12"
    },
    {
      "children": [
        14
      ],
      "matrix": [
        0.8891487717628479,
        0.0,
        0.0,
        0.0,
        0.0,
        1.1354618072509766,
        0.0,
        0.0,
        0.0,
        0.0,
        0.24641405045986176,
        0.0,
        -2.6411423683166504,
        5.863607406616211,
        0.9000517129898071,
        1.0
      ],
      "name": "Cube.005_7"
    },
    {
      "mesh": 5,
      "name": "Object_14"
    },
    {
      "children": [
        16
      ],
      "matrix": [
        1.0117089748382568,
        0.0,
        0.0,
        0.0,
        0.0,
        1.1586604118347168,
        0.0,
        0.0,
        0.0,
        0.0,
        0.25144854187965393,
        0.0,
        2.6385960578918457,
        5.863607406616211,
        0.9000517129898071,
        1.0
      ],
      "name": "Cube.006_8"
    },
    {
      "mesh": 6,
      "name": "Object_16"
    },
    {
      "children": [
        18
      ],
      "matrix": [
        0.8995683789253235,
        0.0,
        0.0,
        0.0,
        0.0,
        1.1487677097320557,
        0.0,
        0.0,
        0.0,
        0.0,
        0.24930165708065033,
        0.0,
        0.012290477752685547,
        5.863607406616211,
        0.9000517129898071,
        1.0
      ],
      "name": "Cube.007_9"
    },
    {
      "mesh": 7,
      "name": "Object_18"
    },
    {
      "children": [
        20
      ],
      "matrix": [
        1.0,
        0.0,
        0.0,
        0.0,
        0.0,
        1.277021050453186,
        0.0,
        0.0,
        0.0,
        0.0,
        0.2771347463130951,
        0.0,
        0.0,
        2.6984806060791016,
        0.9000517129898071,
        1.0
      ],
      "name": "Cube.008_10"
    },
    {
      "mesh": 8,
      "name": "Object_20"
    },
    {
      "children": [
        22
      ],
      "matrix": [
        1.0,
        0.0,
        0.0,
        0.0,
        0.0,
        1.277021050453186,
        0.0,
        0.0,
        0.0,
        0.0,
        0.2771347463130951,
        0.0,
        2.6236824989318848,
        2.6984806060791016,
        0.9000517129898071,
        1.0
      ],
      "name": "Cube.009_11"
    },
    {
      "mesh": 9,
      "name": "Object_22"
    },
    {
      "children": [
        24
      ],
      "matrix": [
        1.0,
        0.0,
        0.0,
        0.0,
        0.0,
        1.277021050453186,
        0.0,
        0.0,
        0.0,
        0.0,
        0.2771347463130951,
        0.0,
        2.629135847091675,
        -3.9035146236419678,
        0.9000517129898071,
        1.0
      ],
      "name": "Cube.010_12"
    },
    {
      "mesh": 10,
      "name": "Object_24"
    },
    {
      "children": [
        26
      ],
      "matrix": [
        1.0,
        0.0,
        0.0,
        0.0,
        0.0,
        1.277021050453186,
        0.0,
        0.0,
        0.0,
        0.0,
        0.2771347463130951,
        0.0,
        -2.695801019668579,
        -3.9035146236419678,
        0.9000517129898071,
        1.0
      ],
      "name": "Cube.011_13"
    },
    {
      "mesh": 11,
      "name": "Object_26"
    },
    {
      "children": [
        28
      ],
      "matrix": [
        1.0,
        0.0,
        0.0,
        0.0,
        0.0,
        1.277021050453186,
        0.0,
        0.0,
        0.0,
        0.0,
        0.2771347463130951,
        0.0,
        -0.05585145950317383,
        -3.9035146236419678,
        0.9000517129898071,
        1.0
      ],
      "name": "Cube.012_14"
    },
    {
      "mesh": 12,
      "name": "Object_28"
    },
    {
      "children": [
        30,
        31,
        32
      ],
      "matrix": [
        5.466175556182861,
        0.0,
        0.0,
        0.0,
        0.0,
        9.139841079711914,
        0.0,
        0.0,
        0.0,
        0.0,
        1.0,
        0.0,
        -0.06187838315963745,
        2.7846221923828125,
        -0.638297438621521,
        1.0
      ],
      "name": "Cube.013_25"
    },
    {
      "mesh": 13,
      "name": "Object_30"
    },
    {
      "mesh": 14,
      "name": "Object_31"
    },
    {
      "mesh": 15,
      "name": "Object_32"
    },
    {
      "children": [
        34
      ],
      "matrix": [
        2.4781854152679443,
        0.0,
        0.0,
        0.0,
        0.0,
        -0.025363985635058137,
        7.438048985873893,
        0.0,
        0.0,
        -2.4781710068286147,
        -0.008450642626553446,
        0.0,
        -0.6329860687255859,
        -4.6734113693237305,
        1.1795653104782104,
        1.0
      ],
      "name": "0.001_26"
    },
    {
      "mesh": 16,
      "name": "Object_34"
    },
    {
      "children": [
        36
      ],
      "matrix": [
        2.012631893157959,
        0.0,
        0.0,
        0.0,
        0.0,
        -0.020599090133610828,
        6.0407320711636165,
        0.0,
        0.0,
        -2.0126204299145956,
        -0.006863100225627341,
        0.0,
        -3.201883554458618,
        5.163290977478027,
        1.1429836750030518,
        1.0
      ],
      "name": "1.001_27"
    },
    {
      "mesh": 17,
      "name": "Object_36"
    },
    {
      "children": [
        38
      ],
      "matrix": [
        1.8183945417404175,
        0.0,
        0.0,
        0.0,
        0.0,
        -0.0186110897653021,
        5.4577462448754455,
        0.0,
        0.0,
        -1.818384088605528,
        -0.006200748071167765,
        0.0,
        -0.35897156596183777,
        5.3380513191223145,
        1.1701202392578125,
        1.0
      ],
      "name": "2.001_28"
    },
    {
      "mesh": 18,
      "name": "Object_38"
    },
    {
      "children": [
        40
      ],
      "matrix": [
        1.9392445087432861,
        0.0,
        0.0,
        0.0,
        0.0,
        -0.019847975956289295,
        5.82046605598421,
        0.0,
        0.0,
        -1.9392335913907477,
        -0.006612848752202484,
        0.0,
        2.1532034873962402,
        5.300248622894287,
        1.1793601512908936,
        1.0
      ],
      "name": "3.001_29"
    },
    {
      "mesh": 19,
      "name": "Object_40"
    },
    {
      "children": [
        42
      ],
      "matrix": [
        2.278964042663574,
        0.0,
        0.0,
        0.0,
        0.0,
        -0.023324972123995015,
        6.840103434399389,
        0.0,
        0.0,
        -2.278951030936149,
        -0.007771296118302471,
        0.0,
        -3.272711753845215,
        1.9275611639022827,
        1.1981346607208252,
        1.0
      ],
      "name": "4.001_30"
    },
    {
      "mesh": 20,
      "name": "Object_42"
    },
    {
      "children": [
        44
      ],
      "matrix": [
        2.1117653846740723,
        0.0,
        0.0,
        0.0,
        0.0,
        -0.021613715575447535,
        6.338273390074636,
        0.0,
        0.0,
        -2.111753821892201,
        -0.007201148272211853,
        0.0,
        -0.4838242828845978,
        2.0108397006988525,
        1.238174557685852,
        1.0
      ],
      "name": "5.001_31"
    },
    {
      "mesh": 21,
      "name": "Object_44"
    },
    {
      "children": [
        46
      ],
      "matrix": [
        2.335970163345337,
        0.0,
        0.0,
        0.0,
        0.0,
        -0.02390842894829762,
        7.011203532891274,
        0.0,
        0.0,
        -2.3359565817609376,
        -0.007965686875204516,
        0.0,
        2.068563222885132,
        1.9326282739639282,
        1.186568260192871,
        1.0
      ],
      "name": "6.001_32"
    },
    {
      "mesh": 22,
      "name": "Object_46"
    },
    {
      "children": [
        48
      ],
      "matrix": [
        2.7621419429779053,
        0.0,
        0.0,
        0.0,
        0.0,
        -0.028270256719377544,
        8.290319879038158,
        0.0,
        0.0,
        -2.7621263604188493,
        -0.00941893949084391,
        0.0,
        -3.3649208545684814,
        -1.6675893068313599,
        1.1644575595855713,
        1.0
      ],
      "name": "7.001_33"
    },
    {
      "mesh": 23,
      "name": "Object_48"
    },
    {
      "children": [
        50
      ],
      "matrix": [
        2.5865049362182617,
        0.0,
        0.0,
        0.0,
        0.0,
        -0.026472621081085966,
        7.763158961635486,
        0.0,
        0.0,
        -2.5864896595802724,
        -0.008820012707016702,
        0.0,
        -0.6336840391159058,
        -1.4656835794448853,
        1.1976007223129272,
        1.0
      ],
      "name": "8.001_34"
    },
    {
      "mesh": 24,
      "name": "Object_50"
    },
    {
      "children": [
        52
      ],
      "matrix": [
        2.4668092727661133,
        0.0,
        0.0,
        0.0,
        0.0,
        -0.025247551181444713,
        7.403904306008475,
        0.0,
        0.0,
        -2.4667951688861054,
        -0.008411850654262252,
        0.0,
        2.0404207706451416,
        -1.4047296047210693,
        1.209155797958374,
        1.0
      ],
      "name": "9.001_35"
    },
    {
      "mesh": 25,
      "name": "Object_52"
    }
  ],
  "samplers": [
    {
      "magFilter": 9729,
      "minFilter": 9987,
      "wrapS": 10497,
      "wrapT": 10497
    }
  ],
  "scene": 0,
  "scenes": [
    {
      "name": "Sketchfab_Scene",
      "nodes": [
        0
      ]
    }
  ],
  "textures": [
    {
      "sampler": 0,
      "source": 0
    },
    {
      "sampler": 0,
      "source": 1
    }
  ]
}
