{
  "accessors": [
    {
      "bufferView": 2,
      "componentType": 5126,
      "count": 485,
      "max": [
        202.38800048828125,
        -66.47560119628906,
        4.4917402267456055
      ],
      "min": [
        201.69900512695313,
        -71.36730194091797,
        0.9417020082473755
      ],
      "type": "VEC3"
    },
    {
      "bufferView": 2,
      "byteOffset": 5820,
      "componentType": 5126,
      "count": 485,
      "max": [
        0.9968835711479187,
        0.999845027923584,
        0.9979910850524902
      ],
      "min": [
        -0.9984844326972961,
        -0.9999690055847168,
        -0.9979910850524902
      ],
      "type": "VEC3"
    },
    {
      "bufferView": 1,
      "componentType": 5126,
      "count": 485,
      "max": [
        0.9443359971046448,
        0.9164429903030396
      ],
      "min": [
        0.05532839894294739,
        0.0571288987994194
      ],
      "type": "VEC2"
    },
    {
      "bufferView": 0,
      "componentType": 5125,
      "count": 1284,
      "type": "SCALAR"
    },
    {
      "bufferView": 2,
      "byteOffset": 11640,
      "componentType": 5126,
      "count": 340,
      "max": [
        201.93800354003906,
        -58.148399353027344,
        4.836219787597656
      ],
      "min": [
        198.1280059814453,
        -71.88839721679688,
        1.6450900147901848e-05
      ],
      "type": "VEC3"
    },
    {
      "bufferView": 2,
      "byteOffset": 15720,
      "componentType": 5126,
      "count": 340,
      "max": [
        1.0,
        1.0,
        1.0
      ],
      "min": [
        -1.0,
        -1.0,
        -1.0
      ],
      "type": "VEC3"
    },
    {
      "bufferView": 1,
      "byteOffset": 3880,
      "componentType": 5126,
      "count": 340,
      "max": [
        0.9833980202674866,
        0.9723970293998718
      ],
      "min": [
        0.13647499680519104,
        0.05859379842877388
      ],
      "type": "VEC2"
    },
    {
      "bufferView": 0,
      "byteOffset": 5136,
      "componentType": 5125,
      "count": 522,
      "type": "SCALAR"
    },
    {
      "bufferView": 2,
      "byteOffset": 19800,
      "componentType": 5126,
      "count": 3864,
      "max": [
        202.72300720214844,
        -59.378299713134766,
        4.153950214385986
      ],
      "min": [
        202.19400024414063,
        -60.58359909057617,
        2.263200044631958
      ],
      "type": "VEC3"
    },
    {
      "bufferView": 2,
      "byteOffset": 66168,
      "componentType": 5126,
      "count": 3864,
      "max": [
        0.9995043277740479,
        0.999845027923584,
        0.996791422367096
      ],
      "min": [
        -0.9928649663925171,
        -0.9991022348403931,
        -0.9961796998977661
      ],
      "type": "VEC3"
    },
    {
      "bufferView": 1,
      "byteOffset": 6600,
      "componentType": 5126,
      "count": 3864,
      "max": [
        0.3632090091705322,
        1.7671799659729004
      ],
      "min": [
        -0.8927119970321655,
        0.10182800143957138
      ],
      "type": "VEC2"
    },
    {
      "bufferView": 0,
      "byteOffset": 7224,
      "componentType": 5125,
      "count": 4212,
      "type": "SCALAR"
    },
    {
      "bufferView": 2,
      "byteOffset": 112536,
      "componentType": 5126,
      "count": 3864,
      "max": [
        202.7429962158203,
        -59.358299255371094,
        4.173160076141357
      ],
      "min": [
        202.19200134277344,
        -60.60350036621094,
        2.2455599308013916
      ],
      "type": "VEC3"
    },
    {
      "bufferView": 2,
      "byteOffset": 158904,
      "componentType": 5126,
      "count": 3864,
      "max": [
        0.9995043277740479,
        0.999845027923584,
        0.996791422367096
      ],
      "min": [
        -0.9928649663925171,
        -0.9991022348403931,
        -0.9961796998977661
      ],
      "type": "VEC3"
    },
    {
      "bufferView": 1,
      "byteOffset": 37512,
      "componentType": 5126,
      "count": 3864,
      "max": [
        0.06864479929208755,
        1.023959994316101
      ],
      "min": [
        -0.06748949736356735,
        0.9760419726371765
      ],
      "type": "VEC2"
    },
    {
      "bufferView": 0,
      "byteOffset": 24072,
      "componentType": 5125,
      "count": 4212,
      "type": "SCALAR"
    },
    {
      "bufferView": 2,
      "byteOffset": 205272,
      "componentType": 5126,
      "count": 375,
      "max": [
        202.41099548339844,
        -58.89670181274414,
        4.2700300216674805
      ],
      "min": [
        198.66200256347656,
        -61.349998474121094,
        2.148439884185791
      ],
      "type": "VEC3"
    },
    {
      "bufferView": 2,
      "byteOffset": 209772,
      "componentType": 5126,
      "count": 375,
      "max": [
        0.9999380111694336,
        0.9945957064628601,
        0.9997521042823792
      ],
      "min": [
        -0.9999380111694336,
        -0.9953712224960327,
        -0.9997521042823792
      ],
      "type": "VEC3"
    },
    {
      "bufferView": 1,
      "byteOffset": 68424,
      "componentType": 5126,
      "count": 375,
      "max": [
        2.5576400756835938,
        2.0929200649261475
      ],
      "min": [
        -1.7480000257492065,
        -1.9173400402069092
      ],
      "type": "VEC2"
    },
    {
      "bufferView": 0,
      "byteOffset": 40920,
      "componentType": 5125,
      "count": 450,
      "type": "SCALAR"
    },
    {
      "bufferView": 2,
      "byteOffset": 214272,
      "componentType": 5126,
      "count": 375,
      "max": [
        202.4290008544922,
        -58.877201080322266,
        4.290030002593994
      ],
      "min": [
        198.64199829101563,
        -61.368900299072266,
        2.1284399032592773
      ],
      "type": "VEC3"
    },
    {
      "bufferView": 2,
      "byteOffset": 218772,
      "componentType": 5126,
      "count": 375,
      "max": [
        0.9999380111694336,
        0.9945957064628601,
        0.9997521042823792
      ],
      "min": [
        -0.9999380111694336,
        -0.9953712224960327,
        -0.9997521042823792
      ],
      "type": "VEC3"
    },
    {
      "bufferView": 1,
      "byteOffset": 71424,
      "componentType": 5126,
      "count": 375,
      "max": [
        0.8970829844474792,
        1.8970799446105957
      ],
      "min": [
        -0.8970829844474792,
        0.10291700065135956
      ],
      "type": "VEC2"
    },
    {
      "bufferView": 0,
      "byteOffset": 42720,
      "componentType": 5125,
      "count": 450,
      "type": "SCALAR"
    }
  ],
  "asset": {
    "extras": {
      "author": "Juandaneitor master (https://sketchfab.com/juandavidchibuque)",
      "license": "CC-BY-4.0 (http://creativecommons.org/licenses/by/4.0/)",
      "source": "https://sketchfab.com/3d-models/hello-neighbor-long-tv-stand-850884d6f7ff4878a56c8a93f6d07ca0",
      "title": "Hello Neighbor Long Tv Stand"
    },
    "generator": "Sketchfab-13.68.0",
    "version": "2.0"
  },
  "bufferViews": [
    {
      "buffer": 0,
      "byteLength": 44520,
      "name": "floatBufferViews",
      "target": 34963
    },
    {
      "buffer": 0,
      "byteLength": 74424,
      "byteOffset": 44520,
      "byteStride": 8,
      "name": "floatBufferViews",
      "target": 34962
    },
    {
      "buffer": 0,
      "byteLength": 223272,
      "byteOffset": 118944,
      "byteStride": 12,
      "name": "floatBufferViews",
      "target": 34962
    }
  ],
  "buffers": [
    {
      "byteLength": 342216,
      "uri": "scene.bin"
    }
  ],
  "images": [
    {
      "uri": "textures/Interactive1Mtl_baseColor.png"
    },
    {
      "uri": "textures/Interactive22Mtl_baseColor.png"
    },
    {
      "uri": "textures/Meshesstandtvpart1Mtl_baseColor.png"
    },
    {
      "uri": "textures/Part1Mtl_baseColor.png"
    }
  ],
  "materials": [
    {
      "doubleSided": true,
      "name": "Interactive1Mtl",
      "pbrMetallicRoughness": {
        "baseColorTexture": {
          "index": 0
        },
        "metallicFactor": 0.0,
        "roughnessFactor": 0.6
      }
    },
    {
      "doubleSided": true,
      "name": "Interactive22Mtl",
      "pbrMetallicRoughness": {
        "baseColorTexture": {
          "index": 1
        },
        "metallicFactor": 0.0,
        "roughnessFactor": 0.6
      }
    },
    {
      "doubleSided": true,
      "name": "Interactive2Mtl",
      "pbrMetallicRoughness": {
        "baseColorTexture": {
          "index": 0
        },
        "metallicFactor": 0.0,
        "roughnessFactor": 0.6
      }
    },
    {
      "doubleSided": true,
      "name": "Meshesstandtvpart1Mtl",
      "pbrMetallicRoughness": {
        "baseColorTexture": {
          "index": 2
        },
        "metallicFactor": 0.0,
        "roughnessFactor": 0.6
      }
    },
    {
      "doubleSided": true,
      "name": "Part1Mtl",
      "pbrMetallicRoughness": {
        "baseColorTexture": {
          "index": 3
        },
        "metallicFactor": 0.0,
        "roughnessFactor": 0.6
      }
    },
    {
      "doubleSided": true,
      "name": "Part2Mtl",
      "pbrMetallicRoughness": {
        "baseColorTexture": {
          "index": 3
        },
        "metallicFactor": 0.0,
        "roughnessFactor": 0.6
      }
    }
  ],
  "meshes": [
    {
      "name": "Object_0",
      "primitives": [
        {
          "attributes": {
            "NORMAL": 1,
            "POSITION": 0,
            "TEXCOORD_0": 2
          },
          "indices": 3,
          "material": 1,
          "mode": 4
        }
      ]
    },
    {
      "name": "Object_1",
      "primitives": [
        {
          "attributes": {
            "NORMAL": 5,
            "POSITION": 4,
            "TEXCOORD_0": 6
          },
          "indices": 7,
          "material": 3,
          "mode": 4
        }
      ]
    },
    {
      "name": "Object_2",
      "primitives": [
        {
          "attributes": {
            "NORMAL": 9,
            "POSITION": 8,
            "TEXCOORD_0": 10
          },
          "indices": 11,
          "material": 0,
          "mode": 4
        }
      ]
    },
    {
      "name": "Object_3",
      "primitives": [
        {
          "attributes": {
            "NORMAL": 13,
            "POSITION": 12,
            "TEXCOORD_0": 14
          },
          "indices": 15,
          "material": 2,
          "mode": 4
        }
      ]
    },
    {
      "name": "Object_4",
      "primitives": [
        {
          "attributes": {
            "NORMAL": 17,
            "POSITION": 16,
            "TEXCOORD_0": 18
          },
          "indices": 19,
          "material": 4,
          "mode": 4
        }
      ]
    },
    {
      "name": "Object_5",
      "primitives": [
        {
          "attributes": {
            "NORMAL": 21,
            "POSITION": 20,
            "TEXCOORD_0": 22
          },
          "indices": 23,
          "material": 5,
          "mode": 4
        }
      ]
    }
  ],
  "nodes": [
    {
      "children": [
        1
      ],
      "matrix": [
        1.0,
        0.0,
        0.0,
        0.0,
        0.0,
        2.220446049250313e-16,
        -1.0,
        0.0,
        0.0,
        1.0,
        2.220446049250313e-16,
        0.0,
        0.0,
        0.0,
        0.0,
        1.0
      ],
      "name": "Sketchfab_model"
    },
    {
      "children": [
        2,
        3,
        4,
        5,
        6,
        7
      ],
      "name": "hello neighbor long tv stand.obj.cleaner.materialmerger.gles"
    },
    {
      "mesh": 0,
      "name": "Object_2"
    },
    {
      "mesh": 1,
      "name": "Object_3"
    },
    {
      "mesh": 2,
      "name": "Object_4"
    },
    {
      "mesh": 3,
      "name": "Object_5"
    },
    {
      "mesh": 4,
      "name": "Object_6"
    },
    {
      "mesh": 5,
      "name": "Object_7"
    }
  ],
  "samplers": [
    {
      "magFilter": 9729,
      "minFilter": 9987,
      "wrapS": 10497,
      "wrapT": 10497
    }
  ],
  "scene": 0,
  "scenes": [
    {
      "name": "Sketchfab_Scene",
      "nodes": [
        0
      ]
    }
  ],
  "textures": [
    {
      "sampler": 0,
      "source": 0
    },
    {
      "sampler": 0,
      "source": 1
    },
    {
      "sampler": 0,
      "source": 2
    },
    {
      "sampler": 0,
      "source": 3
    }
  ]
}
