{
  "accessors": [
    {
      "bufferView": 2,
      "componentType": 5126,
      "count": 795,
      "max": [
        124.21749877929688,
        4.388089179992676,
        346.687744140625
      ],
      "min": [
        -124.20225524902344,
        -4.679483890533447,
        -0.8782565593719482
      ],
      "type": "VEC3"
    },
    {
      "bufferView": 2,
      "byteOffset": 9540,
      "componentType": 5126,
      "count": 795,
      "max": [
        1.0,
        1.0,
        1.0
      ],
      "min": [
        -1.0,
        -1.0,
        -1.0
      ],
      "type": "VEC3"
    },
    {
      "bufferView": 1,
      "componentType": 5126,
      "count": 795,
      "max": [
        1.7158203125,
        2.87890625
      ],
      "min": [
        -0.6376953125,
        -1.73046875
      ],
      "type": "VEC2"
    },
    {
      "bufferView": 1,
      "byteOffset": 6360,
      "componentType": 5126,
      "count": 795,
      "max": [
        0.9892578125,
        0.9921875
      ],
      "min": [
        0.0078125,
        0.01025390625
      ],
      "type": "VEC2"
    },
    {
      "bufferView": 0,
      "componentType": 5125,
      "count": 2076,
      "type": "SCALAR"
    }
  ],
  "asset": {
    "extras": {
      "author": "Kriz Faerson (https://sketchfab.com/KrizFaerson)",
      "license": "CC-BY-4.0 (http://creativecommons.org/licenses/by/4.0/)",
      "source": "https://sketchfab.com/3d-models/latticle-hello-neighbor-39f815cc4123426a83a96b3f191552fc",
      "title": "Latticle | Hello Neighbor"
    },
    "generator": "Sketchfab-12.68.0",
    "version": "2.0"
  },
  "bufferViews": [
    {
      "buffer": 0,
      "byteLength": 8304,
      "name": "floatBufferViews",
      "target": 34963
    },
    {
      "buffer": 0,
      "byteLength": 12720,
      "byteOffset": 8304,
      "byteStride": 8,
      "name": "floatBufferViews",
      "target": 34962
    },
    {
      "buffer": 0,
      "byteLength": 19080,
      "byteOffset": 21024,
      "byteStride": 12,
      "name": "floatBufferViews",
      "target": 34962
    }
  ],
  "buffers": [
    {
      "byteLength": 40104,
      "uri": "scene.bin"
    }
  ],
  "images": [
    {
      "uri": "textures/metal_noise_dark2_Inst_baseColor.png"
    }
  ],
  "materials": [
    {
      "doubleSided": true,
      "name": "metal_noise_dark2_Inst",
      "pbrMetallicRoughness": {
        "baseColorTexture": {
          "index": 0
        },
        "metallicFactor": 0.0,
        "roughnessFactor": 0.7885257473
      }
    }
  ],
  "meshes": [
    {
      "name": "lattice_metal_noise_dark2_Inst_0",
      "primitives": [
        {
          "attributes": {
            "NORMAL": 1,
            "POSITION": 0,
            "TEXCOORD_0": 2,
            "TEXCOORD_1": 3
          },
          "indices": 4,
          "material": 0,
          "mode": 4
        }
      ]
    }
  ],
  "nodes": [
    {
      "children": [
        1
      ],
      "matrix": [
        1.0,
        0.0,
        0.0,
        0.0,
        0.0,
        2.220446049250313e-16,
        -1.0,
        0.0,
        0.0,
        1.0,
        2.220446049250313e-16,
        0.0,
        0.0,
        0.0,
        0.0,
        1.0
      ],
      "name": "Sketchfab_model"
    },
    {
      "children": [
        2
      ],
      "matrix": [
        1.0,
        0.0,
        0.0,
        0.0,
        0.0,
        0.0,
        1.0,
        0.0,
        0.0,
        -1.0,
        0.0,
        0.0,
        0.0,
        0.0,
        0.0,
        1.0
      ],
      "name": "6a3788b411dc4648a57475b26c786020.fbx"
    },
    {
      "children": [
        3
      ],
      "name": "RootNode"
    },
    {
      "children": [
        4
      ],
      "matrix": [
        1.0,
        0.0,
        0.0,
        0.0,
        0.0,
        -1.6292067939183141e-07,
        -0.9999999999999868,
        0.0,
        0.0,
        0.9999999999999868,
        -1.6292067939183141e-07,
        0.0,
        0.0,
        0.0,
        0.0,
        1.0
      ],
      "name": "lattice"
    },
    {
      "mesh": 0,
      "name": "lattice_metal_noise_dark2_Inst_0"
    }
  ],
  "samplers": [
    {
      "magFilter": 9729,
      "minFilter": 9987,
      "wrapS": 10497,
      "wrapT": 10497
    }
  ],
  "scene": 0,
  "scenes": [
    {
      "name": "Sketchfab_Scene",
      "nodes": [
        0
      ]
    }
  ],
  "textures": [
    {
      "sampler": 0,
      "source": 0
    }
  ]
}
