{
  "accessors": [
    {
      "bufferView": 2,
      "componentType": 5126,
      "count": 497,
      "max": [
        0.02530599944293499,
        0.01863200031220913,
        1.234684944152832
      ],
      "min": [
        -0.039636000990867615,
        -0.02646699920296669,
        0.33684098720550537
      ],
      "type": "VEC3"
    },
    {
      "bufferView": 2,
      "byteOffset": 5964,
      "componentType": 5126,
      "count": 497,
      "max": [
        0.997069776058197,
        0.9999504089355469,
        0.9977526664733887
      ],
      "min": [
        -0.9999775886535645,
        -0.9999504089355469,
        -0.9945982098579407
      ],
      "type": "VEC3"
    },
    {
      "bufferView": 1,
      "componentType": 5126,
      "count": 497,
      "max": [
        0.9496999979019165,
        0.7483000159263611
      ],
      "min": [
        0.0012000000569969416,
        0.01510000042617321
      ],
      "type": "VEC2"
    },
    {
      "bufferView": 0,
      "componentType": 5125,
      "count": 1296,
      "type": "SCALAR"
    },
    {
      "bufferView": 2,
      "byteOffset": 11928,
      "componentType": 5126,
      "count": 328,
      "max": [
        0.14209400117397308,
        0.014786999672651291,
        0.5158320069313049
      ],
      "min": [
        -0.14462800323963165,
        -0.022771000862121582,
        0.0025220001116394997
      ],
      "type": "VEC3"
    },
    {
      "bufferView": 2,
      "byteOffset": 15864,
      "componentType": 5126,
      "count": 328,
      "max": [
        0.9997168183326721,
        0.9999939203262329,
        1.0
      ],
      "min": [
        -0.9997168183326721,
        -1.0,
        -1.0
      ],
      "type": "VEC3"
    },
    {
      "bufferView": 1,
      "byteOffset": 3976,
      "componentType": 5126,
      "count": 328,
      "max": [
        1.0361000299453735,
        1.483199954032898
      ],
      "min": [
        -0.334199994802475,
        -0.48240000009536743
      ],
      "type": "VEC2"
    },
    {
      "bufferView": 0,
      "byteOffset": 5184,
      "componentType": 5125,
      "count": 1008,
      "type": "SCALAR"
    },
    {
      "bufferView": 2,
      "byteOffset": 19800,
      "componentType": 5126,
      "count": 435,
      "max": [
        0.09537400305271149,
        0.020552000030875206,
        1.3832900524139404
      ],
      "min": [
        -0.07948599755764008,
        -0.02199600078165531,
        1.1222050189971924
      ],
      "type": "VEC3"
    },
    {
      "bufferView": 2,
      "byteOffset": 25020,
      "componentType": 5126,
      "count": 435,
      "max": [
        0.9999672174453735,
        0.9994656443595886,
        1.0
      ],
      "min": [
        -1.0,
        -0.9996536374092102,
        -0.9968612790107727
      ],
      "type": "VEC3"
    },
    {
      "bufferView": 1,
      "byteOffset": 6600,
      "componentType": 5126,
      "count": 435,
      "max": [
        0.7285000085830688,
        0.9926000237464905
      ],
      "min": [
        0.006200000178068876,
        0.007799999788403511
      ],
      "type": "VEC2"
    },
    {
      "bufferView": 0,
      "byteOffset": 9216,
      "componentType": 5125,
      "count": 1302,
      "type": "SCALAR"
    },
    {
      "bufferView": 2,
      "byteOffset": 30240,
      "componentType": 5126,
      "count": 343,
      "max": [
        0.08492100238800049,
        0.011885000392794609,
        1.3745239973068237
      ],
      "min": [
        -0.06850899755954742,
        -0.019298000261187553,
        0.5119150280952454
      ],
      "type": "VEC3"
    },
    {
      "bufferView": 2,
      "byteOffset": 34356,
      "componentType": 5126,
      "count": 343,
      "max": [
        0.9998137354850769,
        0.9999985694885254,
        0.9985997676849365
      ],
      "min": [
        -0.9999436140060425,
        -0.9999076128005981,
        -0.9968612790107727
      ],
      "type": "VEC3"
    },
    {
      "bufferView": 1,
      "byteOffset": 10080,
      "componentType": 5126,
      "count": 343,
      "max": [
        0.9965999722480774,
        0.9853000044822693
      ],
      "min": [
        0.006200000178068876,
        0.49950000643730164
      ],
      "type": "VEC2"
    },
    {
      "bufferView": 0,
      "byteOffset": 14424,
      "componentType": 5125,
      "count": 1080,
      "type": "SCALAR"
    }
  ],
  "asset": {
    "extras": {
      "author": "Youthful strawbewwy (https://sketchfab.com/Youthful-Strawberry)",
      "license": "CC-BY-4.0 (http://creativecommons.org/licenses/by/4.0/)",
      "source": "https://sketchfab.com/3d-models/hello-neighbor-shovel-96e2d56b412a47308faa5b694f247298",
      "title": "Hello Neighbor - Shovel"
    },
    "generator": "Sketchfab-12.67.0",
    "version": "2.0"
  },
  "bufferViews": [
    {
      "buffer": 0,
      "byteLength": 18744,
      "name": "floatBufferViews",
      "target": 34963
    },
    {
      "buffer": 0,
      "byteLength": 12824,
      "byteOffset": 18744,
      "byteStride": 8,
      "name": "floatBufferViews",
      "target": 34962
    },
    {
      "buffer": 0,
      "byteLength": 38472,
      "byteOffset": 31568,
      "byteStride": 12,
      "name": "floatBufferViews",
      "target": 34962
    }
  ],
  "buffers": [
    {
      "byteLength": 70040,
      "uri": "scene.bin"
    }
  ],
  "images": [
    {
      "uri": "textures/blue_noise_dif_8.png_baseColor.png"
    },
    {
      "uri": "textures/phone1_plastic__del8main__rough_3.png_baseColor.png"
    },
    {
      "uri": "textures/red_wood_dif_3.png_baseColor.png"
    }
  ],
  "materials": [
    {
      "doubleSided": true,
      "name": "blue_noise_dif_8.png",
      "pbrMetallicRoughness": {
        "baseColorTexture": {
          "index": 0
        },
        "roughnessFactor": 0.5
      }
    },
    {
      "doubleSided": true,
      "name": "blue_noise_dif_8.png.001",
      "pbrMetallicRoughness": {
        "baseColorTexture": {
          "index": 0
        },
        "roughnessFactor": 0.5
      }
    },
    {
      "doubleSided": true,
      "name": "phone1_plastic__del8main__rough_3.png",
      "pbrMetallicRoughness": {
        "baseColorTexture": {
          "index": 1
        },
        "roughnessFactor": 0.5
      }
    },
    {
      "doubleSided": true,
      "name": "red_wood_dif_3.png",
      "pbrMetallicRoughness": {
        "baseColorTexture": {
          "index": 2
        },
        "metallicFactor": 0.0
      }
    }
  ],
  "meshes": [
    {
      "name": "Object_0",
      "primitives": [
        {
          "attributes": {
            "NORMAL": 1,
            "POSITION": 0,
            "TEXCOORD_0": 2
          },
          "indices": 3,
          "material": 0,
          "mode": 4
        }
      ]
    },
    {
      "name": "Object_1",
      "primitives": [
        {
          "attributes": {
            "NORMAL": 5,
            "POSITION": 4,
            "TEXCOORD_0": 6
          },
          "indices": 7,
          "material": 1,
          "mode": 4
        }
      ]
    },
    {
      "name": "Object_2",
      "primitives": [
        {
          "attributes": {
            "NORMAL": 9,
            "POSITION": 8,
            "TEXCOORD_0": 10
          },
          "indices": 11,
          "material": 2,
          "mode": 4
        }
      ]
    },
    {
      "name": "Object_3",
      "primitives": [
        {
          "attributes": {
            "NORMAL": 13,
            "POSITION": 12,
            "TEXCOORD_0": 14
          },
          "indices": 15,
          "material": 3,
          "mode": 4
        }
      ]
    }
  ],
  "nodes": [
    {
      "children": [
        1
      ],
      "matrix": [
        1.0,
        0.0,
        0.0,
        0.0,
        0.0,
        2.220446049250313e-16,
        -1.0,
        0.0,
        0.0,
        1.0,
        2.220446049250313e-16,
        0.0,
        0.0,
        0.0,
        0.0,
        1.0
      ],
      "name": "Sketchfab_model"
    },
    {
      "children": [
        2,
        3,
        4,
        5
      ],
      "name": "Shovel.obj.cleaner.materialmerger.gles"
    },
    {
      "mesh": 0,
      "name": "Object_2"
    },
    {
      "mesh": 1,
      "name": "Object_3"
    },
    {
      "mesh": 2,
      "name": "Object_4"
    },
    {
      "mesh": 3,
      "name": "Object_5"
    }
  ],
  "samplers": [
    {
      "magFilter": 9729,
      "minFilter": 9987,
      "wrapS": 10497,
      "wrapT": 10497
    }
  ],
  "scene": 0,
  "scenes": [
    {
      "name": "Sketchfab_Scene",
      "nodes": [
        0
      ]
    }
  ],
  "textures": [
    {
      "sampler": 0,
      "source": 0
    },
    {
      "sampler": 0,
      "source": 1
    },
    {
      "sampler": 0,
      "source": 2
    }
  ]
}
