{
  "accessors": [
    {
      "bufferView": 2,
      "componentType": 5126,
      "count": 191,
      "max": [
        0.2749910056591034,
        0.36462700366973877,
        2.0837318897247314
      ],
      "min": [
        -0.3132070004940033,
        -0.4595690071582794,
        -0.0
      ],
      "type": "VEC3"
    },
    {
      "bufferView": 2,
      "byteOffset": 2292,
      "componentType": 5126,
      "count": 191,
      "max": [
        0.8952596187591553,
        0.9994506239891052,
        0.9870310425758362
      ],
      "min": [
        -0.8967090249061584,
        -0.9995816349983215,
        -1.0
      ],
      "type": "VEC3"
    },
    {
      "bufferView": 3,
      "componentType": 5126,
      "count": 191,
      "max": [
        0.9995241761207581,
        0.8090464472770691,
        0.9999662637710571,
        1.0
      ],
      "min": [
        -1.0,
        -0.7700716853141785,
        -0.6061903834342957,
        1.0
      ],
      "type": "VEC4"
    },
    {
      "bufferView": 1,
      "componentType": 5126,
      "count": 191,
      "max": [
        1.5858999490737915,
        0.8398000001907349
      ],
      "min": [
        -0.6449999809265137,
        0.00930000003427267
      ],
      "type": "VEC2"
    },
    {
      "bufferView": 0,
      "componentType": 5125,
      "count": 510,
      "type": "SCALAR"
    },
    {
      "bufferView": 2,
      "byteOffset": 4584,
      "componentType": 5126,
      "count": 121,
      "max": [
        0.352185994386673,
        0.29948800802230835,
        2.0013909339904785
      ],
      "min": [
        -0.3352609872817993,
        -0.522707998752594,
        0.7034410238265991
      ],
      "type": "VEC3"
    },
    {
      "bufferView": 2,
      "byteOffset": 6036,
      "componentType": 5126,
      "count": 121,
      "max": [
        0.994736909866333,
        0.9995022416114807,
        0.9978834986686707
      ],
      "min": [
        -0.9975897669792175,
        -0.9998823404312134,
        -0.9998480677604675
      ],
      "type": "VEC3"
    },
    {
      "bufferView": 1,
      "byteOffset": 1528,
      "componentType": 5126,
      "count": 121,
      "max": [
        1.1943000555038452,
        1.0063999891281128
      ],
      "min": [
        -0.15150000154972076,
        -0.32710000872612
      ],
      "type": "VEC2"
    },
    {
      "bufferView": 0,
      "byteOffset": 2040,
      "componentType": 5125,
      "count": 216,
      "type": "SCALAR"
    }
  ],
  "asset": {
    "extras": {
      "author": "Youthful strawbewwy (https://sketchfab.com/Youthful-Strawberry)",
      "license": "CC-BY-4.0 (http://creativecommons.org/licenses/by/4.0/)",
      "source": "https://sketchfab.com/3d-models/pc-computer-hello-neighbor-school-chair-6b67c424c93b4d278a51ac2a1a6b2ca4",
      "title": "PC Computer - Hello Neighbor - School Chair"
    },
    "generator": "Sketchfab-12.67.0",
    "version": "2.0"
  },
  "bufferViews": [
    {
      "buffer": 0,
      "byteLength": 2904,
      "name": "floatBufferViews",
      "target": 34963
    },
    {
      "buffer": 0,
      "byteLength": 2496,
      "byteOffset": 2904,
      "byteStride": 8,
      "name": "floatBufferViews",
      "target": 34962
    },
    {
      "buffer": 0,
      "byteLength": 7488,
      "byteOffset": 5400,
      "byteStride": 12,
      "name": "floatBufferViews",
      "target": 34962
    },
    {
      "buffer": 0,
      "byteLength": 3056,
      "byteOffset": 12888,
      "byteStride": 16,
      "name": "floatBufferViews",
      "target": 34962
    }
  ],
  "buffers": [
    {
      "byteLength": 15944,
      "uri": "scene.bin"
    }
  ],
  "images": [
    {
      "uri": "textures/metal_2_Inst_baseColor.png"
    },
    {
      "uri": "textures/metal_2_Inst_normal.png"
    },
    {
      "uri": "textures/wood_green_old_Inst_baseColor.png"
    },
    {
      "uri": "textures/wood_green_old_Inst_emissive.png"
    }
  ],
  "materials": [
    {
      "doubleSided": true,
      "emissiveTexture": {
        "index": 0
      },
      "name": "metal_2_Inst",
      "normalTexture": {
        "index": 1
      },
      "pbrMetallicRoughness": {
        "baseColorTexture": {
          "index": 0
        },
        "metallicFactor": 0.35541580944526485,
        "roughnessFactor": 0.0
      }
    },
    {
      "doubleSided": true,
      "emissiveTexture": {
        "index": 3
      },
      "name": "wood_green_old_Inst",
      "pbrMetallicRoughness": {
        "baseColorTexture": {
          "index": 2
        },
        "metallicFactor": 0.0
      }
    }
  ],
  "meshes": [
    {
      "name": "Object_0",
      "primitives": [
        {
          "attributes": {
            "NORMAL": 1,
            "POSITION": 0,
            "TANGENT": 2,
            "TEXCOORD_0": 3
          },
          "indices": 4,
          "material": 0,
          "mode": 4
        }
      ]
    },
    {
      "name": "Object_1",
      "primitives": [
        {
          "attributes": {
            "NORMAL": 6,
            "POSITION": 5,
            "TEXCOORD_0": 7
          },
          "indices": 8,
          "material": 1,
          "mode": 4
        }
      ]
    }
  ],
  "nodes": [
    {
      "children": [
        1
      ],
      "matrix": [
        1.0,
        0.0,
        0.0,
        0.0,
        0.0,
        2.220446049250313e-16,
        -1.0,
        0.0,
        0.0,
        1.0,
        2.220446049250313e-16,
        0.0,
        0.0,
        0.0,
        0.0,
        1.0
      ],
      "name": "Sketchfab_model"
    },
    {
      "children": [
        2,
        3
      ],
      "name": "School Chair.obj.cleaner.materialmerger.gles"
    },
    {
      "mesh": 0,
      "name": "Object_2"
    },
    {
      "mesh": 1,
      "name": "Object_3"
    }
  ],
  "samplers": [
    {
      "magFilter": 9729,
      "minFilter": 9987,
      "wrapS": 10497,
      "wrapT": 10497
    }
  ],
  "scene": 0,
  "scenes": [
    {
      "name": "Sketchfab_Scene",
      "nodes": [
        0
      ]
    }
  ],
  "textures": [
    {
      "sampler": 0,
      "source": 0
    },
    {
      "sampler": 0,
      "source": 1
    },
    {
      "sampler": 0,
      "source": 2
    },
    {
      "sampler": 0,
      "source": 3
    }
  ]
}
