{
  "accessors": [
    {
      "bufferView": 2,
      "componentType": 5126,
      "count": 628,
      "max": [
        55.167057037353516,
        17.578996658325195,
        7.63429594039917
      ],
      "min": [
        -50.603363037109375,
        -9.576974868774414,
        0.1380094438791275
      ],
      "type": "VEC3"
    },
    {
      "bufferView": 2,
      "byteOffset": 7536,
      "componentType": 5126,
      "count": 628,
      "max": [
        1.0,
        1.0,
        1.0
      ],
      "min": [
        -1.0,
        -1.0,
        -1.0
      ],
      "type": "VEC3"
    },
    {
      "bufferView": 3,
      "componentType": 5126,
      "count": 628,
      "max": [
        1.0,
        1.0,
        1.0,
        1.0
      ],
      "min": [
        -1.0,
        -1.0,
        -1.0,
        -1.0
      ],
      "type": "VEC4"
    },
    {
      "bufferView": 1,
      "componentType": 5126,
      "count": 628,
      "max": [
        0.9912109375,
        0.9936485290527344
      ],
      "min": [
        0.00739288330078125,
        0.005859375
      ],
      "type": "VEC2"
    },
    {
      "bufferView": 0,
      "componentType": 5125,
      "count": 1878,
      "type": "SCALAR"
    }
  ],
  "asset": {
    "extras": {
      "author": "Youthful strawbewwy (https://sketchfab.com/Youthful-Strawberry)",
      "license": "CC-BY-4.0 (http://creativecommons.org/licenses/by/4.0/)",
      "source": "https://sketchfab.com/3d-models/hello-neighbor-rifle-8e754190b95e4fc19abf5d01a0c22884",
      "title": "Hello-neighbor-rifle"
    },
    "generator": "Sketchfab-12.67.0",
    "version": "2.0"
  },
  "bufferViews": [
    {
      "buffer": 0,
      "byteLength": 7512,
      "name": "floatBufferViews",
      "target": 34963
    },
    {
      "buffer": 0,
      "byteLength": 5024,
      "byteOffset": 7512,
      "byteStride": 8,
      "name": "floatBufferViews",
      "target": 34962
    },
    {
      "buffer": 0,
      "byteLength": 15072,
      "byteOffset": 12536,
      "byteStride": 12,
      "name": "floatBufferViews",
      "target": 34962
    },
    {
      "buffer": 0,
      "byteLength": 10048,
      "byteOffset": 27608,
      "byteStride": 16,
      "name": "floatBufferViews",
      "target": 34962
    }
  ],
  "buffers": [
    {
      "byteLength": 37656,
      "uri": "scene.bin"
    }
  ],
  "images": [
    {
      "uri": "textures/pskmat0.003_baseColor.png"
    },
    {
      "uri": "textures/pskmat0.003_metallicRoughness.png"
    },
    {
      "uri": "textures/pskmat0.003_normal.png"
    }
  ],
  "materials": [
    {
      "doubleSided": true,
      "name": "pskmat0.003",
      "normalTexture": {
        "index": 2
      },
      "pbrMetallicRoughness": {
        "baseColorTexture": {
          "index": 0
        },
        "metallicRoughnessTexture": {
          "index": 1
        }
      }
    }
  ],
  "meshes": [
    {
      "name": "rifle_pskmat0.003_0",
      "primitives": [
        {
          "attributes": {
            "NORMAL": 1,
            "POSITION": 0,
            "TANGENT": 2,
            "TEXCOORD_0": 3
          },
          "indices": 4,
          "material": 0,
          "mode": 4
        }
      ]
    }
  ],
  "nodes": [
    {
      "children": [
        1
      ],
      "matrix": [
        -1.0,
        -2.832769343193999e-16,
        -6.290011496532519e-32,
        0.0,
        0.0,
        2.220446049250313e-16,
        -1.0,
        0.0,
        2.832769343193999e-16,
        -1.0,
        -2.220446049250313e-16,
        0.0,
        456.3529968261719,
        777.2295532226563,
        -1.3722484082106067e-05,
        1.0
      ],
      "name": "Sketchfab_model"
    },
    {
      "children": [
        2
      ],
      "matrix": [
        1.0,
        0.0,
        0.0,
        0.0,
        0.0,
        0.0,
        1.0,
        0.0,
        0.0,
        -1.0,
        0.0,
        0.0,
        0.0,
        0.0,
        0.0,
        1.0
      ],
      "name": "rifle.fbx"
    },
    {
      "children": [
        3
      ],
      "name": "RootNode"
    },
    {
      "children": [
        4
      ],
      "matrix": [
        100.0,
        0.0,
        0.0,
        0.0,
        0.0,
        -1.629206793918314e-05,
        -99.99999999999868,
        0.0,
        0.0,
        99.99999999999868,
        -1.629206793918314e-05,
        0.0,
        0.0,
        0.0,
        0.0,
        1.0
      ],
      "name": "rifle"
    },
    {
      "mesh": 0,
      "name": "rifle_pskmat0.003_0"
    }
  ],
  "samplers": [
    {
      "magFilter": 9729,
      "minFilter": 9987,
      "wrapS": 10497,
      "wrapT": 10497
    }
  ],
  "scene": 0,
  "scenes": [
    {
      "name": "Sketchfab_Scene",
      "nodes": [
        0
      ]
    }
  ],
  "textures": [
    {
      "sampler": 0,
      "source": 0
    },
    {
      "sampler": 0,
      "source": 1
    },
    {
      "sampler": 0,
      "source": 2
    }
  ]
}
