{
  "accessors": [
    {
      "bufferView": 2,
      "componentType": 5126,
      "count": 208,
      "max": [
        -12.17518424987793,
        6.496315002441406,
        -2.1605894565582275
      ],
      "min": [
        -12.233450889587402,
        5.494699001312256,
        -2.809813976287842
      ],
      "type": "VEC3"
    },
    {
      "bufferView": 2,
      "byteOffset": 2496,
      "componentType": 5126,
      "count": 208,
      "max": [
        0.999984622001648,
        0.9542253613471985,
        0.936100959777832
      ],
      "min": [
        -0.9944074153900146,
        -0.8873483538627625,
        -0.9184523820877075
      ],
      "type": "VEC3"
    },
    {
      "bufferView": 1,
      "componentType": 5126,
      "count": 208,
      "max": [
        1.5927734375,
        0.77978515625
      ],
      "min": [
        -0.267333984375,
        -0.0166015625
      ],
      "type": "VEC2"
    },
    {
      "bufferView": 1,
      "byteOffset": 1664,
      "componentType": 5126,
      "count": 208,
      "max": [
        1.5927734375,
        0.77978515625
      ],
      "min": [
        -0.267333984375,
        -0.0166015625
      ],
      "type": "VEC2"
    },
    {
      "bufferView": 1,
      "byteOffset": 3328,
      "componentType": 5126,
      "count": 208,
      "max": [
        1.5927734375,
        0.77978515625
      ],
      "min": [
        -0.267333984375,
        -0.0166015625
      ],
      "type": "VEC2"
    },
    {
      "bufferView": 1,
      "byteOffset": 4992,
      "componentType": 5126,
      "count": 208,
      "max": [
        1.5927734375,
        0.77978515625
      ],
      "min": [
        -0.267333984375,
        -0.0166015625
      ],
      "type": "VEC2"
    },
    {
      "bufferView": 1,
      "byteOffset": 6656,
      "componentType": 5126,
      "count": 208,
      "max": [
        1.5927734375,
        0.77978515625
      ],
      "min": [
        -0.267333984375,
        -0.0166015625
      ],
      "type": "VEC2"
    },
    {
      "bufferView": 1,
      "byteOffset": 8320,
      "componentType": 5126,
      "count": 208,
      "max": [
        1.5927734375,
        0.77978515625
      ],
      "min": [
        -0.267333984375,
        -0.0166015625
      ],
      "type": "VEC2"
    },
    {
      "bufferView": 1,
      "byteOffset": 9984,
      "componentType": 5126,
      "count": 208,
      "max": [
        1.5927734375,
        0.77978515625
      ],
      "min": [
        -0.267333984375,
        -0.0166015625
      ],
      "type": "VEC2"
    },
    {
      "bufferView": 1,
      "byteOffset": 11648,
      "componentType": 5126,
      "count": 208,
      "max": [
        1.5927734375,
        0.77978515625
      ],
      "min": [
        -0.267333984375,
        -0.0166015625
      ],
      "type": "VEC2"
    },
    {
      "bufferView": 1,
      "byteOffset": 13312,
      "componentType": 5126,
      "count": 208,
      "max": [
        1.5927734375,
        0.77978515625
      ],
      "min": [
        -0.267333984375,
        -0.0166015625
      ],
      "type": "VEC2"
    },
    {
      "bufferView": 0,
      "componentType": 5125,
      "count": 624,
      "type": "SCALAR"
    },
    {
      "bufferView": 2,
      "byteOffset": 4992,
      "componentType": 5126,
      "count": 9,
      "max": [
        -12.185283660888672,
        6.403687953948975,
        -2.1966257095336914
      ],
      "min": [
        -12.185283660888672,
        5.5436601638793945,
        -2.765061616897583
      ],
      "type": "VEC3"
    },
    {
      "bufferView": 2,
      "byteOffset": 5100,
      "componentType": 5126,
      "count": 9,
      "max": [
        0.999984622001648,
        -0.003921565134078264,
        -0.003921328578144312
      ],
      "min": [
        0.999984622001648,
        -0.003921565134078264,
        -0.003921328578144312
      ],
      "type": "VEC3"
    },
    {
      "bufferView": 1,
      "byteOffset": 14976,
      "componentType": 5126,
      "count": 9,
      "max": [
        0.83203125,
        0.90087890625
      ],
      "min": [
        0.387939453125,
        0.26171875
      ],
      "type": "VEC2"
    },
    {
      "bufferView": 1,
      "byteOffset": 15048,
      "componentType": 5126,
      "count": 9,
      "max": [
        0.83203125,
        0.90087890625
      ],
      "min": [
        0.387939453125,
        0.26171875
      ],
      "type": "VEC2"
    },
    {
      "bufferView": 1,
      "byteOffset": 15120,
      "componentType": 5126,
      "count": 9,
      "max": [
        0.83203125,
        0.90087890625
      ],
      "min": [
        0.387939453125,
        0.26171875
      ],
      "type": "VEC2"
    },
    {
      "bufferView": 1,
      "byteOffset": 15192,
      "componentType": 5126,
      "count": 9,
      "max": [
        0.83203125,
        0.90087890625
      ],
      "min": [
        0.387939453125,
        0.26171875
      ],
      "type": "VEC2"
    },
    {
      "bufferView": 1,
      "byteOffset": 15264,
      "componentType": 5126,
      "count": 9,
      "max": [
        0.83203125,
        0.90087890625
      ],
      "min": [
        0.387939453125,
        0.26171875
      ],
      "type": "VEC2"
    },
    {
      "bufferView": 1,
      "byteOffset": 15336,
      "componentType": 5126,
      "count": 9,
      "max": [
        0.83203125,
        0.90087890625
      ],
      "min": [
        0.387939453125,
        0.26171875
      ],
      "type": "VEC2"
    },
    {
      "bufferView": 1,
      "byteOffset": 15408,
      "componentType": 5126,
      "count": 9,
      "max": [
        0.83203125,
        0.90087890625
      ],
      "min": [
        0.387939453125,
        0.26171875
      ],
      "type": "VEC2"
    },
    {
      "bufferView": 1,
      "byteOffset": 15480,
      "componentType": 5126,
      "count": 9,
      "max": [
        0.83203125,
        0.90087890625
      ],
      "min": [
        0.387939453125,
        0.26171875
      ],
      "type": "VEC2"
    },
    {
      "bufferView": 1,
      "byteOffset": 15552,
      "componentType": 5126,
      "count": 9,
      "max": [
        0.83203125,
        0.90087890625
      ],
      "min": [
        0.387939453125,
        0.26171875
      ],
      "type": "VEC2"
    },
    {
      "bufferView": 0,
      "byteOffset": 2496,
      "componentType": 5125,
      "count": 24,
      "type": "SCALAR"
    },
    {
      "bufferView": 2,
      "byteOffset": 5208,
      "componentType": 5126,
      "count": 9,
      "max": [
        -12.19294548034668,
        6.403687953948975,
        -2.1966257095336914
      ],
      "min": [
        -12.192946434020996,
        5.5436601638793945,
        -2.765061616897583
      ],
      "type": "VEC3"
    },
    {
      "bufferView": 2,
      "byteOffset": 5316,
      "componentType": 5126,
      "count": 9,
      "max": [
        -0.999984622001648,
        -0.003921326715499163,
        -0.0039215669967234135
      ],
      "min": [
        -0.999984622001648,
        -0.003921326715499163,
        -0.0039215669967234135
      ],
      "type": "VEC3"
    },
    {
      "bufferView": 1,
      "byteOffset": 15624,
      "componentType": 5126,
      "count": 9,
      "max": [
        0.83154296875,
        0.9931640625
      ],
      "min": [
        0.173583984375,
        -0.0029296875
      ],
      "type": "VEC2"
    },
    {
      "bufferView": 1,
      "byteOffset": 15696,
      "componentType": 5126,
      "count": 9,
      "max": [
        0.83154296875,
        0.9931640625
      ],
      "min": [
        0.173583984375,
        -0.0029296875
      ],
      "type": "VEC2"
    },
    {
      "bufferView": 1,
      "byteOffset": 15768,
      "componentType": 5126,
      "count": 9,
      "max": [
        0.83154296875,
        0.9931640625
      ],
      "min": [
        0.173583984375,
        -0.0029296875
      ],
      "type": "VEC2"
    },
    {
      "bufferView": 1,
      "byteOffset": 15840,
      "componentType": 5126,
      "count": 9,
      "max": [
        0.83154296875,
        0.9931640625
      ],
      "min": [
        0.173583984375,
        -0.0029296875
      ],
      "type": "VEC2"
    },
    {
      "bufferView": 1,
      "byteOffset": 15912,
      "componentType": 5126,
      "count": 9,
      "max": [
        0.83154296875,
        0.9931640625
      ],
      "min": [
        0.173583984375,
        -0.0029296875
      ],
      "type": "VEC2"
    },
    {
      "bufferView": 1,
      "byteOffset": 15984,
      "componentType": 5126,
      "count": 9,
      "max": [
        0.83154296875,
        0.9931640625
      ],
      "min": [
        0.173583984375,
        -0.0029296875
      ],
      "type": "VEC2"
    },
    {
      "bufferView": 1,
      "byteOffset": 16056,
      "componentType": 5126,
      "count": 9,
      "max": [
        0.83154296875,
        0.9931640625
      ],
      "min": [
        0.173583984375,
        -0.0029296875
      ],
      "type": "VEC2"
    },
    {
      "bufferView": 1,
      "byteOffset": 16128,
      "componentType": 5126,
      "count": 9,
      "max": [
        0.83154296875,
        0.9931640625
      ],
      "min": [
        0.173583984375,
        -0.0029296875
      ],
      "type": "VEC2"
    },
    {
      "bufferView": 1,
      "byteOffset": 16200,
      "componentType": 5126,
      "count": 9,
      "max": [
        0.83154296875,
        0.9931640625
      ],
      "min": [
        0.173583984375,
        -0.0029296875
      ],
      "type": "VEC2"
    },
    {
      "bufferView": 1,
      "byteOffset": 16272,
      "componentType": 5126,
      "count": 9,
      "max": [
        0.83154296875,
        0.9931640625
      ],
      "min": [
        0.173583984375,
        -0.0029296875
      ],
      "type": "VEC2"
    },
    {
      "bufferView": 0,
      "byteOffset": 2592,
      "componentType": 5125,
      "count": 24,
      "type": "SCALAR"
    },
    {
      "bufferView": 2,
      "byteOffset": 5424,
      "componentType": 5126,
      "count": 100,
      "max": [
        -12.173551559448242,
        6.494815349578857,
        -2.1602444648742676
      ],
      "min": [
        -12.233184814453125,
        5.491185188293457,
        -2.809813976287842
      ],
      "type": "VEC3"
    },
    {
      "bufferView": 2,
      "byteOffset": 6624,
      "componentType": 5126,
      "count": 100,
      "max": [
        0.999984622001648,
        0.9317502975463867,
        0.9345278143882751
      ],
      "min": [
        -0.9941617846488953,
        -0.8920497894287109,
        -0.9336293935775757
      ],
      "type": "VEC3"
    },
    {
      "bufferView": 1,
      "byteOffset": 16344,
      "componentType": 5126,
      "count": 100,
      "max": [
        1.59375,
        0.77978515625
      ],
      "min": [
        -0.267578125,
        -0.0185546875
      ],
      "type": "VEC2"
    },
    {
      "bufferView": 1,
      "byteOffset": 17144,
      "componentType": 5126,
      "count": 100,
      "max": [
        1.59375,
        0.77978515625
      ],
      "min": [
        -0.267578125,
        -0.0185546875
      ],
      "type": "VEC2"
    },
    {
      "bufferView": 1,
      "byteOffset": 17944,
      "componentType": 5126,
      "count": 100,
      "max": [
        1.59375,
        0.77978515625
      ],
      "min": [
        -0.267578125,
        -0.0185546875
      ],
      "type": "VEC2"
    },
    {
      "bufferView": 1,
      "byteOffset": 18744,
      "componentType": 5126,
      "count": 100,
      "max": [
        1.59375,
        0.77978515625
      ],
      "min": [
        -0.267578125,
        -0.0185546875
      ],
      "type": "VEC2"
    },
    {
      "bufferView": 1,
      "byteOffset": 19544,
      "componentType": 5126,
      "count": 100,
      "max": [
        1.59375,
        0.77978515625
      ],
      "min": [
        -0.267578125,
        -0.0185546875
      ],
      "type": "VEC2"
    },
    {
      "bufferView": 1,
      "byteOffset": 20344,
      "componentType": 5126,
      "count": 100,
      "max": [
        1.59375,
        0.77978515625
      ],
      "min": [
        -0.267578125,
        -0.0185546875
      ],
      "type": "VEC2"
    },
    {
      "bufferView": 1,
      "byteOffset": 21144,
      "componentType": 5126,
      "count": 100,
      "max": [
        1.59375,
        0.77978515625
      ],
      "min": [
        -0.267578125,
        -0.0185546875
      ],
      "type": "VEC2"
    },
    {
      "bufferView": 1,
      "byteOffset": 21944,
      "componentType": 5126,
      "count": 100,
      "max": [
        1.59375,
        0.77978515625
      ],
      "min": [
        -0.267578125,
        -0.0185546875
      ],
      "type": "VEC2"
    },
    {
      "bufferView": 1,
      "byteOffset": 22744,
      "componentType": 5126,
      "count": 100,
      "max": [
        1.59375,
        0.77978515625
      ],
      "min": [
        -0.267578125,
        -0.0185546875
      ],
      "type": "VEC2"
    },
    {
      "bufferView": 0,
      "byteOffset": 2688,
      "componentType": 5125,
      "count": 300,
      "type": "SCALAR"
    },
    {
      "bufferView": 2,
      "byteOffset": 7824,
      "componentType": 5126,
      "count": 8,
      "max": [
        -12.185283660888672,
        6.403687953948975,
        -2.1966257095336914
      ],
      "min": [
        -12.185283660888672,
        5.5436601638793945,
        -2.765061616897583
      ],
      "type": "VEC3"
    },
    {
      "bufferView": 2,
      "byteOffset": 7920,
      "componentType": 5126,
      "count": 8,
      "max": [
        0.999984622001648,
        -0.003921565134078264,
        -0.003921328578144312
      ],
      "min": [
        0.999984622001648,
        -0.003921565134078264,
        -0.003921328578144312
      ],
      "type": "VEC3"
    },
    {
      "bufferView": 1,
      "byteOffset": 23544,
      "componentType": 5126,
      "count": 8,
      "max": [
        0.83203125,
        0.90087890625
      ],
      "min": [
        0.387939453125,
        0.26171875
      ],
      "type": "VEC2"
    },
    {
      "bufferView": 1,
      "byteOffset": 23608,
      "componentType": 5126,
      "count": 8,
      "max": [
        0.83203125,
        0.90087890625
      ],
      "min": [
        0.387939453125,
        0.26171875
      ],
      "type": "VEC2"
    },
    {
      "bufferView": 1,
      "byteOffset": 23672,
      "componentType": 5126,
      "count": 8,
      "max": [
        0.83203125,
        0.90087890625
      ],
      "min": [
        0.387939453125,
        0.26171875
      ],
      "type": "VEC2"
    },
    {
      "bufferView": 1,
      "byteOffset": 23736,
      "componentType": 5126,
      "count": 8,
      "max": [
        0.83203125,
        0.90087890625
      ],
      "min": [
        0.387939453125,
        0.26171875
      ],
      "type": "VEC2"
    },
    {
      "bufferView": 1,
      "byteOffset": 23800,
      "componentType": 5126,
      "count": 8,
      "max": [
        0.83203125,
        0.90087890625
      ],
      "min": [
        0.387939453125,
        0.26171875
      ],
      "type": "VEC2"
    },
    {
      "bufferView": 1,
      "byteOffset": 23864,
      "componentType": 5126,
      "count": 8,
      "max": [
        0.83203125,
        0.90087890625
      ],
      "min": [
        0.387939453125,
        0.26171875
      ],
      "type": "VEC2"
    },
    {
      "bufferView": 1,
      "byteOffset": 23928,
      "componentType": 5126,
      "count": 8,
      "max": [
        0.83203125,
        0.90087890625
      ],
      "min": [
        0.387939453125,
        0.26171875
      ],
      "type": "VEC2"
    },
    {
      "bufferView": 1,
      "byteOffset": 23992,
      "componentType": 5126,
      "count": 8,
      "max": [
        0.83203125,
        0.90087890625
      ],
      "min": [
        0.387939453125,
        0.26171875
      ],
      "type": "VEC2"
    },
    {
      "bufferView": 1,
      "byteOffset": 24056,
      "componentType": 5126,
      "count": 8,
      "max": [
        0.83203125,
        0.90087890625
      ],
      "min": [
        0.387939453125,
        0.26171875
      ],
      "type": "VEC2"
    },
    {
      "bufferView": 0,
      "byteOffset": 3888,
      "componentType": 5125,
      "count": 18,
      "type": "SCALAR"
    },
    {
      "bufferView": 2,
      "byteOffset": 8016,
      "componentType": 5126,
      "count": 8,
      "max": [
        -12.19294548034668,
        6.403687953948975,
        -2.1966257095336914
      ],
      "min": [
        -12.192946434020996,
        5.5436601638793945,
        -2.765061616897583
      ],
      "type": "VEC3"
    },
    {
      "bufferView": 2,
      "byteOffset": 8112,
      "componentType": 5126,
      "count": 8,
      "max": [
        -0.999984622001648,
        -0.003921326715499163,
        -0.0039215669967234135
      ],
      "min": [
        -0.999984622001648,
        -0.003921326715499163,
        -0.0039215669967234135
      ],
      "type": "VEC3"
    },
    {
      "bufferView": 1,
      "byteOffset": 24120,
      "componentType": 5126,
      "count": 8,
      "max": [
        0.83154296875,
        0.9931640625
      ],
      "min": [
        0.173583984375,
        -0.0029296875
      ],
      "type": "VEC2"
    },
    {
      "bufferView": 1,
      "byteOffset": 24184,
      "componentType": 5126,
      "count": 8,
      "max": [
        0.83154296875,
        0.9931640625
      ],
      "min": [
        0.173583984375,
        -0.0029296875
      ],
      "type": "VEC2"
    },
    {
      "bufferView": 1,
      "byteOffset": 24248,
      "componentType": 5126,
      "count": 8,
      "max": [
        0.83154296875,
        0.9931640625
      ],
      "min": [
        0.173583984375,
        -0.0029296875
      ],
      "type": "VEC2"
    },
    {
      "bufferView": 1,
      "byteOffset": 24312,
      "componentType": 5126,
      "count": 8,
      "max": [
        0.83154296875,
        0.9931640625
      ],
      "min": [
        0.173583984375,
        -0.0029296875
      ],
      "type": "VEC2"
    },
    {
      "bufferView": 1,
      "byteOffset": 24376,
      "componentType": 5126,
      "count": 8,
      "max": [
        0.83154296875,
        0.9931640625
      ],
      "min": [
        0.173583984375,
        -0.0029296875
      ],
      "type": "VEC2"
    },
    {
      "bufferView": 1,
      "byteOffset": 24440,
      "componentType": 5126,
      "count": 8,
      "max": [
        0.83154296875,
        0.9931640625
      ],
      "min": [
        0.173583984375,
        -0.0029296875
      ],
      "type": "VEC2"
    },
    {
      "bufferView": 1,
      "byteOffset": 24504,
      "componentType": 5126,
      "count": 8,
      "max": [
        0.83154296875,
        0.9931640625
      ],
      "min": [
        0.173583984375,
        -0.0029296875
      ],
      "type": "VEC2"
    },
    {
      "bufferView": 1,
      "byteOffset": 24568,
      "componentType": 5126,
      "count": 8,
      "max": [
        0.83154296875,
        0.9931640625
      ],
      "min": [
        0.173583984375,
        -0.0029296875
      ],
      "type": "VEC2"
    },
    {
      "bufferView": 1,
      "byteOffset": 24632,
      "componentType": 5126,
      "count": 8,
      "max": [
        0.83154296875,
        0.9931640625
      ],
      "min": [
        0.173583984375,
        -0.0029296875
      ],
      "type": "VEC2"
    },
    {
      "bufferView": 1,
      "byteOffset": 24696,
      "componentType": 5126,
      "count": 8,
      "max": [
        0.83154296875,
        0.9931640625
      ],
      "min": [
        0.173583984375,
        -0.0029296875
      ],
      "type": "VEC2"
    },
    {
      "bufferView": 0,
      "byteOffset": 3960,
      "componentType": 5125,
      "count": 18,
      "type": "SCALAR"
    },
    {
      "bufferView": 2,
      "byteOffset": 8208,
      "componentType": 5126,
      "count": 66,
      "max": [
        -12.172913551330566,
        6.486201286315918,
        -2.1529505252838135
      ],
      "min": [
        -12.2343168258667,
        5.493805408477783,
        -2.8094429969787598
      ],
      "type": "VEC3"
    },
    {
      "bufferView": 2,
      "byteOffset": 9000,
      "componentType": 5126,
      "count": 66,
      "max": [
        0.999984622001648,
        0.872360110282898,
        0.939322829246521
      ],
      "min": [
        -0.993425726890564,
        -0.8428131341934204,
        -0.9333446621894836
      ],
      "type": "VEC3"
    },
    {
      "bufferView": 1,
      "byteOffset": 24760,
      "componentType": 5126,
      "count": 66,
      "max": [
        1.5869140625,
        0.77783203125
      ],
      "min": [
        -0.26171875,
        -0.0234375
      ],
      "type": "VEC2"
    },
    {
      "bufferView": 1,
      "byteOffset": 25288,
      "componentType": 5126,
      "count": 66,
      "max": [
        1.5869140625,
        0.77783203125
      ],
      "min": [
        -0.26171875,
        -0.0234375
      ],
      "type": "VEC2"
    },
    {
      "bufferView": 1,
      "byteOffset": 25816,
      "componentType": 5126,
      "count": 66,
      "max": [
        1.5869140625,
        0.77783203125
      ],
      "min": [
        -0.26171875,
        -0.0234375
      ],
      "type": "VEC2"
    },
    {
      "bufferView": 1,
      "byteOffset": 26344,
      "componentType": 5126,
      "count": 66,
      "max": [
        1.5869140625,
        0.77783203125
      ],
      "min": [
        -0.26171875,
        -0.0234375
      ],
      "type": "VEC2"
    },
    {
      "bufferView": 1,
      "byteOffset": 26872,
      "componentType": 5126,
      "count": 66,
      "max": [
        1.5869140625,
        0.77783203125
      ],
      "min": [
        -0.26171875,
        -0.0234375
      ],
      "type": "VEC2"
    },
    {
      "bufferView": 1,
      "byteOffset": 27400,
      "componentType": 5126,
      "count": 66,
      "max": [
        1.5869140625,
        0.77783203125
      ],
      "min": [
        -0.26171875,
        -0.0234375
      ],
      "type": "VEC2"
    },
    {
      "bufferView": 1,
      "byteOffset": 27928,
      "componentType": 5126,
      "count": 66,
      "max": [
        1.5869140625,
        0.77783203125
      ],
      "min": [
        -0.26171875,
        -0.0234375
      ],
      "type": "VEC2"
    },
    {
      "bufferView": 1,
      "byteOffset": 28456,
      "componentType": 5126,
      "count": 66,
      "max": [
        1.5869140625,
        0.77783203125
      ],
      "min": [
        -0.26171875,
        -0.0234375
      ],
      "type": "VEC2"
    },
    {
      "bufferView": 1,
      "byteOffset": 28984,
      "componentType": 5126,
      "count": 66,
      "max": [
        1.5869140625,
        0.77783203125
      ],
      "min": [
        -0.26171875,
        -0.0234375
      ],
      "type": "VEC2"
    },
    {
      "bufferView": 0,
      "byteOffset": 4032,
      "componentType": 5125,
      "count": 162,
      "type": "SCALAR"
    },
    {
      "bufferView": 2,
      "byteOffset": 9792,
      "componentType": 5126,
      "count": 8,
      "max": [
        -12.185283660888672,
        6.403687953948975,
        -2.1966257095336914
      ],
      "min": [
        -12.185283660888672,
        5.5436601638793945,
        -2.765061616897583
      ],
      "type": "VEC3"
    },
    {
      "bufferView": 2,
      "byteOffset": 9888,
      "componentType": 5126,
      "count": 8,
      "max": [
        0.999984622001648,
        -0.003921565134078264,
        -0.003921328578144312
      ],
      "min": [
        0.999984622001648,
        -0.003921565134078264,
        -0.003921328578144312
      ],
      "type": "VEC3"
    },
    {
      "bufferView": 1,
      "byteOffset": 29512,
      "componentType": 5126,
      "count": 8,
      "max": [
        0.83203125,
        0.90087890625
      ],
      "min": [
        0.387939453125,
        0.26171875
      ],
      "type": "VEC2"
    },
    {
      "bufferView": 1,
      "byteOffset": 29576,
      "componentType": 5126,
      "count": 8,
      "max": [
        0.83203125,
        0.90087890625
      ],
      "min": [
        0.387939453125,
        0.26171875
      ],
      "type": "VEC2"
    },
    {
      "bufferView": 1,
      "byteOffset": 29640,
      "componentType": 5126,
      "count": 8,
      "max": [
        0.83203125,
        0.90087890625
      ],
      "min": [
        0.387939453125,
        0.26171875
      ],
      "type": "VEC2"
    },
    {
      "bufferView": 1,
      "byteOffset": 29704,
      "componentType": 5126,
      "count": 8,
      "max": [
        0.83203125,
        0.90087890625
      ],
      "min": [
        0.387939453125,
        0.26171875
      ],
      "type": "VEC2"
    },
    {
      "bufferView": 1,
      "byteOffset": 29768,
      "componentType": 5126,
      "count": 8,
      "max": [
        0.83203125,
        0.90087890625
      ],
      "min": [
        0.387939453125,
        0.26171875
      ],
      "type": "VEC2"
    },
    {
      "bufferView": 1,
      "byteOffset": 29832,
      "componentType": 5126,
      "count": 8,
      "max": [
        0.83203125,
        0.90087890625
      ],
      "min": [
        0.387939453125,
        0.26171875
      ],
      "type": "VEC2"
    },
    {
      "bufferView": 1,
      "byteOffset": 29896,
      "componentType": 5126,
      "count": 8,
      "max": [
        0.83203125,
        0.90087890625
      ],
      "min": [
        0.387939453125,
        0.26171875
      ],
      "type": "VEC2"
    },
    {
      "bufferView": 1,
      "byteOffset": 29960,
      "componentType": 5126,
      "count": 8,
      "max": [
        0.83203125,
        0.90087890625
      ],
      "min": [
        0.387939453125,
        0.26171875
      ],
      "type": "VEC2"
    },
    {
      "bufferView": 1,
      "byteOffset": 30024,
      "componentType": 5126,
      "count": 8,
      "max": [
        0.83203125,
        0.90087890625
      ],
      "min": [
        0.387939453125,
        0.26171875
      ],
      "type": "VEC2"
    },
    {
      "bufferView": 0,
      "byteOffset": 4680,
      "componentType": 5125,
      "count": 18,
      "type": "SCALAR"
    },
    {
      "bufferView": 2,
      "byteOffset": 9984,
      "componentType": 5126,
      "count": 8,
      "max": [
        -12.19294548034668,
        6.403687953948975,
        -2.1966257095336914
      ],
      "min": [
        -12.192946434020996,
        5.5436601638793945,
        -2.765061616897583
      ],
      "type": "VEC3"
    },
    {
      "bufferView": 2,
      "byteOffset": 10080,
      "componentType": 5126,
      "count": 8,
      "max": [
        -0.999984622001648,
        -0.003921326715499163,
        -0.0039215669967234135
      ],
      "min": [
        -0.999984622001648,
        -0.003921326715499163,
        -0.0039215669967234135
      ],
      "type": "VEC3"
    },
    {
      "bufferView": 1,
      "byteOffset": 30088,
      "componentType": 5126,
      "count": 8,
      "max": [
        0.83154296875,
        0.9931640625
      ],
      "min": [
        0.173583984375,
        -0.0029296875
      ],
      "type": "VEC2"
    },
    {
      "bufferView": 1,
      "byteOffset": 30152,
      "componentType": 5126,
      "count": 8,
      "max": [
        0.83154296875,
        0.9931640625
      ],
      "min": [
        0.173583984375,
        -0.0029296875
      ],
      "type": "VEC2"
    },
    {
      "bufferView": 1,
      "byteOffset": 30216,
      "componentType": 5126,
      "count": 8,
      "max": [
        0.83154296875,
        0.9931640625
      ],
      "min": [
        0.173583984375,
        -0.0029296875
      ],
      "type": "VEC2"
    },
    {
      "bufferView": 1,
      "byteOffset": 30280,
      "componentType": 5126,
      "count": 8,
      "max": [
        0.83154296875,
        0.9931640625
      ],
      "min": [
        0.173583984375,
        -0.0029296875
      ],
      "type": "VEC2"
    },
    {
      "bufferView": 1,
      "byteOffset": 30344,
      "componentType": 5126,
      "count": 8,
      "max": [
        0.83154296875,
        0.9931640625
      ],
      "min": [
        0.173583984375,
        -0.0029296875
      ],
      "type": "VEC2"
    },
    {
      "bufferView": 1,
      "byteOffset": 30408,
      "componentType": 5126,
      "count": 8,
      "max": [
        0.83154296875,
        0.9931640625
      ],
      "min": [
        0.173583984375,
        -0.0029296875
      ],
      "type": "VEC2"
    },
    {
      "bufferView": 1,
      "byteOffset": 30472,
      "componentType": 5126,
      "count": 8,
      "max": [
        0.83154296875,
        0.9931640625
      ],
      "min": [
        0.173583984375,
        -0.0029296875
      ],
      "type": "VEC2"
    },
    {
      "bufferView": 1,
      "byteOffset": 30536,
      "componentType": 5126,
      "count": 8,
      "max": [
        0.83154296875,
        0.9931640625
      ],
      "min": [
        0.173583984375,
        -0.0029296875
      ],
      "type": "VEC2"
    },
    {
      "bufferView": 1,
      "byteOffset": 30600,
      "componentType": 5126,
      "count": 8,
      "max": [
        0.83154296875,
        0.9931640625
      ],
      "min": [
        0.173583984375,
        -0.0029296875
      ],
      "type": "VEC2"
    },
    {
      "bufferView": 1,
      "byteOffset": 30664,
      "componentType": 5126,
      "count": 8,
      "max": [
        0.83154296875,
        0.9931640625
      ],
      "min": [
        0.173583984375,
        -0.0029296875
      ],
      "type": "VEC2"
    },
    {
      "bufferView": 0,
      "byteOffset": 4752,
      "componentType": 5125,
      "count": 18,
      "type": "SCALAR"
    },
    {
      "bufferView": 3,
      "componentType": 5126,
      "count": 13,
      "max": [
        1.0,
        0.0,
        0.0,
        0.0,
        0.0,
        1.0,
        0.0,
        0.0,
        0.0,
        0.0,
        1.0,
        0.0,
        0.0,
        0.0,
        0.0,
        1.0
      ],
      "min": [
        1.0,
        0.0,
        0.0,
        0.0,
        0.0,
        1.0,
        0.0,
        0.0,
        0.0,
        0.0,
        1.0,
        0.0,
        0.0,
        0.0,
        0.0,
        1.0
      ],
      "type": "MAT4"
    }
  ],
  "asset": {
    "extras": {
      "author": "Kriz Faerson (https://sketchfab.com/KrizFaerson)",
      "license": "CC-BY-4.0 (http://creativecommons.org/licenses/by/4.0/)",
      "source": "https://sketchfab.com/3d-models/picture-hello-neighbor-d25004eac8ee41c7a6565e60809e1996",
      "title": "Picture Hello Neighbor"
    },
    "generator": "Sketchfab-12.68.0",
    "version": "2.0"
  },
  "bufferViews": [
    {
      "buffer": 0,
      "byteLength": 4824,
      "name": "floatBufferViews",
      "target": 34963
    },
    {
      "buffer": 0,
      "byteLength": 30728,
      "byteOffset": 4824,
      "byteStride": 8,
      "name": "floatBufferViews",
      "target": 34962
    },
    {
      "buffer": 0,
      "byteLength": 10176,
      "byteOffset": 35552,
      "byteStride": 12,
      "name": "floatBufferViews",
      "target": 34962
    },
    {
      "buffer": 0,
      "byteLength": 832,
      "byteOffset": 45728,
      "name": "floatBufferViews"
    }
  ],
  "buffers": [
    {
      "byteLength": 46560,
      "uri": "scene.bin"
    }
  ],
  "images": [
    {
      "uri": "textures/red_wood_Inst_baseColor.png"
    },
    {
      "uri": "textures/red_wood_Inst_metallicRoughness.png"
    },
    {
      "uri": "textures/wood_32_Inst_baseColor.png"
    },
    {
      "uri": "textures/wood_32_Inst_metallicRoughness.png"
    },
    {
      "uri": "textures/art_5_Inst_baseColor.png"
    }
  ],
  "materials": [
    {
      "doubleSided": true,
      "name": "red_wood_Inst",
      "pbrMetallicRoughness": {
        "baseColorTexture": {
          "index": 0
        },
        "metallicRoughnessTexture": {
          "index": 1
        }
      }
    },
    {
      "doubleSided": true,
      "name": "wood_32_Inst",
      "pbrMetallicRoughness": {
        "baseColorTexture": {
          "index": 2
        },
        "metallicRoughnessTexture": {
          "index": 3
        }
      }
    },
    {
      "doubleSided": true,
      "name": "art_5_Inst",
      "pbrMetallicRoughness": {
        "baseColorTexture": {
          "index": 4
        },
        "metallicFactor": 0.0
      }
    }
  ],
  "meshes": [
    {
      "name": "picture_oval_3_LOD0_0_red_wood_Inst_0",
      "primitives": [
        {
          "attributes": {
            "NORMAL": 1,
            "POSITION": 0,
            "TEXCOORD_0": 2,
            "TEXCOORD_1": 3,
            "TEXCOORD_2": 4,
            "TEXCOORD_3": 5,
            "TEXCOORD_4": 6,
            "TEXCOORD_5": 7,
            "TEXCOORD_6": 8,
            "TEXCOORD_7": 9,
            "TEXCOORD_8": 10
          },
          "indices": 11,
          "material": 0,
          "mode": 4
        }
      ]
    },
    {
      "name": "picture_oval_3_LOD0_1_wood_32_Inst_0",
      "primitives": [
        {
          "attributes": {
            "NORMAL": 13,
            "POSITION": 12,
            "TEXCOORD_0": 14,
            "TEXCOORD_1": 15,
            "TEXCOORD_2": 16,
            "TEXCOORD_3": 17,
            "TEXCOORD_4": 18,
            "TEXCOORD_5": 19,
            "TEXCOORD_6": 20,
            "TEXCOORD_7": 21,
            "TEXCOORD_8": 22
          },
          "indices": 23,
          "material": 1,
          "mode": 4
        }
      ]
    },
    {
      "name": "picture_oval_3_LOD0_2_art_5_Inst_0",
      "primitives": [
        {
          "attributes": {
            "NORMAL": 25,
            "POSITION": 24,
            "TEXCOORD_0": 26,
            "TEXCOORD_1": 27,
            "TEXCOORD_2": 28,
            "TEXCOORD_3": 29,
            "TEXCOORD_4": 30,
            "TEXCOORD_5": 31,
            "TEXCOORD_6": 32,
            "TEXCOORD_7": 33,
            "TEXCOORD_8": 34,
            "TEXCOORD_9": 35
          },
          "indices": 36,
          "material": 2,
          "mode": 4
        }
      ]
    },
    {
      "name": "picture_oval_3_LOD1_0_red_wood_Inst_0",
      "primitives": [
        {
          "attributes": {
            "NORMAL": 38,
            "POSITION": 37,
            "TEXCOORD_0": 39,
            "TEXCOORD_1": 40,
            "TEXCOORD_2": 41,
            "TEXCOORD_3": 42,
            "TEXCOORD_4": 43,
            "TEXCOORD_5": 44,
            "TEXCOORD_6": 45,
            "TEXCOORD_7": 46,
            "TEXCOORD_8": 47
          },
          "indices": 48,
          "material": 0,
          "mode": 4
        }
      ]
    },
    {
      "name": "picture_oval_3_LOD1_1_wood_32_Inst_0",
      "primitives": [
        {
          "attributes": {
            "NORMAL": 50,
            "POSITION": 49,
            "TEXCOORD_0": 51,
            "TEXCOORD_1": 52,
            "TEXCOORD_2": 53,
            "TEXCOORD_3": 54,
            "TEXCOORD_4": 55,
            "TEXCOORD_5": 56,
            "TEXCOORD_6": 57,
            "TEXCOORD_7": 58,
            "TEXCOORD_8": 59
          },
          "indices": 60,
          "material": 1,
          "mode": 4
        }
      ]
    },
    {
      "name": "picture_oval_3_LOD1_2_art_5_Inst_0",
      "primitives": [
        {
          "attributes": {
            "NORMAL": 62,
            "POSITION": 61,
            "TEXCOORD_0": 63,
            "TEXCOORD_1": 64,
            "TEXCOORD_2": 65,
            "TEXCOORD_3": 66,
            "TEXCOORD_4": 67,
            "TEXCOORD_5": 68,
            "TEXCOORD_6": 69,
            "TEXCOORD_7": 70,
            "TEXCOORD_8": 71,
            "TEXCOORD_9": 72
          },
          "indices": 73,
          "material": 2,
          "mode": 4
        }
      ]
    },
    {
      "name": "picture_oval_3_LOD2_0_red_wood_Inst_0",
      "primitives": [
        {
          "attributes": {
            "NORMAL": 75,
            "POSITION": 74,
            "TEXCOORD_0": 76,
            "TEXCOORD_1": 77,
            "TEXCOORD_2": 78,
            "TEXCOORD_3": 79,
            "TEXCOORD_4": 80,
            "TEXCOORD_5": 81,
            "TEXCOORD_6": 82,
            "TEXCOORD_7": 83,
            "TEXCOORD_8": 84
          },
          "indices": 85,
          "material": 0,
          "mode": 4
        }
      ]
    },
    {
      "name": "picture_oval_3_LOD2_1_wood_32_Inst_0",
      "primitives": [
        {
          "attributes": {
            "NORMAL": 87,
            "POSITION": 86,
            "TEXCOORD_0": 88,
            "TEXCOORD_1": 89,
            "TEXCOORD_2": 90,
            "TEXCOORD_3": 91,
            "TEXCOORD_4": 92,
            "TEXCOORD_5": 93,
            "TEXCOORD_6": 94,
            "TEXCOORD_7": 95,
            "TEXCOORD_8": 96
          },
          "indices": 97,
          "material": 1,
          "mode": 4
        }
      ]
    },
    {
      "name": "picture_oval_3_LOD2_2_art_5_Inst_0",
      "primitives": [
        {
          "attributes": {
            "NORMAL": 99,
            "POSITION": 98,
            "TEXCOORD_0": 100,
            "TEXCOORD_1": 101,
            "TEXCOORD_2": 102,
            "TEXCOORD_3": 103,
            "TEXCOORD_4": 104,
            "TEXCOORD_5": 105,
            "TEXCOORD_6": 106,
            "TEXCOORD_7": 107,
            "TEXCOORD_8": 108,
            "TEXCOORD_9": 109
          },
          "indices": 110,
          "material": 2,
          "mode": 4
        }
      ]
    }
  ],
  "nodes": [
    {
      "children": [
        1
      ],
      "matrix": [
        1.0,
        0.0,
        0.0,
        0.0,
        0.0,
        2.220446049250313e-16,
        -1.0,
        0.0,
        0.0,
        1.0,
        2.220446049250313e-16,
        0.0,
        0.0,
        0.0,
        0.0,
        1.0
      ],
      "name": "Sketchfab_model"
    },
    {
      "children": [
        2
      ],
      "matrix": [
        1.0,
        0.0,
        0.0,
        0.0,
        0.0,
        0.0,
        1.0,
        0.0,
        0.0,
        -1.0,
        0.0,
        0.0,
        0.0,
        0.0,
        0.0,
        1.0
      ],
      "name": "bd87981c6fd1461398795b98298be673.fbx"
    },
    {
      "children": [
        3
      ],
      "name": "RootNode"
    },
    {
      "children": [
        4
      ],
      "name": "Object_3"
    },
    {
      "children": [
        5
      ],
      "name": "_rootJoint"
    },
    {
      "children": [
        6
      ],
      "matrix": [
        1.0,
        0.0,
        0.0,
        0.0,
        0.0,
        1.0,
        0.0,
        0.0,
        0.0,
        0.0,
        1.0,
        0.0,
        0.9730832576751709,
        -0.479860782623291,
        -2.065375328063965,
        1.0
      ],
      "name": "GameController_00"
    },
    {
      "children": [
        7
      ],
      "matrix": [
        1.0,
        0.0,
        0.0,
        0.0,
        0.0,
        1.0,
        0.0,
        0.0,
        0.0,
        0.0,
        1.0,
        0.0,
        0.9730832576751709,
        -0.479860782623291,
        -2.065375328063965,
        1.0
      ],
      "name": "Scenery_01"
    },
    {
      "children": [
        8
      ],
      "matrix": [
        1.0,
        0.0,
        0.0,
        0.0,
        0.0,
        1.0,
        0.0,
        0.0,
        0.0,
        0.0,
        1.0,
        0.0,
        0.9730832576751709,
        -0.479860782623291,
        -2.065375328063965,
        1.0
      ],
      "name": "Environment (1)_02"
    },
    {
      "children": [
        9
      ],
      "matrix": [
        1.0,
        0.0,
        0.0,
        0.0,
        0.0,
        1.0,
        0.0,
        0.0,
        0.0,
        0.0,
        1.0,
        0.0,
        0.9730832576751709,
        -0.479860782623291,
        -2.065375328063965,
        1.0
      ],
      "name": "Stage2_03"
    },
    {
      "children": [
        10
      ],
      "matrix": [
        1.0,
        0.0,
        0.0,
        0.0,
        0.0,
        1.0,
        0.0,
        0.0,
        0.0,
        0.0,
        1.0,
        0.0,
        0.9730832576751709,
        -0.479860782623291,
        -2.065375328063965,
        1.0
      ],
      "name": "Floor 2_04"
    },
    {
      "children": [
        11
      ],
      "matrix": [
        1.0,
        0.0,
        0.0,
        0.0,
        0.0,
        1.0,
        0.0,
        0.0,
        0.0,
        0.0,
        1.0,
        0.0,
        0.9730832576751709,
        -0.479860782623291,
        -2.065375328063965,
        1.0
      ],
      "name": "SecretRoom_05"
    },
    {
      "children": [
        12
      ],
      "matrix": [
        1.0,
        0.0,
        0.0,
        0.0,
        0.0,
        1.0,
        0.0,
        0.0,
        0.0,
        0.0,
        1.0,
        0.0,
        0.9730832576751709,
        -0.479860782623291,
        -2.065375328063965,
        1.0
      ],
      "name": "Room (18) SecretRoom_06"
    },
    {
      "children": [
        13
      ],
      "matrix": [
        1.0000004768371582,
        0.0,
        0.0,
        0.0,
        0.0,
        1.0,
        0.0,
        0.0,
        0.0,
        0.0,
        1.0000004768371582,
        0.0,
        0.9730832576751709,
        -0.479860782623291,
        -2.065375328063965,
        1.0
      ],
      "name": "pref_picture_oval_3 (7)_07"
    },
    {
      "children": [
        14,
        21,
        28
      ],
      "matrix": [
        1.0,
        0.0,
        0.0,
        0.0,
        0.0,
        1.0,
        0.0,
        0.0,
        0.0,
        0.0,
        1.0,
        0.0,
        0.9730832576751709,
        -0.479860782623291,
        -2.065375328063965,
        1.0
      ],
      "name": "picture_oval_3_08"
    },
    {
      "children": [
        15,
        17,
        19
      ],
      "matrix": [
        1.0,
        0.0,
        0.0,
        0.0,
        0.0,
        1.0,
        0.0,
        0.0,
        0.0,
        0.0,
        1.0,
        0.0,
        0.9730832576751709,
        -0.479860782623291,
        -2.065375328063965,
        1.0
      ],
      "name": "picture_oval_3_LOD0_09"
    },
    {
      "children": [
        16
      ],
      "name": "picture_oval_3_LOD0_0"
    },
    {
      "mesh": 0,
      "name": "picture_oval_3_LOD0_0_red_wood_Inst_0"
    },
    {
      "children": [
        18
      ],
      "name": "picture_oval_3_LOD0_1"
    },
    {
      "mesh": 1,
      "name": "picture_oval_3_LOD0_1_wood_32_Inst_0"
    },
    {
      "children": [
        20
      ],
      "name": "picture_oval_3_LOD0_2"
    },
    {
      "mesh": 2,
      "name": "picture_oval_3_LOD0_2_art_5_Inst_0"
    },
    {
      "children": [
        22,
        24,
        26
      ],
      "matrix": [
        1.0,
        0.0,
        0.0,
        0.0,
        0.0,
        1.0,
        0.0,
        0.0,
        0.0,
        0.0,
        1.0,
        0.0,
        0.9730832576751709,
        -0.479860782623291,
        -2.065375328063965,
        1.0
      ],
      "name": "picture_oval_3_LOD1_010"
    },
    {
      "children": [
        23
      ],
      "name": "picture_oval_3_LOD1_0"
    },
    {
      "mesh": 3,
      "name": "picture_oval_3_LOD1_0_red_wood_Inst_0"
    },
    {
      "children": [
        25
      ],
      "name": "picture_oval_3_LOD1_1"
    },
    {
      "mesh": 4,
      "name": "picture_oval_3_LOD1_1_wood_32_Inst_0"
    },
    {
      "children": [
        27
      ],
      "name": "picture_oval_3_LOD1_2"
    },
    {
      "mesh": 5,
      "name": "picture_oval_3_LOD1_2_art_5_Inst_0"
    },
    {
      "children": [
        29,
        31,
        33
      ],
      "matrix": [
        1.0,
        0.0,
        0.0,
        0.0,
        0.0,
        1.0,
        0.0,
        0.0,
        0.0,
        0.0,
        1.0,
        0.0,
        0.9730832576751709,
        -0.479860782623291,
        -2.065375328063965,
        1.0
      ],
      "name": "picture_oval_3_LOD2_011"
    },
    {
      "children": [
        30
      ],
      "name": "picture_oval_3_LOD2_0"
    },
    {
      "mesh": 6,
      "name": "picture_oval_3_LOD2_0_red_wood_Inst_0"
    },
    {
      "children": [
        32
      ],
      "name": "picture_oval_3_LOD2_1"
    },
    {
      "mesh": 7,
      "name": "picture_oval_3_LOD2_1_wood_32_Inst_0"
    },
    {
      "children": [
        34
      ],
      "name": "picture_oval_3_LOD2_2"
    },
    {
      "mesh": 8,
      "name": "picture_oval_3_LOD2_2_art_5_Inst_0"
    }
  ],
  "samplers": [
    {
      "magFilter": 9729,
      "minFilter": 9987,
      "wrapS": 10497,
      "wrapT": 10497
    }
  ],
  "scene": 0,
  "scenes": [
    {
      "name": "Sketchfab_Scene",
      "nodes": [
        0
      ]
    }
  ],
  "skins": [
    {
      "inverseBindMatrices": 111,
      "joints": [
        4,
        5,
        6,
        7,
        8,
        9,
        10,
        11,
        12,
        13,
        14,
        21,
        28
      ],
      "skeleton": 4
    }
  ],
  "textures": [
    {
      "sampler": 0,
      "source": 0
    },
    {
      "sampler": 0,
      "source": 1
    },
    {
      "sampler": 0,
      "source": 2
    },
    {
      "sampler": 0,
      "source": 3
    },
    {
      "sampler": 0,
      "source": 4
    }
  ]
}
