{
  "accessors": [
    {
      "bufferView": 3,
      "componentType": 5126,
      "count": 2322,
      "max": [
        46.440303802490234,
        64.0865707397461,
        7.745904445648193
      ],
      "min": [
        -52.18989181518555,
        0.7732013463973999,
        -7.945631980895996
      ],
      "type": "VEC3"
    },
    {
      "bufferView": 3,
      "byteOffset": 27864,
      "componentType": 5126,
      "count": 2322,
      "max": [
        0.9999270439147949,
        0.9999985694885254,
        0.999993085861206
      ],
      "min": [
        -0.999910831451416,
        -0.9999933242797852,
        -0.9999395608901978
      ],
      "type": "VEC3"
    },
    {
      "bufferView": 2,
      "componentType": 5126,
      "count": 2322,
      "max": [
        3.984375,
        3.966796875
      ],
      "min": [
        -2.984375,
        -2.970703125
      ],
      "type": "VEC2"
    },
    {
      "bufferView": 1,
      "componentType": 5125,
      "count": 9384,
      "type": "SCALAR"
    },
    {
      "bufferView": 3,
      "byteOffset": 55728,
      "componentType": 5126,
      "count": 569,
      "max": [
        56.210540771484375,
        61.742767333984375,
        4.567195415496826
      ],
      "min": [
        -62.00490188598633,
        51.08832931518555,
        -1.5039376020431519
      ],
      "type": "VEC3"
    },
    {
      "bufferView": 3,
      "byteOffset": 62556,
      "componentType": 5126,
      "count": 569,
      "max": [
        0.9968213438987732,
        0.9999644160270691,
        0.9998968243598938
      ],
      "min": [
        -0.9982990026473999,
        -0.9999997019767761,
        -0.9999995827674866
      ],
      "type": "VEC3"
    },
    {
      "bufferView": 2,
      "byteOffset": 18576,
      "componentType": 5126,
      "count": 569,
      "max": [
        1.7236328125,
        1.75634765625
      ],
      "min": [
        -0.6328125,
        -0.875
      ],
      "type": "VEC2"
    },
    {
      "bufferView": 1,
      "byteOffset": 37536,
      "componentType": 5125,
      "count": 2316,
      "type": "SCALAR"
    },
    {
      "bufferView": 3,
      "byteOffset": 69384,
      "componentType": 5126,
      "count": 649,
      "max": [
        4.870324611663818,
        73.16336059570313,
        5.7431321144104
      ],
      "min": [
        -6.454881191253662,
        38.168216705322266,
        -3.027296304702759
      ],
      "type": "VEC3"
    },
    {
      "bufferView": 3,
      "byteOffset": 77172,
      "componentType": 5126,
      "count": 649,
      "max": [
        0.9999106526374817,
        0.9940214157104492,
        0.9997438788414001
      ],
      "min": [
        -0.9999746084213257,
        -0.9977949857711792,
        -0.9996272921562195
      ],
      "type": "VEC3"
    },
    {
      "bufferView": 2,
      "byteOffset": 23128,
      "componentType": 5126,
      "count": 649,
      "max": [
        0.99365234375,
        0.9960784912109375
      ],
      "min": [
        0.0170745849609375,
        0.00732421875
      ],
      "type": "VEC2"
    },
    {
      "bufferView": 1,
      "byteOffset": 46800,
      "componentType": 5125,
      "count": 3204,
      "type": "SCALAR"
    },
    {
      "bufferView": 3,
      "byteOffset": 84960,
      "componentType": 5126,
      "count": 552,
      "max": [
        31.429723739624023,
        58.857730865478516,
        7.174615383148193
      ],
      "min": [
        -36.205413818359375,
        0.518653929233551,
        -7.1746134757995605
      ],
      "type": "VEC3"
    },
    {
      "bufferView": 3,
      "byteOffset": 91584,
      "componentType": 5126,
      "count": 552,
      "max": [
        0.9611552953720093,
        0.9997891783714294,
        0.9998293519020081
      ],
      "min": [
        -0.9611563682556152,
        -0.9997881054878235,
        -0.9998293519020081
      ],
      "type": "VEC3"
    },
    {
      "bufferView": 2,
      "byteOffset": 28320,
      "componentType": 5126,
      "count": 552,
      "max": [
        1.6826171875,
        1.68798828125
      ],
      "min": [
        -0.68603515625,
        -0.6875
      ],
      "type": "VEC2"
    },
    {
      "bufferView": 1,
      "byteOffset": 59616,
      "componentType": 5125,
      "count": 1920,
      "type": "SCALAR"
    },
    {
      "bufferView": 3,
      "byteOffset": 98208,
      "componentType": 5126,
      "count": 613,
      "max": [
        6.714148998260498,
        40.054039001464844,
        6.714149475097656
      ],
      "min": [
        -6.714147090911865,
        -0.033055175095796585,
        -6.714148998260498
      ],
      "type": "VEC3"
    },
    {
      "bufferView": 3,
      "byteOffset": 105564,
      "componentType": 5126,
      "count": 613,
      "max": [
        0.9999716281890869,
        0.9999553561210632,
        0.9998632073402405
      ],
      "min": [
        -0.999616801738739,
        -0.9999826550483704,
        -0.9995251893997192
      ],
      "type": "VEC3"
    },
    {
      "bufferView": 2,
      "byteOffset": 32736,
      "componentType": 5126,
      "count": 613,
      "max": [
        1.5380859375,
        2.0439453125
      ],
      "min": [
        -0.783203125,
        -1.04296875
      ],
      "type": "VEC2"
    },
    {
      "bufferView": 1,
      "byteOffset": 67296,
      "componentType": 5125,
      "count": 2772,
      "type": "SCALAR"
    },
    {
      "bufferView": 3,
      "byteOffset": 112920,
      "componentType": 5126,
      "count": 448,
      "max": [
        6.492367267608643,
        40.287841796875,
        4.088468074798584
      ],
      "min": [
        -6.665163993835449,
        30.16153907775879,
        -4.19634485244751
      ],
      "type": "VEC3"
    },
    {
      "bufferView": 3,
      "byteOffset": 118296,
      "componentType": 5126,
      "count": 448,
      "max": [
        0.9999482035636902,
        0.9994766712188721,
        0.9578285217285156
      ],
      "min": [
        -0.9999455809593201,
        -0.9995828866958618,
        -0.9499562382698059
      ],
      "type": "VEC3"
    },
    {
      "bufferView": 2,
      "byteOffset": 37640,
      "componentType": 5126,
      "count": 448,
      "max": [
        2.50390625,
        2.912109375
      ],
      "min": [
        -2.984375,
        -2.970703125
      ],
      "type": "VEC2"
    },
    {
      "bufferView": 1,
      "byteOffset": 78384,
      "componentType": 5125,
      "count": 2016,
      "type": "SCALAR"
    },
    {
      "bufferView": 5,
      "componentType": 5126,
      "count": 49,
      "max": [
        4.444999694824219,
        0.9999605417251587,
        0.2749955952167511,
        0.0,
        0.9971978068351746,
        4.445000648498535,
        0.9969047904014587,
        0.0,
        0.9993607997894287,
        0.8480028510093689,
        4.445000648498535,
        0.0,
        58.009403228759766,
        29.338560104370117,
        66.5776138305664,
        1.0
      ],
      "min": [
        -0.03205934166908264,
        -0.999947190284729,
        -0.17847026884555817,
        0.0,
        -0.998820960521698,
        -0.9951243996620178,
        -0.9994135499000549,
        0.0,
        -0.9991973638534546,
        -0.334426611661911,
        -0.9974828362464905,
        0.0,
        -55.613548278808594,
        -62.49414825439453,
        -56.647972106933594,
        1.0
      ],
      "type": "MAT4"
    },
    {
      "bufferView": 0,
      "componentType": 5123,
      "count": 2322,
      "type": "VEC4"
    },
    {
      "bufferView": 4,
      "componentType": 5126,
      "count": 2322,
      "max": [
        1.0,
        0.49803924560546875,
        0.0,
        0.0
      ],
      "min": [
        0.501960813999176,
        0.0,
        0.0,
        0.0
      ],
      "type": "VEC4"
    },
    {
      "bufferView": 0,
      "byteOffset": 18576,
      "componentType": 5123,
      "count": 569,
      "type": "VEC4"
    },
    {
      "bufferView": 4,
      "byteOffset": 37152,
      "componentType": 5126,
      "count": 569,
      "max": [
        1.0,
        0.2980392277240753,
        0.0,
        0.0
      ],
      "min": [
        0.7019608020782471,
        0.0,
        0.0,
        0.0
      ],
      "type": "VEC4"
    },
    {
      "bufferView": 0,
      "byteOffset": 23128,
      "componentType": 5123,
      "count": 649,
      "type": "VEC4"
    },
    {
      "bufferView": 4,
      "byteOffset": 46256,
      "componentType": 5126,
      "count": 649,
      "max": [
        1.0,
        0.49803924560546875,
        0.27843135595321655,
        0.0235294122248888
      ],
      "min": [
        0.4156862497329712,
        0.0,
        0.0,
        0.0
      ],
      "type": "VEC4"
    },
    {
      "bufferView": 0,
      "byteOffset": 28320,
      "componentType": 5123,
      "count": 552,
      "type": "VEC4"
    },
    {
      "bufferView": 4,
      "byteOffset": 56640,
      "componentType": 5126,
      "count": 552,
      "max": [
        1.0,
        0.0,
        0.0,
        0.0
      ],
      "min": [
        1.0,
        0.0,
        0.0,
        0.0
      ],
      "type": "VEC4"
    },
    {
      "bufferView": 0,
      "byteOffset": 32736,
      "componentType": 5123,
      "count": 613,
      "type": "VEC4"
    },
    {
      "bufferView": 4,
      "byteOffset": 65472,
      "componentType": 5126,
      "count": 613,
      "max": [
        1.0,
        0.49803924560546875,
        0.0,
        0.0
      ],
      "min": [
        0.501960813999176,
        0.0,
        0.0,
        0.0
      ],
      "type": "VEC4"
    },
    {
      "bufferView": 0,
      "byteOffset": 37640,
      "componentType": 5123,
      "count": 448,
      "type": "VEC4"
    },
    {
      "bufferView": 4,
      "byteOffset": 75280,
      "componentType": 5126,
      "count": 448,
      "max": [
        1.0,
        0.01568627543747425,
        0.0,
        0.0
      ],
      "min": [
        0.9843137264251709,
        0.0,
        0.0,
        0.0
      ],
      "type": "VEC4"
    }
  ],
  "asset": {
    "extras": {
      "author": "phillyfilbert//ajaylmer11isback (https://sketchfab.com/phillyfilbertiscool)",
      "license": "CC-BY-4.0 (http://creativecommons.org/licenses/by/4.0/)",
      "source": "https://sketchfab.com/3d-models/hello-neighbor-mannequin-07e18bb52832458485070e85c34b0820",
      "title": "Hello Neighbor Mannequin"
    },
    "generator": "Sketchfab-12.67.0",
    "version": "2.0"
  },
  "bufferViews": [
    {
      "buffer": 0,
      "byteLength": 41224,
      "byteStride": 8,
      "name": "shortBufferViews",
      "target": 34962
    },
    {
      "buffer": 0,
      "byteLength": 86448,
      "byteOffset": 41224,
      "name": "floatBufferViews",
      "target": 34963
    },
    {
      "buffer": 0,
      "byteLength": 41224,
      "byteOffset": 127672,
      "byteStride": 8,
      "name": "floatBufferViews",
      "target": 34962
    },
    {
      "buffer": 0,
      "byteLength": 123672,
      "byteOffset": 168896,
      "byteStride": 12,
      "name": "floatBufferViews",
      "target": 34962
    },
    {
      "buffer": 0,
      "byteLength": 82448,
      "byteOffset": 292568,
      "byteStride": 16,
      "name": "floatBufferViews",
      "target": 34962
    },
    {
      "buffer": 0,
      "byteLength": 3136,
      "byteOffset": 375016,
      "name": "floatBufferViews"
    }
  ],
  "buffers": [
    {
      "byteLength": 378152,
      "uri": "scene.bin"
    }
  ],
  "images": [
    {
      "uri": "textures/blue_noise_dif_3.png.001_baseColor.png"
    },
    {
      "uri": "textures/red_wood_dif_3.png_baseColor.png"
    },
    {
      "uri": "textures/dummy_dif_3.png_baseColor.png"
    }
  ],
  "materials": [
    {
      "doubleSided": true,
      "name": "blue_noise_dif_3.png.001",
      "pbrMetallicRoughness": {
        "baseColorTexture": {
          "index": 0
        },
        "metallicFactor": 0.0,
        "roughnessFactor": 0.8934999708726591
      }
    },
    {
      "doubleSided": true,
      "name": "red_wood_dif_3.png",
      "pbrMetallicRoughness": {
        "baseColorTexture": {
          "index": 1
        },
        "metallicFactor": 0.0,
        "roughnessFactor": 0.8934999708726591
      }
    },
    {
      "doubleSided": true,
      "name": "dummy_dif_3.png",
      "pbrMetallicRoughness": {
        "baseColorTexture": {
          "index": 2
        },
        "metallicFactor": 0.0,
        "roughnessFactor": 0.8934999708726591
      }
    },
    {
      "doubleSided": true,
      "name": "blue_noise_dif_3.png",
      "pbrMetallicRoughness": {
        "baseColorTexture": {
          "index": 0
        },
        "metallicFactor": 0.0,
        "roughnessFactor": 0.8934999708726591
      }
    },
    {
      "doubleSided": true,
      "name": "red_wood_dif_3.png.001",
      "pbrMetallicRoughness": {
        "baseColorTexture": {
          "index": 1
        },
        "metallicFactor": 0.0,
        "roughnessFactor": 0.8934999708726591
      }
    },
    {
      "doubleSided": true,
      "name": "metal_noise_dark_SM_Inst.001",
      "pbrMetallicRoughness": {
        "baseColorTexture": {
          "index": 0
        },
        "metallicFactor": 0.0,
        "roughnessFactor": 0.8934999708726591
      }
    }
  ],
  "meshes": [
    {
      "name": "dummy_skeletal_3_blue_noise_dif_3.png.001_0",
      "primitives": [
        {
          "attributes": {
            "JOINTS_0": 25,
            "NORMAL": 1,
            "POSITION": 0,
            "TEXCOORD_0": 2,
            "WEIGHTS_0": 26
          },
          "indices": 3,
          "material": 0,
          "mode": 4
        }
      ]
    },
    {
      "name": "dummy_skeletal_3_red_wood_dif_3.png_0",
      "primitives": [
        {
          "attributes": {
            "JOINTS_0": 27,
            "NORMAL": 5,
            "POSITION": 4,
            "TEXCOORD_0": 6,
            "WEIGHTS_0": 28
          },
          "indices": 7,
          "material": 1,
          "mode": 4
        }
      ]
    },
    {
      "name": "dummy_skeletal_3_dummy_dif_3.png_0",
      "primitives": [
        {
          "attributes": {
            "JOINTS_0": 29,
            "NORMAL": 9,
            "POSITION": 8,
            "TEXCOORD_0": 10,
            "WEIGHTS_0": 30
          },
          "indices": 11,
          "material": 2,
          "mode": 4
        }
      ]
    },
    {
      "name": "dummy_skeletal_3_blue_noise_dif_3.png_0",
      "primitives": [
        {
          "attributes": {
            "JOINTS_0": 31,
            "NORMAL": 13,
            "POSITION": 12,
            "TEXCOORD_0": 14,
            "WEIGHTS_0": 32
          },
          "indices": 15,
          "material": 3,
          "mode": 4
        }
      ]
    },
    {
      "name": "dummy_skeletal_3_red_wood_dif_3.png.001_0",
      "primitives": [
        {
          "attributes": {
            "JOINTS_0": 33,
            "NORMAL": 17,
            "POSITION": 16,
            "TEXCOORD_0": 18,
            "WEIGHTS_0": 34
          },
          "indices": 19,
          "material": 4,
          "mode": 4
        }
      ]
    },
    {
      "name": "dummy_skeletal_3_metal_noise_dark_SM_Inst.001_0",
      "primitives": [
        {
          "attributes": {
            "JOINTS_0": 35,
            "NORMAL": 21,
            "POSITION": 20,
            "TEXCOORD_0": 22,
            "WEIGHTS_0": 36
          },
          "indices": 23,
          "material": 5,
          "mode": 4
        }
      ]
    }
  ],
  "nodes": [
    {
      "children": [
        1
      ],
      "matrix": [
        1.0,
        0.0,
        0.0,
        0.0,
        0.0,
        2.220446049250313e-16,
        -1.0,
        0.0,
        0.0,
        1.0,
        2.220446049250313e-16,
        0.0,
        0.0,
        0.0,
        0.0,
        1.0
      ],
      "name": "Sketchfab_model"
    },
    {
      "children": [
        2
      ],
      "matrix": [
        0.009999999776482582,
        0.0,
        0.0,
        0.0,
        0.0,
        0.0,
        0.009999999776482582,
        0.0,
        0.0,
        -0.009999999776482582,
        0.0,
        0.0,
        0.0,
        0.0,
        0.0,
        1.0
      ],
      "name": "Dummy (Fear Rooms).fbx"
    },
    {
      "children": [
        3
      ],
      "name": "RootNode"
    },
    {
      "children": [
        4
      ],
      "matrix": [
        4.445000171661377,
        0.0,
        0.0,
        0.0,
        0.0,
        4.4450001716613174,
        7.241824725385834e-07,
        0.0,
        0.0,
        -7.241824725385834e-07,
        4.4450001716613174,
        0.0,
        0.0,
        0.0,
        0.0,
        1.0
      ],
      "name": "Armature"
    },
    {
      "children": [
        5,
        55,
        56,
        57,
        58,
        59,
        60,
        54
      ],
      "name": "Object_4"
    },
    {
      "children": [
        6
      ],
      "name": "_rootJoint"
    },
    {
      "children": [
        7,
        47,
        49,
        51,
        52
      ],
      "name": "root_01",
      "rotation": [
        -0.7071068286895752,
        0.0,
        0.0,
        0.7071067094802856
      ],
      "scale": [
        1.0000001192092896,
        1.0000001192092896,
        1.0000001192092896
      ]
    },
    {
      "children": [
        8,
        36,
        46
      ],
      "name": "ORG-hips_02",
      "rotation": [
        0.7453262209892273,
        0.027802636846899986,
        -0.01651359349489212,
        0.6659152507781982
      ],
      "scale": [
        0.9999998807907104,
        0.9999997615814209,
        0.9999996423721313
      ],
      "translation": [
        -1.0590758323669434,
        0.18948771059513092,
        32.19880294799805
      ]
    },
    {
      "children": [
        9,
        35
      ],
      "name": "ORG-spine_03",
      "rotation": [
        -0.11339005082845688,
        -0.01158300880342722,
        0.04671761766076088,
        0.9923840165138245
      ],
      "scale": [
        0.9999997615814209,
        0.9999996423721313,
        0.9999994039535522
      ],
      "translation": [
        3.818422555923462e-07,
        9.194465637207031,
        1.3904646039009094e-06
      ]
    },
    {
      "children": [
        10,
        12,
        23,
        34
      ],
      "name": "ORG-chest_04",
      "rotation": [
        0.09259237349033356,
        0.002281072549521923,
        -0.016590798273682594,
        0.995563268661499
      ],
      "scale": [
        0.9999998807907104,
        1.0000004768371582,
        1.000000238418579
      ],
      "translation": [
        -2.926753950305283e-07,
        7.401433944702148,
        -2.985820174217224e-06
      ]
    },
    {
      "children": [
        11
      ],
      "name": "ORG-neck_05",
      "rotation": [
        0.036955807358026505,
        -0.0013908923137933016,
        0.02225479669868946,
        0.9990680813789368
      ],
      "scale": [
        0.9999997019767761,
        1.0000001192092896,
        0.9999995827674866
      ],
      "translation": [
        -5.369511200115085e-07,
        9.598612785339355,
        -3.104069037362933e-07
      ]
    },
    {
      "name": "DEF-head_06",
      "rotation": [
        -0.0988665521144867,
        0.0026861096266657114,
        -0.021389877423644066,
        0.9948671460151672
      ],
      "scale": [
        1.0000001192092896,
        1.0,
        0.9999998211860657
      ],
      "translation": [
        -4.7497451305389404e-07,
        4.4637885093688965,
        1.103850081562996e-06
      ]
    },
    {
      "children": [
        13,
        22
      ],
      "name": "ORG-shoulder_L_07",
      "rotation": [
        -0.5722747445106506,
        -0.43165746331214905,
        -0.3813621699810028,
        0.5837262272834778
      ],
      "scale": [
        1.0,
        0.9999999403953552,
        1.000000238418579
      ],
      "translation": [
        1.4314385652542114,
        8.249517440795898,
        1.6157282590866089
      ]
    },
    {
      "children": [
        14,
        21
      ],
      "name": "ORG-upper_arm_L_08",
      "rotation": [
        0.10836827009916306,
        0.6968523263931274,
        -0.13353116810321808,
        0.6962920427322388
      ],
      "scale": [
        0.9999998807907104,
        1.0,
        0.9999998807907104
      ],
      "translation": [
        0.6997946500778198,
        6.6328253746032715,
        0.5485655069351196
      ]
    },
    {
      "children": [
        15,
        17,
        18
      ],
      "name": "ORG-forearm_L_09",
      "rotation": [
        -0.0013878950849175453,
        -0.056673675775527954,
        -0.01096517313271761,
        0.9983316659927368
      ],
      "scale": [
        0.9999998211860657,
        0.9999994039535522,
        0.9999998807907104
      ],
      "translation": [
        1.4068558812141418e-05,
        21.623779296875,
        -1.7262063920497894e-05
      ]
    },
    {
      "children": [
        16
      ],
      "name": "ORG-hand_L_010",
      "rotation": [
        0.03987604379653931,
        0.7188397645950317,
        -0.026395734399557114,
        0.6935290694236755
      ],
      "scale": [
        0.9999994039535522,
        0.9999998211860657,
        1.0
      ],
      "translation": [
        -4.33996319770813e-06,
        16.998849868774414,
        -6.115064024925232e-06
      ]
    },
    {
      "name": "DEF-hand_L_011",
      "rotation": [
        2.2592867026105523e-06,
        -2.4930335484896204e-07,
        4.22878542849503e-07,
        1.0
      ],
      "scale": [
        1.0000004768371582,
        1.0000001192092896,
        1.0
      ],
      "translation": [
        7.748603820800781e-07,
        -4.668720066547394e-06,
        1.5949830412864685e-05
      ]
    },
    {
      "name": "DEF-forearm_02_L_00",
      "rotation": [
        -4.801553927791247e-07,
        0.7196639180183411,
        9.729606631481147e-08,
        0.6943225860595703
      ],
      "scale": [
        0.9999997019767761,
        1.0,
        1.0000001192092896
      ],
      "translation": [
        8.892267942428589e-06,
        8.499417304992676,
        -3.6153942346572876e-06
      ]
    },
    {
      "children": [
        19
      ],
      "name": "MCH-forearm_01_L_012",
      "rotation": [
        5.194161758481641e-07,
        -1.309862511789106e-07,
        6.423560989787802e-07,
        1.0
      ],
      "scale": [
        0.9999999403953552,
        1.0,
        0.9999996423721313
      ],
      "translation": [
        2.9843300580978394e-05,
        -1.799775054678321e-05,
        -3.427267074584961e-07
      ]
    },
    {
      "children": [
        20
      ],
      "name": "MCH-forearm_smth_01_L_013",
      "rotation": [
        0.0013872201088815928,
        0.056673988699913025,
        0.010964403860270977,
        0.9983315467834473
      ],
      "scale": [
        1.0000001192092896,
        1.0,
        1.0000001192092896
      ],
      "translation": [
        0.23498870432376862,
        -10.809250831604004,
        -0.04337821528315544
      ]
    },
    {
      "name": "DEF-forearm_01_L_014",
      "rotation": [
        -0.0013872348936274648,
        -0.05667400360107422,
        -0.01096457988023758,
        0.9983315467834473
      ],
      "scale": [
        1.0,
        0.9999997019767761,
        0.9999998807907104
      ],
      "translation": [
        1.928955316543579e-05,
        10.811904907226563,
        -4.615052603185177e-06
      ]
    },
    {
      "name": "DEF-upper_arm_02_L_015",
      "rotation": [
        -2.4600100800853397e-07,
        1.2134967164456611e-07,
        -6.480457841462339e-07,
        1.0
      ],
      "scale": [
        1.0000004768371582,
        0.9999999403953552,
        1.0000003576278687
      ],
      "translation": [
        -2.0042061805725098e-06,
        10.811888694763184,
        -7.927883416414261e-06
      ]
    },
    {
      "name": "DEF-shoulder_L_016",
      "rotation": [
        -2.561137080192566e-09,
        -3.837048723198677e-07,
        -4.877801984548569e-08,
        1.0
      ],
      "scale": [
        1.0000001192092896,
        0.9999998807907104,
        1.0
      ],
      "translation": [
        8.642673492431641e-07,
        -4.172325134277344e-07,
        4.682689905166626e-06
      ]
    },
    {
      "children": [
        24,
        33
      ],
      "name": "ORG-shoulder_R_017",
      "rotation": [
        0.6531573534011841,
        -0.4016870856285095,
        -0.43050771951675415,
        -0.4761260747909546
      ],
      "scale": [
        0.9999997019767761,
        0.999999463558197,
        1.0000001192092896
      ],
      "translation": [
        -1.1201601028442383,
        8.284120559692383,
        1.61269211769104
      ]
    },
    {
      "children": [
        25,
        32
      ],
      "name": "ORG-upper_arm_R_018",
      "rotation": [
        0.16729916632175446,
        -0.7518934011459351,
        0.04414762929081917,
        0.636174738407135
      ],
      "scale": [
        1.0,
        1.000000238418579,
        0.9999998807907104
      ],
      "translation": [
        -0.5548830628395081,
        7.237860679626465,
        0.11808314919471741
      ]
    },
    {
      "children": [
        26,
        28,
        29
      ],
      "name": "ORG-forearm_R_019",
      "rotation": [
        -0.00685057183727622,
        0.07777759432792664,
        -0.016246646642684937,
        0.9968149065971375
      ],
      "scale": [
        0.9999999403953552,
        1.000000238418579,
        1.000000238418579
      ],
      "translation": [
        3.67090106010437e-05,
        24.00737953186035,
        -1.5273690223693848e-05
      ]
    },
    {
      "children": [
        27
      ],
      "name": "ORG-hand_R_020",
      "rotation": [
        0.10136203467845917,
        -0.714285135269165,
        0.09559395164251328,
        0.685845673084259
      ],
      "scale": [
        0.9999998807907104,
        0.9999997615814209,
        1.0000008344650269
      ],
      "translation": [
        1.4804303646087646e-05,
        18.184219360351563,
        -2.294778823852539e-06
      ]
    },
    {
      "name": "DEF-hand_R_021",
      "rotation": [
        -3.1990416573535185e-06,
        -3.2347440992452903e-07,
        2.929125457740156e-06,
        1.0
      ],
      "scale": [
        1.0000003576278687,
        0.9999998807907104,
        1.0000003576278687
      ],
      "translation": [
        6.109476089477539e-07,
        -6.292946636676788e-06,
        5.925074219703674e-06
      ]
    },
    {
      "name": "DEF-forearm_02_R_022",
      "rotation": [
        1.112631025534938e-06,
        -0.7213233709335327,
        1.0260340559398173e-06,
        0.6925985217094421
      ],
      "scale": [
        0.9999998211860657,
        1.0,
        1.0000003576278687
      ],
      "translation": [
        -4.08664345741272e-06,
        9.092113494873047,
        -2.086162567138672e-07
      ]
    },
    {
      "children": [
        30
      ],
      "name": "MCH-forearm_01_R_023",
      "rotation": [
        -5.605988349088875e-07,
        -2.454723073697096e-07,
        5.8127611168856674e-08,
        1.0
      ],
      "scale": [
        1.0000004768371582,
        1.0,
        1.000000238418579
      ],
      "translation": [
        2.7567148208618164e-07,
        -4.768837243318558e-06,
        -1.4007091522216797e-06
      ]
    },
    {
      "children": [
        31
      ],
      "name": "MCH-forearm_smth_01_R_024",
      "rotation": [
        0.006851091515272856,
        -0.07777749001979828,
        0.01624411903321743,
        0.9968148469924927
      ],
      "scale": [
        0.9999997019767761,
        0.9999997019767761,
        0.9999998211860657
      ],
      "translation": [
        0.40154364705085754,
        -11.996243476867676,
        -0.13361266255378723
      ]
    },
    {
      "name": "DEF-forearm_01_R_025",
      "rotation": [
        -0.0068497611209750175,
        0.0777774527668953,
        -0.01624424010515213,
        0.9968149662017822
      ],
      "scale": [
        1.0000001192092896,
        0.9999997615814209,
        0.9999999403953552
      ],
      "translation": [
        7.264316082000732e-07,
        12.003698348999023,
        -5.4389238357543945e-06
      ]
    },
    {
      "name": "DEF-upper_arm_02_R_026",
      "rotation": [
        3.8032885640859604e-07,
        -1.8847637761609803e-07,
        -2.6053826331917662e-06,
        1.0
      ],
      "scale": [
        1.0,
        0.9999998211860657,
        1.000000238418579
      ],
      "translation": [
        -1.4293938875198364e-05,
        12.003691673278809,
        -5.21540641784668e-06
      ]
    },
    {
      "name": "DEF-shoulder_R_027",
      "rotation": [
        -2.950429461634485e-06,
        1.695007227908718e-07,
        -3.3271501820308913e-07,
        1.0
      ],
      "scale": [
        0.9999997615814209,
        1.0000001192092896,
        1.0000001192092896
      ],
      "translation": [
        -2.9206275939941406e-06,
        -1.430511474609375e-06,
        3.966689109802246e-05
      ]
    },
    {
      "name": "DEF-neck_028",
      "rotation": [
        0.03695584833621979,
        -0.0013908902183175087,
        0.02225479669868946,
        0.9990680813789368
      ],
      "scale": [
        0.9999997615814209,
        1.0000001192092896,
        1.0
      ],
      "translation": [
        -6.561022019013762e-07,
        9.598612785339355,
        -6.084446795284748e-07
      ]
    },
    {
      "name": "DEF-chest_029",
      "rotation": [
        0.09259244799613953,
        0.002281070686876774,
        -0.016590749844908714,
        0.995563268661499
      ],
      "scale": [
        0.9999999403953552,
        1.0000007152557373,
        0.9999999403953552
      ],
      "translation": [
        -2.922424755524844e-07,
        7.401433944702148,
        -2.8656795620918274e-06
      ]
    },
    {
      "children": [
        37,
        45
      ],
      "name": "ORG-thigh_R_030",
      "rotation": [
        0.9934849143028259,
        0.06724312156438828,
        0.005952747073024511,
        0.09181886166334152
      ],
      "scale": [
        0.9999979138374329,
        0.999999463558197,
        0.9999956488609314
      ],
      "translation": [
        -0.1284966766834259,
        -2.7746267318725586,
        0.5382167100906372
      ]
    },
    {
      "children": [
        38,
        41,
        42
      ],
      "name": "ORG-shin_R_031",
      "rotation": [
        0.08475898951292038,
        0.002886788919568062,
        0.03629356250166893,
        0.9957361817359924
      ],
      "scale": [
        1.000000238418579,
        1.0000004768371582,
        1.0000001192092896
      ],
      "translation": [
        1.3811513781547546e-06,
        12.334977149963379,
        -1.4633405953645706e-06
      ]
    },
    {
      "children": [
        39,
        40
      ],
      "name": "ORG-foot_R_032",
      "rotation": [
        -0.5273650288581848,
        -1.7653253792104806e-07,
        -1.1239557551334656e-07,
        0.849638819694519
      ],
      "scale": [
        1.0000003576278687,
        1.0000001192092896,
        1.0000001192092896
      ],
      "translation": [
        9.436784580429958e-07,
        14.478106498718262,
        1.2411003353918204e-06
      ]
    },
    {
      "name": "ORG-toe_R_033",
      "rotation": [
        2.7138781888425e-07,
        0.9612497687339783,
        -0.2756790220737457,
        6.207839646776847e-07
      ],
      "scale": [
        1.0,
        1.0000001192092896,
        0.9999998807907104
      ],
      "translation": [
        3.650813368949457e-06,
        4.119725227355957,
        3.0899691410013475e-06
      ]
    },
    {
      "name": "DEF-foot_R_034",
      "rotation": [
        3.427032311265066e-07,
        -5.1524828847959725e-09,
        -3.588596364512142e-10,
        1.0
      ],
      "scale": [
        1.0,
        0.9999998807907104,
        1.0000001192092896
      ],
      "translation": [
        -8.730458489480952e-08,
        7.854323484934866e-07,
        -2.780980139505118e-07
      ]
    },
    {
      "name": "DEF-shin_02_R_035",
      "rotation": [
        4.840781286929996e-08,
        2.7833425519929733e-07,
        -2.5099016198737445e-08,
        1.0
      ],
      "scale": [
        1.0000003576278687,
        1.0000001192092896,
        1.0
      ],
      "translation": [
        -3.7244156203541934e-08,
        7.239055156707764,
        2.008891897276044e-08
      ]
    },
    {
      "children": [
        43
      ],
      "name": "MCH-shin_01_R_036",
      "rotation": [
        6.330707691404314e-08,
        4.6546112741907564e-08,
        -5.379573053687636e-08,
        1.0
      ],
      "scale": [
        1.0000003576278687,
        1.0,
        1.0
      ],
      "translation": [
        1.440037351585488e-07,
        -1.7916736396728083e-06,
        -8.821189112495631e-09
      ]
    },
    {
      "children": [
        44
      ],
      "name": "MCH-shin_smth_01_R_037",
      "rotation": [
        -0.08475878089666367,
        -0.002879114355891943,
        -0.03629421815276146,
        0.9957361221313477
      ],
      "scale": [
        0.9999998211860657,
        1.000000238418579,
        0.9999999403953552
      ],
      "translation": [
        -0.4487908184528351,
        -6.062620639801025,
        1.0397508144378662
      ]
    },
    {
      "name": "DEF-shin_01_R_038",
      "rotation": [
        0.08475881814956665,
        0.0028789923526346684,
        0.03629426285624504,
        0.9957361221313477
      ],
      "scale": [
        0.9999998807907104,
        1.0,
        1.0000001192092896
      ],
      "translation": [
        1.368112862110138e-06,
        6.167477607727051,
        -1.127016730606556e-06
      ]
    },
    {
      "name": "DEF-thigh_02_R_039",
      "rotation": [
        -4.688351395998325e-08,
        3.21348306897562e-06,
        -1.538864147221375e-08,
        1.0
      ],
      "scale": [
        1.0000004768371582,
        1.0000005960464478,
        1.0000005960464478
      ],
      "translation": [
        3.180466592311859e-07,
        6.167491436004639,
        -2.2049061954021454e-07
      ]
    },
    {
      "name": "DEF-spine_040",
      "rotation": [
        -0.11339010298252106,
        -0.011583009734749794,
        0.046717602759599686,
        0.9923840165138245
      ],
      "scale": [
        0.9999998807907104,
        0.9999998807907104,
        0.9999996423721313
      ],
      "translation": [
        5.606561899185181e-07,
        9.194465637207031,
        1.3927929103374481e-06
      ]
    },
    {
      "children": [
        48
      ],
      "name": "MCH-shoulder_rh_ns_ch_R_041",
      "rotation": [
        -0.09653680771589279,
        -0.04057138040661812,
        0.5876396298408508,
        0.8023182153701782
      ],
      "scale": [
        0.9999995827674866,
        0.9999997019767761,
        0.9999997615814209
      ],
      "translation": [
        -8.773126602172852,
        -0.5889428853988647,
        55.494205474853516
      ]
    },
    {
      "name": "DEF-upper_arm_01_R_042",
      "rotation": [
        0.1671624332666397,
        -0.7519266605377197,
        0.04408629611134529,
        0.636175811290741
      ],
      "scale": [
        0.9999997615814209,
        0.9999996423721313,
        0.9999998807907104
      ],
      "translation": [
        -1.0728836059570313e-06,
        -5.960464477539063e-08,
        -5.804002285003662e-06
      ]
    },
    {
      "children": [
        50
      ],
      "name": "MCH-shoulder_rh_ns_ch_L_043",
      "rotation": [
        0.036578886210918427,
        -0.014713290147483349,
        -0.5758060812950134,
        0.8166350722312927
      ],
      "scale": [
        0.9999996423721313,
        0.9999998211860657,
        0.9999996423721313
      ],
      "translation": [
        7.166871547698975,
        -0.6443291902542114,
        57.82084655761719
      ]
    },
    {
      "name": "DEF-upper_arm_01_L_044",
      "rotation": [
        0.10826513171195984,
        0.6968502998352051,
        -0.13348731398582458,
        0.696318507194519
      ],
      "scale": [
        0.9999995827674866,
        0.9999995231628418,
        0.9999998807907104
      ],
      "translation": [
        2.3245811462402344e-06,
        -1.2665987014770508e-06,
        8.21426510810852e-07
      ]
    },
    {
      "name": "DEF-hips_045",
      "rotation": [
        0.7453262805938721,
        0.02780267409980297,
        -0.016513613983988762,
        0.6659151911735535
      ],
      "scale": [
        1.0,
        1.0000001192092896,
        0.9999996423721313
      ],
      "translation": [
        -1.059075951576233,
        0.18948668241500854,
        32.19880294799805
      ]
    },
    {
      "children": [
        53
      ],
      "name": "MCH-hips_rh_ns_ch_046",
      "rotation": [
        0.7453900575637817,
        0.02779935486614704,
        -0.016515344381332397,
        0.6658440232276917
      ],
      "scale": [
        0.9999997615814209,
        0.9999997019767761,
        0.9999998211860657
      ],
      "translation": [
        -1.356637954711914,
        -0.03820338845252991,
        29.394453048706055
      ]
    },
    {
      "name": "DEF-thigh_01_R_047",
      "rotation": [
        0.9934744238853455,
        0.06727192550897598,
        0.005954422522336245,
        0.0919121578335762
      ],
      "scale": [
        1.0000003576278687,
        1.000000238418579,
        1.000001311302185
      ],
      "translation": [
        4.118192009627819e-07,
        4.316680133342743e-07,
        1.9613653421401978e-06
      ]
    },
    {
      "matrix": [
        4.444999906718721,
        1.0710212583710641e-08,
        7.450581050835728e-09,
        0.0,
        7.450580587888658e-09,
        7.450580275959172e-07,
        -4.445000701546686,
        0.0,
        -1.0710215747690842e-08,
        4.445000701546685,
        7.450580275779649e-07,
        0.0,
        4.172325074571604e-06,
        -3.933905613550575e-06,
        1.4901175848222081e-07,
        1.0
      ],
      "name": "Object_54"
    },
    {
      "mesh": 0,
      "name": "Object_55",
      "skin": 0
    },
    {
      "mesh": 1,
      "name": "Object_56",
      "skin": 0
    },
    {
      "mesh": 2,
      "name": "Object_57",
      "skin": 0
    },
    {
      "mesh": 3,
      "name": "Object_58",
      "skin": 0
    },
    {
      "mesh": 4,
      "name": "Object_59",
      "skin": 0
    },
    {
      "mesh": 5,
      "name": "Object_60",
      "skin": 0
    }
  ],
  "samplers": [
    {
      "magFilter": 9729,
      "minFilter": 9987,
      "wrapS": 10497,
      "wrapT": 10497
    }
  ],
  "scene": 0,
  "scenes": [
    {
      "name": "Sketchfab_Scene",
      "nodes": [
        0
      ]
    }
  ],
  "skins": [
    {
      "inverseBindMatrices": 24,
      "joints": [
        5,
        6,
        7,
        8,
        9,
        10,
        11,
        12,
        13,
        14,
        15,
        16,
        17,
        18,
        19,
        20,
        21,
        22,
        23,
        24,
        25,
        26,
        27,
        28,
        29,
        30,
        31,
        32,
        33,
        34,
        35,
        36,
        37,
        38,
        39,
        40,
        41,
        42,
        43,
        44,
        45,
        46,
        47,
        48,
        49,
        50,
        51,
        52,
        53
      ],
      "skeleton": 5
    }
  ],
  "textures": [
    {
      "sampler": 0,
      "source": 0
    },
    {
      "sampler": 0,
      "source": 1
    },
    {
      "sampler": 0,
      "source": 2
    }
  ]
}
