# Blender v2.77 (sub 0) OBJ File: ''
# www.blender.org
mtllib Family Photo.mtl
o FamilyPhoto
v 0.174717 0.170127 -0.027738
v 0.173471 0.433116 -0.011139
v 0.200295 0.462023 -0.027738
v 0.158373 0.177330 -0.011139
v 0.147633 0.078724 -0.011139
v 0.172805 0.052494 -0.027738
v 0.153862 0.434237 -0.005101
v 0.180479 0.203572 0.031628
v 0.187040 0.455159 0.031628
v 0.157468 0.218274 -0.005101
v 0.167781 0.109000 -0.005101
v 0.187040 0.075817 0.031628
v 0.234506 0.181339 0.000431
v 0.232463 0.015593 0.043272
v 0.248048 0.000001 0.000254
v 0.228119 0.183111 0.043272
v 0.244046 0.515269 0.043272
v 0.261250 0.525496 -0.000217
v -0.108186 0.019461 0.013987
v -0.235359 0.018489 0.043272
v -0.250951 0.004276 0.019275
v -0.105292 0.025691 0.043272
v -0.236672 0.184671 0.019070
v -0.235359 0.513821 0.043272
v -0.250951 0.529194 0.019275
v -0.230298 0.186351 0.043272
v 0.093702 0.514506 0.006001
v 0.091129 0.507104 0.043272
v 0.069984 0.455159 0.031628
v -0.191508 0.470485 0.031628
v -0.186587 0.075817 0.031628
v -0.083348 0.082628 0.031628
v -0.180025 0.211395 0.031628
v -0.152555 0.094226 -0.005101
v -0.151905 0.210726 -0.005101
v -0.171256 0.432408 -0.005101
v -0.182449 0.188370 -0.027738
v -0.166660 0.095983 -0.011139
v -0.190535 0.073505 -0.027738
v -0.165628 0.193879 -0.011139
v -0.150567 0.450689 -0.011139
v -0.174780 0.479409 -0.027738
v 0.104982 0.460979 -0.027738
v 0.095113 0.441175 -0.011139
v 0.053502 0.429608 -0.005101
v -0.064291 0.104148 -0.005101
v -0.117676 0.074451 -0.027738
v -0.106870 0.090538 -0.011139
v -0.000659 0.267151 -0.005101
v 0.000732 0.266028 -0.011139
vt 0.2666 0.0059
vt 0.0089 0.3467
vt -0.0015 -0.0010
vt 0.4844 0.5005
vt -0.0068 1.0001
vt 0.6885 1.0009
vt 0.9937 0.3096
vt 0.9956 -0.0020
vt 1.0029 1.0019
vt 0.3721 0.5435
vt 1.0547 0.4805
vt 1.1357 0.5400
vt 0.3887 0.4971
vt 0.1342 0.4805
vt 0.0681 0.5420
vt 1.0713 0.9620
vt 0.4739 0.8708
vt 1.1270 0.8667
vt 0.5127 0.9514
vt 0.2286 0.9438
vt 0.1404 0.8704
vt 0.4089 0.6868
vt -0.0208 0.7798
vt -0.0665 0.7043
vt 0.4170 0.7621
vt 1.2852 0.7444
vt 1.3115 0.6636
vt -1.5703 0.4106
vt -1.9023 0.4702
vt -1.9463 0.4233
vt -1.5615 0.4629
vt -0.6777 0.4595
vt -0.6372 0.3813
vt -0.3899 0.5898
vt 0.4697 0.5322
vt 0.5107 0.5833
vt -0.3857 0.5457
vt -0.8252 0.5439
vt -0.8638 0.5950
vt 0.0356 0.2578
vt 0.8960 0.3228
vt -0.0054 0.3091
vt 0.8882 0.2563
vt 1.2881 0.2529
vt 1.3340 0.3267
vt 1.1338 0.1294
vt 0.8301 0.1387
vt 0.1506 0.1631
vt -1.7686 0.5867
vt -1.5000 0.5923
vt -0.7983 0.5894
vt 0.3538 0.4375
vt -0.3203 0.4312
vt -0.6738 0.4399
vt -0.6250 0.3428
vt -0.3230 0.3428
vt 0.2534 0.3618
vt -0.3762 0.7373
vt -0.6143 0.7906
vt -0.6753 0.7339
vt -0.3613 0.7839
vt 0.3042 0.8202
vt 0.3796 0.7609
vt 0.9243 0.4575
vt 1.1709 0.4614
vt 1.1006 0.5283
vt 0.8984 0.5095
vt 0.2585 0.5042
vt 0.1934 0.4365
vt 1.0449 0.0547
vt 0.7856 0.0547
vt 0.2037 0.0591
vt -0.8501 0.6848
vt -1.4512 0.6709
vt -1.6797 0.6599
vt -1.5977 0.2656
vt -0.9072 0.2109
vt -0.8374 0.2720
vt -1.5703 0.2197
vt -1.7246 0.2109
vt -1.7852 0.2661
vt 0.0667 0.7346
vt 0.2140 0.9369
vt 0.0774 0.9330
vt 0.4351 0.5686
vt 0.7935 0.9306
vt 0.0667 0.2124
vt 0.8047 0.7295
vt 0.6260 0.2026
vt 0.8052 0.2095
vn 0.0000 -0.0000 1.0000
vn -0.6858 0.0739 -0.7241
vn -0.5635 0.0494 -0.8246
vn -0.7029 0.0415 -0.7101
vn -0.6992 0.0560 -0.7127
vn -0.6939 0.0756 -0.7161
vn -0.5440 0.0088 -0.8390
vn -0.7581 0.0163 0.6520
vn -0.8487 -0.0483 0.5267
vn -0.7474 0.0195 0.6641
vn -0.8539 -0.0400 0.5190
vn -0.8589 -0.0811 0.5057
vn -0.9013 -0.0463 0.4308
vn 0.9852 -0.0072 0.1715
vn 0.9534 0.0645 0.2949
vn 0.9458 0.0703 0.3172
vn 0.9889 -0.0118 0.1479
vn 0.9384 -0.0702 0.3383
vn 0.9331 -0.0719 0.3522
vn 0.0201 -0.9743 0.2245
vn 0.1051 -0.8984 0.4265
vn 0.1109 -0.8850 0.4521
vn 0.0098 -0.9783 0.2071
vn -0.0292 -0.9771 0.2108
vn -0.0389 -0.9439 0.3280
vn -0.9611 0.0097 0.2762
vn -0.8539 -0.0348 0.5193
vn -0.8482 -0.0355 0.5284
vn -0.9671 0.0061 0.2543
vn -0.8652 0.0656 0.4972
vn -0.8546 0.0682 0.5148
vn 0.0544 0.8663 0.4965
vn -0.0179 0.9788 0.2040
vn 0.0563 0.8569 0.5124
vn -0.0145 0.9809 0.1938
vn -0.0559 0.9771 0.2053
vn -0.0564 0.9766 0.2074
vn -0.2398 -0.0044 0.9708
vn -0.2542 -0.0076 0.9671
vn -0.2566 -0.0067 0.9665
vn -0.2377 -0.0007 0.9713
vn -0.2122 0.0098 0.9772
vn -0.2103 0.0101 0.9776
vn -0.0024 -0.2136 0.9769
vn 0.0083 -0.2040 0.9789
vn 0.0107 -0.1999 0.9798
vn -0.0077 -0.2158 0.9764
vn -0.0125 -0.2139 0.9768
vn -0.0054 -0.2646 0.9643
vn -0.0060 0.2030 0.9792
vn -0.0121 0.2077 0.9781
vn -0.0115 0.2085 0.9780
vn -0.0121 0.2076 0.9781
vn -0.0020 0.2011 0.9796
vn 0.0057 0.1944 0.9809
vn 0.0057 0.1945 0.9809
vn 0.0058 0.1940 0.9810
vn 0.2306 -0.0035 0.9730
vn 0.2573 0.0045 0.9663
vn 0.2604 0.0040 0.9655
vn 0.2245 0.0024 0.9745
vn 0.2386 -0.0079 0.9711
vn 0.2403 -0.0072 0.9707
vn 0.7943 0.0271 0.6070
vn 0.7420 -0.0359 0.6695
vn 0.7526 -0.0298 0.6579
vn 0.7939 0.0315 0.6073
vn 0.8843 0.0422 0.4651
vn 0.8918 0.0395 0.4507
vn 0.6913 -0.0239 -0.7221
vn 0.6093 -0.0382 -0.7920
vn 0.5967 -0.0420 -0.8014
vn 0.7066 -0.0272 -0.7071
vn 0.5599 -0.0156 -0.8284
vn 0.5535 -0.0146 -0.8327
vn -0.0392 -0.6070 -0.7937
vn 0.0055 -0.5018 -0.8650
vn -0.0060 -0.5226 -0.8525
vn -0.0405 -0.6299 -0.7756
vn -0.0339 -0.5271 -0.8491
vn -0.0339 -0.5270 -0.8492
vn -0.0344 -0.5217 -0.8525
vn 0.0114 -0.8245 0.5658
vn 0.0083 -0.8606 0.5092
vn 0.0000 -0.8689 0.4950
vn 0.0084 -0.8226 0.5685
vn -0.0384 -0.7167 0.6963
vn -0.0413 -0.7050 0.7080
vn 0.0156 0.7584 0.6516
vn -0.0609 0.8762 0.4780
vn 0.0188 0.7468 0.6648
vn -0.0467 0.8723 0.4868
vn -0.0695 0.9062 0.4172
vn -0.0603 0.9136 0.4021
vn 0.0503 0.6953 -0.7170
vn 0.0422 0.5690 -0.8212
vn 0.0426 0.5631 -0.8253
vn 0.0444 0.7028 -0.7100
vn 0.0634 0.6957 -0.7155
vn -0.0078 0.5994 -0.8004
vn 0.4203 -0.0179 -0.9072
vn 0.3658 0.0282 -0.9303
vn 0.3795 0.0205 -0.9250
vn 0.4292 -0.0202 -0.9030
vn 0.4412 -0.0362 -0.8967
vn 0.4411 -0.0362 -0.8967
vn 0.4422 -0.0360 -0.8962
vn 0.0048 0.5331 -0.8460
vn 0.0046 0.6747 -0.7381
vn 0.0013 0.6877 -0.7260
vn 0.0121 0.5350 -0.8448
vn -0.0493 0.4674 -0.8827
vn -0.0624 0.4469 -0.8924
vn -0.0158 -0.5968 -0.8023
vn 0.0316 -0.5802 -0.8138
vn 0.0240 -0.5878 -0.8087
vn -0.0163 -0.6062 -0.7952
vn -0.0603 -0.5441 -0.8368
vn -0.0618 -0.5371 -0.8412
vn -0.6433 0.0296 -0.7651
vn -0.5353 -0.0217 -0.8444
vn -0.5496 -0.0172 -0.8352
vn -0.6544 0.0308 -0.7556
vn -0.6502 0.0494 -0.7582
vn -0.6487 0.0505 -0.7593
vn -0.0000 0.0000 -1.0000
usemtl FamilyPhoto_Inst
s 1
f 46/1/1 35/2/1 34/3/1
f 35/2/1 46/1/1 49/4/1
f 49/4/1 36/5/1 35/2/1
f 36/5/1 49/4/1 45/6/1
f 10/7/1 49/4/1 46/1/1
f 10/7/1 45/6/1 49/4/1
f 10/7/1 46/1/1 11/8/1
f 45/6/1 10/7/1 7/9/1
usemtl wood_34_inst
f 1/10/2 2/11/3 3/12/3
f 2/11/4 1/10/4 4/13/5
f 5/14/6 4/13/5 1/10/2
f 1/10/7 6/15/7 5/14/7
f 7/16/8 8/17/9 9/18/10
f 8/17/9 7/16/8 10/19/11
f 11/20/12 8/17/9 10/19/11
f 8/17/13 11/20/13 12/21/13
f 13/22/14 14/23/15 15/24/16
f 14/23/15 13/22/14 16/25/17
f 13/22/14 17/26/18 16/25/17
f 17/26/18 13/22/14 18/27/19
f 19/28/20 20/29/21 21/30/22
f 20/29/21 19/28/20 22/31/23
f 19/28/20 14/32/24 22/31/23
f 14/32/25 19/28/25 15/33/25
f 23/34/26 24/35/27 25/36/28
f 24/35/27 23/34/26 26/37/29
f 23/34/26 20/38/30 26/37/29
f 20/38/30 23/34/26 21/39/31
f 24/40/32 27/41/33 25/42/34
f 27/41/33 24/40/32 28/43/35
f 28/43/35 17/44/36 27/41/33
f 18/45/37 27/41/33 17/44/36
f 16/25/38 12/21/39 14/23/40
f 12/21/39 16/25/38 8/17/41
f 16/25/38 9/18/42 8/17/41
f 16/25/38 17/26/43 9/18/42
f 28/43/44 9/46/45 17/44/46
f 9/46/45 28/43/44 29/47/47
f 28/43/44 30/48/48 29/47/47
f 28/43/49 24/40/49 30/48/49
f 22/31/50 31/49/51 20/29/52
f 31/49/53 22/31/50 32/50/54
f 12/51/55 32/50/54 22/31/50
f 12/51/56 22/31/50 14/32/57
f 26/37/58 30/52/59 24/35/60
f 30/52/59 26/37/58 33/53/61
f 26/37/58 31/54/62 33/53/61
f 26/37/58 20/38/63 31/54/62
f 33/53/64 31/54/65 34/55/66
f 33/53/64 34/55/66 35/56/67
f 36/57/68 33/53/64 35/56/67
f 33/53/64 36/57/68 30/52/69
f 37/58/70 38/59/71 39/60/72
f 38/59/71 37/58/70 40/61/73
f 41/62/74 40/61/73 37/58/70
f 37/58/70 42/63/75 41/62/74
f 43/64/76 3/65/77 2/66/78
f 2/66/78 44/67/79 43/64/76
f 41/68/80 43/64/76 44/67/79
f 43/64/76 41/68/81 42/69/82
f 29/47/83 7/70/84 9/46/85
f 7/70/84 29/47/83 45/71/86
f 29/47/83 36/72/87 45/71/86
f 29/47/83 30/48/88 36/72/87
f 11/73/89 32/50/90 12/51/91
f 32/50/90 11/73/89 46/74/92
f 34/75/93 32/50/90 46/74/92
f 32/50/90 34/75/93 31/49/94
f 47/76/95 5/77/96 6/78/97
f 5/77/96 47/76/95 48/79/98
f 47/76/95 38/80/99 48/79/98
f 47/76/100 39/81/100 38/80/100
f 13/22/101 15/24/102 6/15/103
f 6/15/103 1/10/104 13/22/101
f 3/12/105 13/22/101 1/10/104
f 13/22/101 3/12/106 18/27/107
f 27/41/108 42/69/109 25/42/110
f 42/69/109 27/41/108 43/64/111
f 3/65/112 43/64/111 27/41/108
f 3/65/112 27/41/108 18/45/113
f 19/28/114 21/30/115 39/81/116
f 19/28/114 39/81/116 47/76/117
f 6/78/118 19/28/114 47/76/117
f 19/28/114 6/78/118 15/33/119
f 23/34/120 25/36/121 42/63/122
f 23/34/120 42/63/122 37/58/123
f 39/60/124 23/34/120 37/58/123
f 23/34/120 39/60/124 21/39/125
usemtl box_Inst
f 40/82/126 48/83/126 38/84/126
f 48/83/126 40/82/126 50/85/126
f 50/85/126 5/86/126 48/83/126
f 41/87/126 50/85/126 40/82/126
f 5/86/126 50/85/126 4/88/126
f 50/85/126 41/87/126 44/89/126
f 50/85/126 2/90/126 4/88/126
f 2/90/126 50/85/126 44/89/126
