{
  "accessors": [
    {
      "bufferView": 2,
      "componentType": 5126,
      "count": 923,
      "max": [
        4.599524021148682,
        2.3849549293518066,
        4.0520219802856445
      ],
      "min": [
        -5.153479099273682,
        -4.551506996154785,
        0.5727840065956116
      ],
      "type": "VEC3"
    },
    {
      "bufferView": 2,
      "byteOffset": 11076,
      "componentType": 5126,
      "count": 923,
      "max": [
        1.0,
        1.0,
        1.0
      ],
      "min": [
        -1.0,
        -1.0,
        -1.0
      ],
      "type": "VEC3"
    },
    {
      "bufferView": 1,
      "componentType": 5126,
      "count": 923,
      "max": [
        3.457210063934326,
        8.90707015991211
      ],
      "min": [
        -6.344870090484619,
        -2.750230073928833
      ],
      "type": "VEC2"
    },
    {
      "bufferView": 0,
      "componentType": 5125,
      "count": 1962,
      "type": "SCALAR"
    },
    {
      "bufferView": 2,
      "byteOffset": 22152,
      "componentType": 5126,
      "count": 3258,
      "max": [
        4.435021877288818,
        2.139954090118408,
        3.375272035598755
      ],
      "min": [
        -4.506577968597412,
        -3.929727077484131,
        -0.0219310000538826
      ],
      "type": "VEC3"
    },
    {
      "bufferView": 2,
      "byteOffset": 61248,
      "componentType": 5126,
      "count": 3258,
      "max": [
        1.0,
        1.0,
        1.0
      ],
      "min": [
        -1.0,
        -1.0,
        -1.0
      ],
      "type": "VEC3"
    },
    {
      "bufferView": 1,
      "byteOffset": 7384,
      "componentType": 5126,
      "count": 3258,
      "max": [
        1.8530399799346924,
        3.334820032119751
      ],
      "min": [
        -1.8750300407409668,
        -1.83256995677948
      ],
      "type": "VEC2"
    },
    {
      "bufferView": 0,
      "byteOffset": 7848,
      "componentType": 5125,
      "count": 9330,
      "type": "SCALAR"
    },
    {
      "bufferView": 2,
      "byteOffset": 100344,
      "componentType": 5126,
      "count": 410,
      "max": [
        2.0180230140686035,
        2.2081549167633057,
        3.541961908340454
      ],
      "min": [
        -4.669413089752197,
        -3.9621169567108154,
        0.5768129825592041
      ],
      "type": "VEC3"
    },
    {
      "bufferView": 2,
      "byteOffset": 105264,
      "componentType": 5126,
      "count": 410,
      "max": [
        0.9996387958526611,
        1.0,
        1.0
      ],
      "min": [
        -0.999647855758667,
        -1.0,
        -1.0
      ],
      "type": "VEC3"
    },
    {
      "bufferView": 1,
      "byteOffset": 33448,
      "componentType": 5126,
      "count": 410,
      "max": [
        1.688480019569397,
        1.0
      ],
      "min": [
        -0.05587799847126007,
        -0.5869100093841553
      ],
      "type": "VEC2"
    },
    {
      "bufferView": 0,
      "byteOffset": 45168,
      "componentType": 5125,
      "count": 807,
      "type": "SCALAR"
    }
  ],
  "asset": {
    "extras": {
      "author": "Juandaneitor master (https://sketchfab.com/juandavidchibuque)",
      "license": "CC-BY-4.0 (http://creativecommons.org/licenses/by/4.0/)",
      "source": "https://sketchfab.com/3d-models/hello-neighbor-desk-52d7769d614944078560f4f946634b3a",
      "title": "hello Neighbor desk"
    },
    "generator": "Sketchfab-13.68.0",
    "version": "2.0"
  },
  "bufferViews": [
    {
      "buffer": 0,
      "byteLength": 48396,
      "name": "floatBufferViews",
      "target": 34963
    },
    {
      "buffer": 0,
      "byteLength": 36728,
      "byteOffset": 48396,
      "byteStride": 8,
      "name": "floatBufferViews",
      "target": 34962
    },
    {
      "buffer": 0,
      "byteLength": 110184,
      "byteOffset": 85124,
      "byteStride": 12,
      "name": "floatBufferViews",
      "target": 34962
    }
  ],
  "buffers": [
    {
      "byteLength": 195308,
      "uri": "scene.bin"
    }
  ],
  "images": [
    {
      "uri": "textures/Union1Mtl_baseColor.png"
    },
    {
      "uri": "textures/Union2Mtl_baseColor.png"
    }
  ],
  "materials": [
    {
      "doubleSided": true,
      "name": "Material",
      "pbrMetallicRoughness": {
        "metallicFactor": 0.0,
        "roughnessFactor": 0.6
      }
    },
    {
      "doubleSided": true,
      "name": "Union1Mtl",
      "pbrMetallicRoughness": {
        "baseColorTexture": {
          "index": 0
        },
        "metallicFactor": 0.0,
        "roughnessFactor": 0.6
      }
    },
    {
      "doubleSided": true,
      "name": "Union2Mtl",
      "pbrMetallicRoughness": {
        "baseColorTexture": {
          "index": 1
        },
        "metallicFactor": 0.0,
        "roughnessFactor": 0.6
      }
    }
  ],
  "meshes": [
    {
      "name": "Object_0",
      "primitives": [
        {
          "attributes": {
            "NORMAL": 1,
            "POSITION": 0,
            "TEXCOORD_0": 2
          },
          "indices": 3,
          "material": 1,
          "mode": 4
        }
      ]
    },
    {
      "name": "Object_1",
      "primitives": [
        {
          "attributes": {
            "NORMAL": 5,
            "POSITION": 4,
            "TEXCOORD_0": 6
          },
          "indices": 7,
          "material": 0,
          "mode": 4
        }
      ]
    },
    {
      "name": "Object_2",
      "primitives": [
        {
          "attributes": {
            "NORMAL": 9,
            "POSITION": 8,
            "TEXCOORD_0": 10
          },
          "indices": 11,
          "material": 2,
          "mode": 4
        }
      ]
    }
  ],
  "nodes": [
    {
      "children": [
        1
      ],
      "matrix": [
        1.0,
        0.0,
        0.0,
        0.0,
        0.0,
        2.220446049250313e-16,
        -1.0,
        0.0,
        0.0,
        1.0,
        2.220446049250313e-16,
        0.0,
        0.0,
        0.0,
        0.0,
        1.0
      ],
      "name": "Sketchfab_model"
    },
    {
      "children": [
        2,
        3,
        4
      ],
      "name": "1f7ca73d420b41e9b4be1830607976d0.obj.cleaner.materialmerger.gles"
    },
    {
      "mesh": 0,
      "name": "Object_2"
    },
    {
      "mesh": 1,
      "name": "Object_3"
    },
    {
      "mesh": 2,
      "name": "Object_4"
    }
  ],
  "samplers": [
    {
      "magFilter": 9729,
      "minFilter": 9987,
      "wrapS": 10497,
      "wrapT": 10497
    }
  ],
  "scene": 0,
  "scenes": [
    {
      "name": "Sketchfab_Scene",
      "nodes": [
        0
      ]
    }
  ],
  "textures": [
    {
      "sampler": 0,
      "source": 0
    },
    {
      "sampler": 0,
      "source": 1
    }
  ]
}
