{
  "accessors": [
    {
      "bufferView": 2,
      "componentType": 5126,
      "count": 213,
      "max": [
        1.5134927034378052,
        1.5,
        3.420487880706787
      ],
      "min": [
        -1.4958890676498413,
        -1.5,
        -0.017748236656188965
      ],
      "type": "VEC3"
    },
    {
      "bufferView": 2,
      "byteOffset": 2556,
      "componentType": 5126,
      "count": 213,
      "max": [
        1.0,
        1.0,
        0.9999895691871643
      ],
      "min": [
        -0.9997724890708923,
        -1.0,
        -0.9999850392341614
      ],
      "type": "VEC3"
    },
    {
      "bufferView": 3,
      "componentType": 5126,
      "count": 213,
      "max": [
        0.99997878074646,
        1.0,
        0.9907494783401489,
        1.0
      ],
      "min": [
        -0.9999822974205017,
        -1.0,
        -0.5548200011253357,
        1.0
      ],
      "type": "VEC4"
    },
    {
      "bufferView": 1,
      "componentType": 5126,
      "count": 213,
      "max": [
        0.9936230182647705,
        0.9352765083312988
      ],
      "min": [
        0.006376985926181078,
        0.006376893725246191
      ],
      "type": "VEC2"
    },
    {
      "bufferView": 1,
      "byteOffset": 1704,
      "componentType": 5126,
      "count": 213,
      "max": [
        0.9936230182647705,
        0.9352765083312988
      ],
      "min": [
        0.006376985926181078,
        0.006376893725246191
      ],
      "type": "VEC2"
    },
    {
      "bufferView": 0,
      "componentType": 5125,
      "count": 654,
      "type": "SCALAR"
    }
  ],
  "asset": {
    "extras": {
      "author": "Viktor™ (https://sketchfab.com/miguelmoreno2009)",
      "license": "CC-BY-4.0 (http://creativecommons.org/licenses/by/4.0/)",
      "source": "https://sketchfab.com/3d-models/hello-neighbor-box-remastered-6e0ab10b96d946c2904da171aed4651f",
      "title": "Hello Neighbor Box Remastered"
    },
    "generator": "Sketchfab-16.59.0",
    "version": "2.0"
  },
  "bufferViews": [
    {
      "buffer": 0,
      "byteLength": 2616,
      "name": "floatBufferViews",
      "target": 34963
    },
    {
      "buffer": 0,
      "byteLength": 3408,
      "byteOffset": 2616,
      "byteStride": 8,
      "name": "floatBufferViews",
      "target": 34962
    },
    {
      "buffer": 0,
      "byteLength": 5112,
      "byteOffset": 6024,
      "byteStride": 12,
      "name": "floatBufferViews",
      "target": 34962
    },
    {
      "buffer": 0,
      "byteLength": 3408,
      "byteOffset": 11136,
      "byteStride": 16,
      "name": "floatBufferViews",
      "target": 34962
    }
  ],
  "buffers": [
    {
      "byteLength": 14544,
      "uri": "scene.bin"
    }
  ],
  "images": [
    {
      "uri": "textures/HLN_Main_baseColor.png"
    },
    {
      "uri": "textures/HLN_Main_metallicRoughness.png"
    },
    {
      "uri": "textures/HLN_Main_normal.png"
    }
  ],
  "materials": [
    {
      "doubleSided": true,
      "name": "HLN_Main",
      "normalTexture": {
        "index": 2
      },
      "pbrMetallicRoughness": {
        "baseColorTexture": {
          "index": 0
        },
        "metallicRoughnessTexture": {
          "index": 1
        }
      }
    }
  ],
  "meshes": [
    {
      "name": "Box_HLN_Main_0",
      "primitives": [
        {
          "attributes": {
            "NORMAL": 1,
            "POSITION": 0,
            "TANGENT": 2,
            "TEXCOORD_0": 3,
            "TEXCOORD_1": 4
          },
          "indices": 5,
          "material": 0,
          "mode": 4
        }
      ]
    }
  ],
  "nodes": [
    {
      "children": [
        1
      ],
      "matrix": [
        1.0,
        -2.8327693431939995e-16,
        2.8327693431939985e-16,
        0.0,
        -2.832769343193999e-16,
        -2.2204460492503126e-16,
        1.0,
        0.0,
        -2.832769343193999e-16,
        -1.0,
        -2.2204460492503136e-16,
        0.0,
        0.0,
        0.0,
        0.0,
        1.0
      ],
      "name": "Sketchfab_model"
    },
    {
      "children": [
        2
      ],
      "matrix": [
        0.009999999776482582,
        0.0,
        0.0,
        0.0,
        0.0,
        -0.009999999776482582,
        0.0,
        0.0,
        0.0,
        0.0,
        -0.009999999776482582,
        0.0,
        0.0,
        0.0,
        0.0,
        1.0
      ],
      "name": "Box.fbx"
    },
    {
      "children": [
        3
      ],
      "name": "RootNode"
    },
    {
      "children": [
        4
      ],
      "matrix": [
        10.0,
        0.0,
        0.0,
        0.0,
        0.0,
        10.0,
        0.0,
        0.0,
        0.0,
        0.0,
        10.0,
        0.0,
        0.0,
        0.0,
        0.0,
        1.0
      ],
      "name": "Box"
    },
    {
      "mesh": 0,
      "name": "Box_HLN_Main_0"
    }
  ],
  "samplers": [
    {
      "magFilter": 9729,
      "minFilter": 9987,
      "wrapS": 10497,
      "wrapT": 10497
    }
  ],
  "scene": 0,
  "scenes": [
    {
      "name": "Sketchfab_Scene",
      "nodes": [
        0
      ]
    }
  ],
  "textures": [
    {
      "sampler": 0,
      "source": 0
    },
    {
      "sampler": 0,
      "source": 1
    },
    {
      "sampler": 0,
      "source": 2
    }
  ]
}
