{
  "accessors": [
    {
      "bufferView": 2,
      "componentType": 5126,
      "count": 7,
      "max": [
        7.800004005432129,
        -2.1000030040740967,
        3.2000010013580322
      ],
      "min": [
        -0.30000001192092896,
        -11.000009536743164,
        3.1999900341033936
      ],
      "type": "VEC3"
    },
    {
      "bufferView": 2,
      "byteOffset": 84,
      "componentType": 5126,
      "count": 7,
      "max": [
        0.0,
        -0.0,
        1.0
      ],
      "min": [
        0.0,
        -0.0,
        1.0
      ],
      "type": "VEC3"
    },
    {
      "bufferView": 1,
      "componentType": 5126,
      "count": 7,
      "max": [
        0.8252000212669373,
        0.8777999877929688
      ],
      "min": [
        -4.808599948883057,
        -4.25
      ],
      "type": "VEC2"
    },
    {
      "bufferView": 0,
      "componentType": 5125,
      "count": 15,
      "type": "SCALAR"
    },
    {
      "bufferView": 2,
      "byteOffset": 168,
      "componentType": 5126,
      "count": 48,
      "max": [
        -4.973155975341797,
        9.716236114501953,
        3.163470983505249
      ],
      "min": [
        -6.626927852630615,
        7.7454400062561035,
        3.058007001876831
      ],
      "type": "VEC3"
    },
    {
      "bufferView": 2,
      "byteOffset": 744,
      "componentType": 5126,
      "count": 48,
      "max": [
        0.9855275750160217,
        0.9728193879127502,
        0.700315535068512
      ],
      "min": [
        -0.9958295822143555,
        -0.9970386028289795,
        -0.10250228643417358
      ],
      "type": "VEC3"
    },
    {
      "bufferView": 1,
      "byteOffset": 56,
      "componentType": 5126,
      "count": 48,
      "max": [
        2.6289000511169434,
        2.3682000637054443
      ],
      "min": [
        -0.2734000086784363,
        -0.6542999744415283
      ],
      "type": "VEC2"
    },
    {
      "bufferView": 0,
      "byteOffset": 60,
      "componentType": 5125,
      "count": 72,
      "type": "SCALAR"
    },
    {
      "bufferView": 2,
      "byteOffset": 1320,
      "componentType": 5126,
      "count": 238,
      "max": [
        6.000007152557373,
        15.599998474121094,
        15.370015144348145
      ],
      "min": [
        -4.300000190734863,
        -4.0500102043151855,
        6.400001049041748
      ],
      "type": "VEC3"
    },
    {
      "bufferView": 2,
      "byteOffset": 4176,
      "componentType": 5126,
      "count": 238,
      "max": [
        1.0,
        1.0,
        0.0
      ],
      "min": [
        -1.0,
        -1.0,
        -1.0
      ],
      "type": "VEC3"
    },
    {
      "bufferView": 1,
      "byteOffset": 440,
      "componentType": 5126,
      "count": 238,
      "max": [
        -0.9916999936103821,
        4.355500221252441
      ],
      "min": [
        -6.589799880981445,
        -5.882800102233887
      ],
      "type": "VEC2"
    },
    {
      "bufferView": 0,
      "byteOffset": 348,
      "componentType": 5125,
      "count": 744,
      "type": "SCALAR"
    },
    {
      "bufferView": 2,
      "byteOffset": 7032,
      "componentType": 5126,
      "count": 96,
      "max": [
        -2.5000009536743164,
        15.400007247924805,
        3.000019073486328
      ],
      "min": [
        -9.800004005432129,
        -13.000009536743164,
        -0.6000120043754578
      ],
      "type": "VEC3"
    },
    {
      "bufferView": 2,
      "byteOffset": 8184,
      "componentType": 5126,
      "count": 96,
      "max": [
        1.0,
        1.0,
        0.0
      ],
      "min": [
        -1.0,
        -1.0,
        0.0
      ],
      "type": "VEC3"
    },
    {
      "bufferView": 1,
      "byteOffset": 2344,
      "componentType": 5126,
      "count": 96,
      "max": [
        4.265600204467773,
        1.1755000352859497
      ],
      "min": [
        -4.277299880981445,
        -0.0010000000474974513
      ],
      "type": "VEC2"
    },
    {
      "bufferView": 0,
      "byteOffset": 3324,
      "componentType": 5125,
      "count": 258,
      "type": "SCALAR"
    },
    {
      "bufferView": 2,
      "byteOffset": 9336,
      "componentType": 5126,
      "count": 46,
      "max": [
        4.000001907348633,
        4.5999979972839355,
        6.200008869171143
      ],
      "min": [
        -7.800004005432129,
        -6.500009059906006,
        3.199995994567871
      ],
      "type": "VEC3"
    },
    {
      "bufferView": 2,
      "byteOffset": 9888,
      "componentType": 5126,
      "count": 46,
      "max": [
        1.0,
        1.0,
        0.0
      ],
      "min": [
        -1.0,
        -1.0,
        0.0
      ],
      "type": "VEC3"
    },
    {
      "bufferView": 1,
      "byteOffset": 3112,
      "componentType": 5126,
      "count": 46,
      "max": [
        8.22659969329834,
        1.1100000143051147
      ],
      "min": [
        -10.507800102233887,
        -0.11720000207424164
      ],
      "type": "VEC2"
    },
    {
      "bufferView": 0,
      "byteOffset": 4356,
      "componentType": 5125,
      "count": 90,
      "type": "SCALAR"
    },
    {
      "bufferView": 2,
      "byteOffset": 10440,
      "componentType": 5126,
      "count": 92,
      "max": [
        12.700010299682617,
        4.799983978271484,
        27.63507652282715
      ],
      "min": [
        -11.500004768371582,
        -7.500022888183594,
        6.4000020027160645
      ],
      "type": "VEC3"
    },
    {
      "bufferView": 2,
      "byteOffset": 11544,
      "componentType": 5126,
      "count": 92,
      "max": [
        1.0,
        1.0,
        0.0
      ],
      "min": [
        -1.0,
        -1.0,
        0.0
      ],
      "type": "VEC3"
    },
    {
      "bufferView": 1,
      "byteOffset": 3480,
      "componentType": 5126,
      "count": 92,
      "max": [
        15.484399795532227,
        2.4149999618530273
      ],
      "min": [
        -2.4647998809814453,
        -0.9345999956130981
      ],
      "type": "VEC2"
    },
    {
      "bufferView": 0,
      "byteOffset": 4716,
      "componentType": 5125,
      "count": 204,
      "type": "SCALAR"
    },
    {
      "bufferView": 2,
      "byteOffset": 12648,
      "componentType": 5126,
      "count": 87,
      "max": [
        9.700004577636719,
        13.900006294250488,
        3.000014066696167
      ],
      "min": [
        -12.300005912780762,
        -9.200005531311035,
        -6.000000212225132e-06
      ],
      "type": "VEC3"
    },
    {
      "bufferView": 2,
      "byteOffset": 13692,
      "componentType": 5126,
      "count": 87,
      "max": [
        1.0,
        1.0,
        0.0
      ],
      "min": [
        -1.0,
        -1.0,
        0.0
      ],
      "type": "VEC3"
    },
    {
      "bufferView": 1,
      "byteOffset": 4216,
      "componentType": 5126,
      "count": 87,
      "max": [
        6.601600170135498,
        5.492199897766113
      ],
      "min": [
        -2.9082000255584717,
        -2.8203001022338867
      ],
      "type": "VEC2"
    },
    {
      "bufferView": 0,
      "byteOffset": 5532,
      "componentType": 5125,
      "count": 243,
      "type": "SCALAR"
    },
    {
      "bufferView": 2,
      "byteOffset": 14736,
      "componentType": 5126,
      "count": 32,
      "max": [
        -2.3973729610443115,
        12.311351776123047,
        9.640024185180664
      ],
      "min": [
        -4.602630138397217,
        10.10609245300293,
        -0.3268919885158539
      ],
      "type": "VEC3"
    },
    {
      "bufferView": 2,
      "byteOffset": 15120,
      "componentType": 5126,
      "count": 32,
      "max": [
        1.0,
        1.0,
        1.0
      ],
      "min": [
        -1.0,
        -1.0,
        0.0
      ],
      "type": "VEC3"
    },
    {
      "bufferView": 1,
      "byteOffset": 4912,
      "componentType": 5126,
      "count": 32,
      "max": [
        2.388700008392334,
        2.3896000385284424
      ],
      "min": [
        -1.3896000385284424,
        -1.388700008392334
      ],
      "type": "VEC2"
    },
    {
      "bufferView": 0,
      "byteOffset": 6504,
      "componentType": 5125,
      "count": 66,
      "type": "SCALAR"
    },
    {
      "bufferView": 2,
      "byteOffset": 15504,
      "componentType": 5126,
      "count": 20,
      "max": [
        9.700004577636719,
        15.600001335144043,
        6.200016021728516
      ],
      "min": [
        -12.300004005432129,
        -11.200005531311035,
        6.199991226196289
      ],
      "type": "VEC3"
    },
    {
      "bufferView": 2,
      "byteOffset": 15744,
      "componentType": 5126,
      "count": 20,
      "max": [
        0.0,
        0.0,
        -1.0
      ],
      "min": [
        0.0,
        0.0,
        -1.0
      ],
      "type": "VEC3"
    },
    {
      "bufferView": 1,
      "byteOffset": 5168,
      "componentType": 5126,
      "count": 20,
      "max": [
        3.3945000171661377,
        3.4433999061584473
      ],
      "min": [
        -3.8965001106262207,
        -2.5409998893737793
      ],
      "type": "VEC2"
    },
    {
      "bufferView": 0,
      "byteOffset": 6768,
      "componentType": 5125,
      "count": 54,
      "type": "SCALAR"
    },
    {
      "bufferView": 2,
      "byteOffset": 15984,
      "componentType": 5126,
      "count": 462,
      "max": [
        9.500005722045898,
        15.40000057220459,
        3.000014066696167
      ],
      "min": [
        -12.100005149841309,
        -13.200005531311035,
        -0.6000120043754578
      ],
      "type": "VEC3"
    },
    {
      "bufferView": 2,
      "byteOffset": 21528,
      "componentType": 5126,
      "count": 462,
      "max": [
        1.0,
        0.868273913860321,
        0.0
      ],
      "min": [
        -1.0,
        -0.8682493567466736,
        -1.0
      ],
      "type": "VEC3"
    },
    {
      "bufferView": 1,
      "byteOffset": 5328,
      "componentType": 5126,
      "count": 462,
      "max": [
        17.1875,
        11.992199897766113
      ],
      "min": [
        -5.128900051116943,
        -4.581999778747559
      ],
      "type": "VEC2"
    },
    {
      "bufferView": 0,
      "byteOffset": 6984,
      "componentType": 5125,
      "count": 690,
      "type": "SCALAR"
    },
    {
      "bufferView": 2,
      "byteOffset": 27072,
      "componentType": 5126,
      "count": 529,
      "max": [
        9.700005531311035,
        15.599998474121094,
        6.200008869171143
      ],
      "min": [
        -12.300005912780762,
        -13.200005531311035,
        2.9999890327453613
      ],
      "type": "VEC3"
    },
    {
      "bufferView": 2,
      "byteOffset": 33420,
      "componentType": 5126,
      "count": 529,
      "max": [
        0.868273913860321,
        0.868273913860321,
        -0.49608510732650757
      ],
      "min": [
        -0.868273913860321,
        -0.868273913860321,
        -1.0
      ],
      "type": "VEC3"
    },
    {
      "bufferView": 1,
      "byteOffset": 9024,
      "componentType": 5126,
      "count": 529,
      "max": [
        48.25,
        32.78129959106445
      ],
      "min": [
        -23.968799591064453,
        -22.406299591064453
      ],
      "type": "VEC2"
    },
    {
      "bufferView": 0,
      "byteOffset": 9744,
      "componentType": 5125,
      "count": 834,
      "type": "SCALAR"
    },
    {
      "bufferView": 2,
      "byteOffset": 39768,
      "componentType": 5126,
      "count": 36,
      "max": [
        1.7000010013580322,
        15.40000057220459,
        6.200016021728516
      ],
      "min": [
        -4.500001907348633,
        12.399998664855957,
        3.2000129222869873
      ],
      "type": "VEC3"
    },
    {
      "bufferView": 2,
      "byteOffset": 40200,
      "componentType": 5126,
      "count": 36,
      "max": [
        1.0,
        1.0,
        0.0
      ],
      "min": [
        -1.0,
        -1.0,
        0.0
      ],
      "type": "VEC3"
    },
    {
      "bufferView": 1,
      "byteOffset": 13256,
      "componentType": 5126,
      "count": 36,
      "max": [
        3.8046998977661133,
        0.9937999844551086
      ],
      "min": [
        -2.4688000679016113,
        -0.02930000051856041
      ],
      "type": "VEC2"
    },
    {
      "bufferView": 0,
      "byteOffset": 13080,
      "componentType": 5125,
      "count": 90,
      "type": "SCALAR"
    },
    {
      "bufferView": 2,
      "byteOffset": 40632,
      "componentType": 5126,
      "count": 82,
      "max": [
        -0.20000000298023224,
        9.999999046325684,
        6.200009822845459
      ],
      "min": [
        -12.100005149841309,
        -5.0000081062316895,
        3.199995994567871
      ],
      "type": "VEC3"
    },
    {
      "bufferView": 2,
      "byteOffset": 41616,
      "componentType": 5126,
      "count": 82,
      "max": [
        1.0,
        1.0,
        0.0
      ],
      "min": [
        -1.0,
        -1.0,
        0.0
      ],
      "type": "VEC3"
    },
    {
      "bufferView": 1,
      "byteOffset": 13544,
      "componentType": 5126,
      "count": 82,
      "max": [
        8.968799591064453,
        1.0003999471664429
      ],
      "min": [
        -9.5,
        -0.03220000118017197
      ],
      "type": "VEC2"
    },
    {
      "bufferView": 0,
      "byteOffset": 13440,
      "componentType": 5125,
      "count": 180,
      "type": "SCALAR"
    },
    {
      "bufferView": 2,
      "byteOffset": 42600,
      "componentType": 5126,
      "count": 60,
      "max": [
        -4.85283088684082,
        9.872787475585938,
        3.2000129222869873
      ],
      "min": [
        -6.930631160736084,
        7.550792217254639,
        3.0000081062316895
      ],
      "type": "VEC3"
    },
    {
      "bufferView": 2,
      "byteOffset": 43320,
      "componentType": 5126,
      "count": 60,
      "max": [
        0.9513595104217529,
        0.9989915490150452,
        0.5340988039970398
      ],
      "min": [
        -0.9998039603233337,
        -0.9445586800575256,
        0.0
      ],
      "type": "VEC3"
    },
    {
      "bufferView": 1,
      "byteOffset": 14200,
      "componentType": 5126,
      "count": 60,
      "max": [
        5.781300067901611,
        0.30469998717308044
      ],
      "min": [
        -4.918000221252441,
        0.0034000000450760126
      ],
      "type": "VEC2"
    },
    {
      "bufferView": 0,
      "byteOffset": 14160,
      "componentType": 5125,
      "count": 90,
      "type": "SCALAR"
    },
    {
      "bufferView": 2,
      "byteOffset": 44040,
      "componentType": 5126,
      "count": 24,
      "max": [
        9.500003814697266,
        7.3000030517578125,
        6.200008869171143
      ],
      "min": [
        4.200002193450928,
        -0.3000060021877289,
        3.2000010013580322
      ],
      "type": "VEC3"
    },
    {
      "bufferView": 2,
      "byteOffset": 44328,
      "componentType": 5126,
      "count": 24,
      "max": [
        1.0,
        1.0,
        0.0
      ],
      "min": [
        -1.0,
        -1.0,
        0.0
      ],
      "type": "VEC3"
    },
    {
      "bufferView": 1,
      "byteOffset": 14680,
      "componentType": 5126,
      "count": 24,
      "max": [
        7.105500221252441,
        1.3217999935150146
      ],
      "min": [
        -7.066400051116943,
        -0.326200008392334
      ],
      "type": "VEC2"
    },
    {
      "bufferView": 0,
      "byteOffset": 14520,
      "componentType": 5125,
      "count": 48,
      "type": "SCALAR"
    },
    {
      "bufferView": 2,
      "byteOffset": 44616,
      "componentType": 5126,
      "count": 49,
      "max": [
        9.7000093460083,
        17.899995803833008,
        13.000025749206543
      ],
      "min": [
        1.5000020265579224,
        7.4999871253967285,
        6.400008201599121
      ],
      "type": "VEC3"
    },
    {
      "bufferView": 2,
      "byteOffset": 45204,
      "componentType": 5126,
      "count": 49,
      "max": [
        1.0,
        1.0,
        -0.0
      ],
      "min": [
        -1.0,
        -1.0,
        -0.0
      ],
      "type": "VEC3"
    },
    {
      "bufferView": 1,
      "byteOffset": 14872,
      "componentType": 5126,
      "count": 49,
      "max": [
        21.5,
        1.1593999862670898
      ],
      "min": [
        -6.078100204467773,
        -1.1542999744415283
      ],
      "type": "VEC2"
    },
    {
      "bufferView": 0,
      "byteOffset": 14712,
      "componentType": 5125,
      "count": 99,
      "type": "SCALAR"
    },
    {
      "bufferView": 2,
      "byteOffset": 45792,
      "componentType": 5126,
      "count": 66,
      "max": [
        1.5000009536743164,
        15.600007057189941,
        3.000019073486328
      ],
      "min": [
        -10.000004768371582,
        -13.200005531311035,
        -1.2000000424450263e-05
      ],
      "type": "VEC3"
    },
    {
      "bufferView": 2,
      "byteOffset": 46584,
      "componentType": 5126,
      "count": 66,
      "max": [
        1.0,
        1.0,
        0.0
      ],
      "min": [
        -1.0,
        -1.0,
        0.0
      ],
      "type": "VEC3"
    },
    {
      "bufferView": 1,
      "byteOffset": 15264,
      "componentType": 5126,
      "count": 66,
      "max": [
        4.902299880981445,
        2.5683999061584473
      ],
      "min": [
        -5.156300067901611,
        -0.12110000103712082
      ],
      "type": "VEC2"
    },
    {
      "bufferView": 0,
      "byteOffset": 15108,
      "componentType": 5125,
      "count": 192,
      "type": "SCALAR"
    },
    {
      "bufferView": 2,
      "byteOffset": 47376,
      "componentType": 5126,
      "count": 3,
      "max": [
        -4.300002098083496,
        -13.200005531311035,
        5.329988956451416
      ],
      "min": [
        -10.000004768371582,
        -13.200005531311035,
        3.199989080429077
      ],
      "type": "VEC3"
    },
    {
      "bufferView": 2,
      "byteOffset": 47412,
      "componentType": 5126,
      "count": 3,
      "max": [
        0.0,
        -1.0,
        0.0
      ],
      "min": [
        0.0,
        -1.0,
        0.0
      ],
      "type": "VEC3"
    },
    {
      "bufferView": 1,
      "byteOffset": 15792,
      "componentType": 5126,
      "count": 3,
      "max": [
        -8.031299591064453,
        1.6274000406265259
      ],
      "min": [
        -10.304699897766113,
        0.7771999835968018
      ],
      "type": "VEC2"
    },
    {
      "bufferView": 0,
      "byteOffset": 15876,
      "componentType": 5125,
      "count": 3,
      "type": "SCALAR"
    },
    {
      "bufferView": 2,
      "byteOffset": 47448,
      "componentType": 5126,
      "count": 66,
      "max": [
        6.8000030517578125,
        15.40000057220459,
        6.200016021728516
      ],
      "min": [
        0.0,
        4.7999958992004395,
        3.2000069618225098
      ],
      "type": "VEC3"
    },
    {
      "bufferView": 2,
      "byteOffset": 48240,
      "componentType": 5126,
      "count": 66,
      "max": [
        1.0,
        1.0,
        0.0
      ],
      "min": [
        -1.0,
        -1.0,
        0.0
      ],
      "type": "VEC3"
    },
    {
      "bufferView": 1,
      "byteOffset": 15816,
      "componentType": 5126,
      "count": 66,
      "max": [
        7.035200119018555,
        1.0750999450683594
      ],
      "min": [
        -6.785200119018555,
        -0.11620000004768372
      ],
      "type": "VEC2"
    },
    {
      "bufferView": 0,
      "byteOffset": 15888,
      "componentType": 5125,
      "count": 180,
      "type": "SCALAR"
    },
    {
      "bufferView": 2,
      "byteOffset": 49032,
      "componentType": 5126,
      "count": 14,
      "max": [
        -0.30000001192092896,
        -9.17000961303711,
        5.499989986419678
      ],
      "min": [
        -10.350004196166992,
        -13.70001220703125,
        3.1099889278411865
      ],
      "type": "VEC3"
    },
    {
      "bufferView": 2,
      "byteOffset": 49200,
      "componentType": 5126,
      "count": 14,
      "max": [
        0.5983988642692566,
        -0.0,
        0.801198422908783
      ],
      "min": [
        -0.5983988642692566,
        -0.5990234613418579,
        0.8007310032844543
      ],
      "type": "VEC3"
    },
    {
      "bufferView": 1,
      "byteOffset": 16344,
      "componentType": 5126,
      "count": 14,
      "max": [
        1.611299991607666,
        0.9988999962806702
      ],
      "min": [
        -0.5238999724388123,
        -0.6455000042915344
      ],
      "type": "VEC2"
    },
    {
      "bufferView": 0,
      "byteOffset": 16608,
      "componentType": 5125,
      "count": 24,
      "type": "SCALAR"
    },
    {
      "bufferView": 2,
      "byteOffset": 49368,
      "componentType": 5126,
      "count": 111,
      "max": [
        13.200008392333984,
        18.39999771118164,
        27.825075149536133
      ],
      "min": [
        -14.800006866455078,
        -11.701129913330078,
        6.200006008148193
      ],
      "type": "VEC3"
    },
    {
      "bufferView": 2,
      "byteOffset": 50700,
      "componentType": 5126,
      "count": 111,
      "max": [
        0.7156538963317871,
        0.6452068090438843,
        1.0
      ],
      "min": [
        -0.7103990316390991,
        -0.6431991457939148,
        -0.8895757794380188
      ],
      "type": "VEC3"
    },
    {
      "bufferView": 1,
      "byteOffset": 16456,
      "componentType": 5126,
      "count": 111,
      "max": [
        6.031300067901611,
        5.554699897766113
      ],
      "min": [
        -5.031300067901611,
        -4.820300102233887
      ],
      "type": "VEC2"
    },
    {
      "bufferView": 0,
      "byteOffset": 16704,
      "componentType": 5125,
      "count": 177,
      "type": "SCALAR"
    },
    {
      "bufferView": 2,
      "byteOffset": 52032,
      "componentType": 5126,
      "count": 20,
      "max": [
        5.8000030517578125,
        -0.5000060200691223,
        6.200003147125244
      ],
      "min": [
        -0.10000000149011612,
        -2.2000069618225098,
        3.2000010013580322
      ],
      "type": "VEC3"
    },
    {
      "bufferView": 2,
      "byteOffset": 52272,
      "componentType": 5126,
      "count": 20,
      "max": [
        1.0,
        1.0,
        0.0
      ],
      "min": [
        -1.0,
        -1.0,
        0.0
      ],
      "type": "VEC3"
    },
    {
      "bufferView": 1,
      "byteOffset": 17344,
      "componentType": 5126,
      "count": 20,
      "max": [
        6.464799880981445,
        1.2454999685287476
      ],
      "min": [
        -5.757800102233887,
        0.0020000000949949026
      ],
      "type": "VEC2"
    },
    {
      "bufferView": 0,
      "byteOffset": 17412,
      "componentType": 5125,
      "count": 30,
      "type": "SCALAR"
    },
    {
      "bufferView": 2,
      "byteOffset": 52512,
      "componentType": 5126,
      "count": 64,
      "max": [
        5.8000030517578125,
        -0.5,
        3.0000009536743164
      ],
      "min": [
        -4.300002098083496,
        -9.000009536743164,
        -6.000000212225132e-06
      ],
      "type": "VEC3"
    },
    {
      "bufferView": 2,
      "byteOffset": 53280,
      "componentType": 5126,
      "count": 64,
      "max": [
        1.0,
        1.0,
        0.0
      ],
      "min": [
        -1.0,
        -1.0,
        0.0
      ],
      "type": "VEC3"
    },
    {
      "bufferView": 1,
      "byteOffset": 17504,
      "componentType": 5126,
      "count": 64,
      "max": [
        6.61329984664917,
        1.0015000104904175
      ],
      "min": [
        -7.609399795532227,
        -0.576200008392334
      ],
      "type": "VEC2"
    },
    {
      "bufferView": 0,
      "byteOffset": 17532,
      "componentType": 5125,
      "count": 138,
      "type": "SCALAR"
    },
    {
      "bufferView": 2,
      "byteOffset": 54048,
      "componentType": 5126,
      "count": 58,
      "max": [
        7.800004005432129,
        -2.2000010013580322,
        6.200002193450928
      ],
      "min": [
        -0.10000000149011612,
        -11.000009536743164,
        3.1999900341033936
      ],
      "type": "VEC3"
    },
    {
      "bufferView": 2,
      "byteOffset": 54744,
      "componentType": 5126,
      "count": 58,
      "max": [
        1.0,
        1.0,
        0.0
      ],
      "min": [
        -1.0,
        -1.0,
        0.0
      ],
      "type": "VEC3"
    },
    {
      "bufferView": 1,
      "byteOffset": 18016,
      "componentType": 5126,
      "count": 58,
      "max": [
        5.902299880981445,
        0.996999979019165
      ],
      "min": [
        -3.2188000679016113,
        0.0020000000949949026
      ],
      "type": "VEC2"
    },
    {
      "bufferView": 0,
      "byteOffset": 18084,
      "componentType": 5125,
      "count": 180,
      "type": "SCALAR"
    },
    {
      "bufferView": 2,
      "byteOffset": 55440,
      "componentType": 5126,
      "count": 35,
      "max": [
        -4.500001907348633,
        -3.2000019550323486,
        6.200002193450928
      ],
      "min": [
        -9.800004005432129,
        -11.000009536743164,
        3.1999900341033936
      ],
      "type": "VEC3"
    },
    {
      "bufferView": 2,
      "byteOffset": 55860,
      "componentType": 5126,
      "count": 35,
      "max": [
        1.0,
        1.0,
        0.0
      ],
      "min": [
        -1.0,
        -1.0,
        0.0
      ],
      "type": "VEC3"
    },
    {
      "bufferView": 1,
      "byteOffset": 18480,
      "componentType": 5126,
      "count": 35,
      "max": [
        5.375,
        0.9929999709129333
      ],
      "min": [
        -3.1582000255584717,
        0.011699999682605267
      ],
      "type": "VEC2"
    },
    {
      "bufferView": 0,
      "byteOffset": 18804,
      "componentType": 5125,
      "count": 93,
      "type": "SCALAR"
    },
    {
      "bufferView": 2,
      "byteOffset": 56280,
      "componentType": 5126,
      "count": 20,
      "max": [
        1.7000010013580322,
        12.199999809265137,
        6.200015068054199
      ],
      "min": [
        -2.3000009059906006,
        7.499997138977051,
        3.200007915496826
      ],
      "type": "VEC3"
    },
    {
      "bufferView": 2,
      "byteOffset": 56520,
      "componentType": 5126,
      "count": 20,
      "max": [
        1.0,
        1.0,
        0.0
      ],
      "min": [
        -1.0,
        -1.0,
        0.0
      ],
      "type": "VEC3"
    },
    {
      "bufferView": 1,
      "byteOffset": 18760,
      "componentType": 5126,
      "count": 20,
      "max": [
        2.4530999660491943,
        0.9966999888420105
      ],
      "min": [
        -3.3046998977661133,
        0.0038999998942017555
      ],
      "type": "VEC2"
    },
    {
      "bufferView": 0,
      "byteOffset": 19176,
      "componentType": 5125,
      "count": 36,
      "type": "SCALAR"
    },
    {
      "bufferView": 2,
      "byteOffset": 56760,
      "componentType": 5126,
      "count": 72,
      "max": [
        9.700005531311035,
        15.600008010864258,
        1.8000000636675395e-05
      ],
      "min": [
        -12.300004005432129,
        -13.200005531311035,
        -0.6000120043754578
      ],
      "type": "VEC3"
    },
    {
      "bufferView": 2,
      "byteOffset": 57624,
      "componentType": 5126,
      "count": 72,
      "max": [
        1.0,
        1.0,
        0.0
      ],
      "min": [
        -1.0,
        -1.0,
        0.0
      ],
      "type": "VEC3"
    },
    {
      "bufferView": 1,
      "byteOffset": 18920,
      "componentType": 5126,
      "count": 72,
      "max": [
        22.140600204467773,
        0.46140000224113464
      ],
      "min": [
        -3.4296998977661133,
        -0.06449999660253525
      ],
      "type": "VEC2"
    },
    {
      "bufferView": 0,
      "byteOffset": 19320,
      "componentType": 5125,
      "count": 108,
      "type": "SCALAR"
    },
    {
      "bufferView": 2,
      "byteOffset": 58488,
      "componentType": 5126,
      "count": 1120,
      "max": [
        1.5398319959640503,
        15.64076042175293,
        2.9120190143585205
      ],
      "min": [
        -10.040714263916016,
        -13.240004539489746,
        0.10398799926042557
      ],
      "type": "VEC3"
    },
    {
      "bufferView": 2,
      "byteOffset": 71928,
      "componentType": 5126,
      "count": 1120,
      "max": [
        1.0,
        1.0,
        0.7502054572105408
      ],
      "min": [
        -1.0,
        -1.0,
        -0.7502054572105408
      ],
      "type": "VEC3"
    },
    {
      "bufferView": 1,
      "byteOffset": 19496,
      "componentType": 5126,
      "count": 1120,
      "max": [
        4.117199897766113,
        2.8838000297546387
      ],
      "min": [
        -0.9136000275611877,
        -1.4823999404907227
      ],
      "type": "VEC2"
    },
    {
      "bufferView": 0,
      "byteOffset": 19752,
      "componentType": 5125,
      "count": 1680,
      "type": "SCALAR"
    },
    {
      "bufferView": 2,
      "byteOffset": 85368,
      "componentType": 5126,
      "count": 32,
      "max": [
        1.3000010251998901,
        15.400007247924805,
        3.000019073486328
      ],
      "min": [
        -2.3000009059906006,
        7.5,
        6.000000212225132e-06
      ],
      "type": "VEC3"
    },
    {
      "bufferView": 2,
      "byteOffset": 85752,
      "componentType": 5126,
      "count": 32,
      "max": [
        1.0,
        1.0,
        0.0
      ],
      "min": [
        -1.0,
        -1.0,
        0.0
      ],
      "type": "VEC3"
    },
    {
      "bufferView": 1,
      "byteOffset": 28456,
      "componentType": 5126,
      "count": 32,
      "max": [
        10.109399795532227,
        2.502000093460083
      ],
      "min": [
        -9.117199897766113,
        -0.006800000090152025
      ],
      "type": "VEC2"
    },
    {
      "bufferView": 0,
      "byteOffset": 26472,
      "componentType": 5125,
      "count": 78,
      "type": "SCALAR"
    },
    {
      "bufferView": 2,
      "byteOffset": 86136,
      "componentType": 5126,
      "count": 4,
      "max": [
        1.8000010251998901,
        15.400003433227539,
        3.200018882751465
      ],
      "min": [
        -4.600002765655518,
        12.300002098083496,
        3.2000129222869873
      ],
      "type": "VEC3"
    },
    {
      "bufferView": 2,
      "byteOffset": 86184,
      "componentType": 5126,
      "count": 4,
      "max": [
        0.0,
        -0.0,
        1.0
      ],
      "min": [
        0.0,
        -0.0,
        1.0
      ],
      "type": "VEC3"
    },
    {
      "bufferView": 1,
      "byteOffset": 28712,
      "componentType": 5126,
      "count": 4,
      "max": [
        -2.7655999660491943,
        -0.023399999365210533
      ],
      "min": [
        -5.17579984664917,
        -5.0
      ],
      "type": "VEC2"
    },
    {
      "bufferView": 0,
      "byteOffset": 26784,
      "componentType": 5125,
      "count": 6,
      "type": "SCALAR"
    },
    {
      "bufferView": 2,
      "byteOffset": 86232,
      "componentType": 5126,
      "count": 14,
      "max": [
        9.600005149841309,
        15.500007629394531,
        1.8000000636675395e-05
      ],
      "min": [
        -7.3000030517578125,
        -0.4000000059604645,
        -0.0
      ],
      "type": "VEC3"
    },
    {
      "bufferView": 2,
      "byteOffset": 86400,
      "componentType": 5126,
      "count": 14,
      "max": [
        0.0,
        -0.0,
        1.0
      ],
      "min": [
        0.0,
        -0.0,
        1.0
      ],
      "type": "VEC3"
    },
    {
      "bufferView": 1,
      "byteOffset": 28744,
      "componentType": 5126,
      "count": 14,
      "max": [
        6.078100204467773,
        5.277299880981445
      ],
      "min": [
        -4.070300102233887,
        -4.871099948883057
      ],
      "type": "VEC2"
    },
    {
      "bufferView": 0,
      "byteOffset": 26808,
      "componentType": 5125,
      "count": 30,
      "type": "SCALAR"
    },
    {
      "bufferView": 2,
      "byteOffset": 86568,
      "componentType": 5126,
      "count": 26,
      "max": [
        1.8000010251998901,
        15.400003433227539,
        3.200018882751465
      ],
      "min": [
        -7.200005054473877,
        7.4000020027160645,
        3.200007915496826
      ],
      "type": "VEC3"
    },
    {
      "bufferView": 2,
      "byteOffset": 86880,
      "componentType": 5126,
      "count": 26,
      "max": [
        0.0,
        -0.0,
        1.0
      ],
      "min": [
        0.0,
        -0.0,
        1.0
      ],
      "type": "VEC3"
    },
    {
      "bufferView": 1,
      "byteOffset": 28856,
      "componentType": 5126,
      "count": 26,
      "max": [
        4.058599948883057,
        1.9980000257492065
      ],
      "min": [
        -5.17579984664917,
        -2.1777000427246094
      ],
      "type": "VEC2"
    },
    {
      "bufferView": 0,
      "byteOffset": 26928,
      "componentType": 5125,
      "count": 72,
      "type": "SCALAR"
    },
    {
      "bufferView": 2,
      "byteOffset": 87192,
      "componentType": 5126,
      "count": 16,
      "max": [
        -4.500001907348633,
        -5.200002193450928,
        -0.4000059962272644
      ],
      "min": [
        -9.800005912780762,
        -16.00000762939453,
        -0.6000180244445801
      ],
      "type": "VEC3"
    },
    {
      "bufferView": 2,
      "byteOffset": 87384,
      "componentType": 5126,
      "count": 16,
      "max": [
        1.0,
        -0.0,
        1.0
      ],
      "min": [
        -1.0,
        -0.06880209594964981,
        0.0
      ],
      "type": "VEC3"
    },
    {
      "bufferView": 1,
      "byteOffset": 29064,
      "componentType": 5126,
      "count": 16,
      "max": [
        1.1591999530792236,
        0.9997000098228455
      ],
      "min": [
        -3.2167999744415283,
        -7.531300067901611
      ],
      "type": "VEC2"
    },
    {
      "bufferView": 0,
      "byteOffset": 27216,
      "componentType": 5125,
      "count": 24,
      "type": "SCALAR"
    },
    {
      "bufferView": 2,
      "byteOffset": 87576,
      "componentType": 5126,
      "count": 28,
      "max": [
        1.400001049041748,
        4.600001811981201,
        3.000006914138794
      ],
      "min": [
        -4.300002098083496,
        -0.30000099539756775,
        -0.0
      ],
      "type": "VEC3"
    },
    {
      "bufferView": 2,
      "byteOffset": 87912,
      "componentType": 5126,
      "count": 28,
      "max": [
        1.0,
        1.0,
        0.0
      ],
      "min": [
        -1.0,
        -1.0,
        0.0
      ],
      "type": "VEC3"
    },
    {
      "bufferView": 1,
      "byteOffset": 29192,
      "componentType": 5126,
      "count": 28,
      "max": [
        4.63670015335083,
        1.1095999479293823
      ],
      "min": [
        -4.308599948883057,
        -0.15629999339580536
      ],
      "type": "VEC2"
    },
    {
      "bufferView": 0,
      "byteOffset": 27312,
      "componentType": 5125,
      "count": 60,
      "type": "SCALAR"
    },
    {
      "bufferView": 2,
      "byteOffset": 88248,
      "componentType": 5126,
      "count": 43,
      "max": [
        -4.700002193450928,
        15.40000057220459,
        6.200016021728516
      ],
      "min": [
        -7.200003147125244,
        7.499997138977051,
        3.200007915496826
      ],
      "type": "VEC3"
    },
    {
      "bufferView": 2,
      "byteOffset": 88764,
      "componentType": 5126,
      "count": 43,
      "max": [
        1.0,
        1.0,
        0.0
      ],
      "min": [
        -1.0,
        -1.0,
        0.0
      ],
      "type": "VEC3"
    },
    {
      "bufferView": 1,
      "byteOffset": 29416,
      "componentType": 5126,
      "count": 43,
      "max": [
        5.484399795532227,
        1.1275999546051025
      ],
      "min": [
        -3.539099931716919,
        -0.1738000065088272
      ],
      "type": "VEC2"
    },
    {
      "bufferView": 0,
      "byteOffset": 27552,
      "componentType": 5125,
      "count": 123,
      "type": "SCALAR"
    },
    {
      "bufferView": 2,
      "byteOffset": 89280,
      "componentType": 5126,
      "count": 28,
      "max": [
        9.500003814697266,
        4.600001811981201,
        3.000006914138794
      ],
      "min": [
        1.6000009775161743,
        -0.30000099539756775,
        -0.0
      ],
      "type": "VEC3"
    },
    {
      "bufferView": 2,
      "byteOffset": 89616,
      "componentType": 5126,
      "count": 28,
      "max": [
        1.0,
        1.0,
        0.0
      ],
      "min": [
        -1.0,
        -1.0,
        0.0
      ],
      "type": "VEC3"
    },
    {
      "bufferView": 1,
      "byteOffset": 29760,
      "componentType": 5126,
      "count": 28,
      "max": [
        8.156299591064453,
        1.2573000192642212
      ],
      "min": [
        -5.308599948883057,
        -0.32030001282691956
      ],
      "type": "VEC2"
    },
    {
      "bufferView": 0,
      "byteOffset": 28044,
      "componentType": 5125,
      "count": 66,
      "type": "SCALAR"
    },
    {
      "bufferView": 2,
      "byteOffset": 89952,
      "componentType": 5126,
      "count": 28,
      "max": [
        -4.500001907348633,
        4.600001811981201,
        3.000006914138794
      ],
      "min": [
        -9.400004386901855,
        -2.3000009059906006,
        -0.0
      ],
      "type": "VEC3"
    },
    {
      "bufferView": 2,
      "byteOffset": 90288,
      "componentType": 5126,
      "count": 28,
      "max": [
        1.0,
        1.0,
        0.0
      ],
      "min": [
        -1.0,
        -1.0,
        0.0
      ],
      "type": "VEC3"
    },
    {
      "bufferView": 1,
      "byteOffset": 29984,
      "componentType": 5126,
      "count": 28,
      "max": [
        9.796899795532227,
        1.232200026512146
      ],
      "min": [
        -2.423799991607666,
        -0.3212999999523163
      ],
      "type": "VEC2"
    },
    {
      "bufferView": 0,
      "byteOffset": 28308,
      "componentType": 5125,
      "count": 60,
      "type": "SCALAR"
    },
    {
      "bufferView": 2,
      "byteOffset": 90624,
      "componentType": 5126,
      "count": 34,
      "max": [
        5.8000030517578125,
        13.700005531311035,
        3.000014066696167
      ],
      "min": [
        1.5000009536743164,
        7.5,
        6.000000212225132e-06
      ],
      "type": "VEC3"
    },
    {
      "bufferView": 2,
      "byteOffset": 91032,
      "componentType": 5126,
      "count": 34,
      "max": [
        1.0,
        1.0,
        -0.0
      ],
      "min": [
        -1.0,
        -1.0,
        -0.0
      ],
      "type": "VEC3"
    },
    {
      "bufferView": 1,
      "byteOffset": 30208,
      "componentType": 5126,
      "count": 34,
      "max": [
        3.5215001106262207,
        0.9983999729156494
      ],
      "min": [
        -3.5313000679016113,
        -0.008799999952316284
      ],
      "type": "VEC2"
    },
    {
      "bufferView": 0,
      "byteOffset": 28548,
      "componentType": 5125,
      "count": 90,
      "type": "SCALAR"
    },
    {
      "bufferView": 2,
      "byteOffset": 91440,
      "componentType": 5126,
      "count": 32,
      "max": [
        -0.30000001192092896,
        -6.700006008148193,
        6.1999969482421875
      ],
      "min": [
        -4.300002098083496,
        -9.000009536743164,
        3.1999940872192383
      ],
      "type": "VEC3"
    },
    {
      "bufferView": 2,
      "byteOffset": 91824,
      "componentType": 5126,
      "count": 32,
      "max": [
        1.0,
        1.0,
        0.0
      ],
      "min": [
        -1.0,
        -1.0,
        0.0
      ],
      "type": "VEC3"
    },
    {
      "bufferView": 1,
      "byteOffset": 30480,
      "componentType": 5126,
      "count": 32,
      "max": [
        3.4102001190185547,
        1.1862000226974487
      ],
      "min": [
        -2.4551000595092773,
        -0.20999999344348907
      ],
      "type": "VEC2"
    },
    {
      "bufferView": 0,
      "byteOffset": 28908,
      "componentType": 5125,
      "count": 78,
      "type": "SCALAR"
    },
    {
      "bufferView": 2,
      "byteOffset": 92208,
      "componentType": 5126,
      "count": 99,
      "max": [
        9.500003814697266,
        10.000004768371582,
        3.0000131130218506
      ],
      "min": [
        -12.100005149841309,
        -5.000002861022949,
        -6.000000212225132e-06
      ],
      "type": "VEC3"
    },
    {
      "bufferView": 2,
      "byteOffset": 93396,
      "componentType": 5126,
      "count": 99,
      "max": [
        1.0,
        1.0,
        -0.0
      ],
      "min": [
        -1.0,
        -1.0,
        -0.0
      ],
      "type": "VEC3"
    },
    {
      "bufferView": 1,
      "byteOffset": 30736,
      "componentType": 5126,
      "count": 99,
      "max": [
        17.906299591064453,
        2.0439000129699707
      ],
      "min": [
        -11.867199897766113,
        -1.9472999572753906
      ],
      "type": "VEC2"
    },
    {
      "bufferView": 0,
      "byteOffset": 29220,
      "componentType": 5125,
      "count": 255,
      "type": "SCALAR"
    },
    {
      "bufferView": 2,
      "byteOffset": 94584,
      "componentType": 5126,
      "count": 36,
      "max": [
        9.500003814697266,
        15.400003433227539,
        3.200018882751465
      ],
      "min": [
        -12.200005531311035,
        -11.100010871887207,
        3.1999900341033936
      ],
      "type": "VEC3"
    },
    {
      "bufferView": 2,
      "byteOffset": 95016,
      "componentType": 5126,
      "count": 36,
      "max": [
        0.0,
        -0.0,
        1.0
      ],
      "min": [
        0.0,
        -0.0,
        1.0
      ],
      "type": "VEC3"
    },
    {
      "bufferView": 1,
      "byteOffset": 31528,
      "componentType": 5126,
      "count": 36,
      "max": [
        3.798799991607666,
        3.2832000255584717
      ],
      "min": [
        -2.6426000595092773,
        -2.6875
      ],
      "type": "VEC2"
    },
    {
      "bufferView": 0,
      "byteOffset": 30240,
      "componentType": 5125,
      "count": 78,
      "type": "SCALAR"
    },
    {
      "bufferView": 2,
      "byteOffset": 95448,
      "componentType": 5126,
      "count": 20,
      "max": [
        9.700005531311035,
        13.800005912780762,
        1.2000000424450263e-05
      ],
      "min": [
        -12.200004577636719,
        -9.200003623962402,
        -6.000000212225132e-06
      ],
      "type": "VEC3"
    },
    {
      "bufferView": 2,
      "byteOffset": 95688,
      "componentType": 5126,
      "count": 20,
      "max": [
        0.0,
        -0.0,
        1.0
      ],
      "min": [
        0.0,
        -0.0,
        1.0
      ],
      "type": "VEC3"
    },
    {
      "bufferView": 1,
      "byteOffset": 31816,
      "componentType": 5126,
      "count": 20,
      "max": [
        4.085899829864502,
        3.3534998893737793
      ],
      "min": [
        -2.0977001190185547,
        -2.0409998893737793
      ],
      "type": "VEC2"
    },
    {
      "bufferView": 0,
      "byteOffset": 30552,
      "componentType": 5125,
      "count": 48,
      "type": "SCALAR"
    },
    {
      "bufferView": 2,
      "byteOffset": 95928,
      "componentType": 5126,
      "count": 5706,
      "max": [
        13.200008392333984,
        18.399999618530273,
        27.8250789642334
      ],
      "min": [
        -14.800007820129395,
        -11.701128005981445,
        5.209996223449707
      ],
      "type": "VEC3"
    },
    {
      "bufferView": 2,
      "byteOffset": 164400,
      "componentType": 5126,
      "count": 5706,
      "max": [
        1.0,
        1.0,
        1.0
      ],
      "min": [
        -1.0,
        -1.0,
        -1.0
      ],
      "type": "VEC3"
    },
    {
      "bufferView": 1,
      "byteOffset": 31976,
      "componentType": 5126,
      "count": 5706,
      "max": [
        27.015600204467773,
        7.23829984664917
      ],
      "min": [
        -22.1875,
        -5.484399795532227
      ],
      "type": "VEC2"
    },
    {
      "bufferView": 0,
      "byteOffset": 30744,
      "componentType": 5125,
      "count": 9927,
      "type": "SCALAR"
    },
    {
      "bufferView": 2,
      "byteOffset": 232872,
      "componentType": 5126,
      "count": 2079,
      "max": [
        9.800004005432129,
        17.799734115600586,
        10.90269947052002
      ],
      "min": [
        -14.1993408203125,
        -13.310006141662598,
        -0.6000139713287354
      ],
      "type": "VEC3"
    },
    {
      "bufferView": 2,
      "byteOffset": 257820,
      "componentType": 5126,
      "count": 2079,
      "max": [
        1.0,
        1.0,
        1.0
      ],
      "min": [
        -1.0,
        -1.0,
        -1.0
      ],
      "type": "VEC3"
    },
    {
      "bufferView": 1,
      "byteOffset": 77624,
      "componentType": 5126,
      "count": 2079,
      "max": [
        8.695300102233887,
        2.599600076675415
      ],
      "min": [
        -1.5995999574661255,
        -2.5977001190185547
      ],
      "type": "VEC2"
    },
    {
      "bufferView": 0,
      "byteOffset": 70452,
      "componentType": 5125,
      "count": 3207,
      "type": "SCALAR"
    },
    {
      "bufferView": 2,
      "byteOffset": 282768,
      "componentType": 5126,
      "count": 1571,
      "max": [
        10.690004348754883,
        15.600001335144043,
        7.4000091552734375
      ],
      "min": [
        -12.300005912780762,
        -13.700014114379883,
        2.9399890899658203
      ],
      "type": "VEC3"
    },
    {
      "bufferView": 2,
      "byteOffset": 301620,
      "componentType": 5126,
      "count": 1571,
      "max": [
        1.0,
        1.0,
        1.0
      ],
      "min": [
        -1.0,
        -1.0,
        -1.0
      ],
      "type": "VEC3"
    },
    {
      "bufferView": 1,
      "byteOffset": 94256,
      "componentType": 5126,
      "count": 1571,
      "max": [
        10.0625,
        4.210899829864502
      ],
      "min": [
        -11.08590030670166,
        -2.960900068283081
      ],
      "type": "VEC2"
    },
    {
      "bufferView": 0,
      "byteOffset": 83280,
      "componentType": 5125,
      "count": 2421,
      "type": "SCALAR"
    },
    {
      "bufferView": 2,
      "byteOffset": 320472,
      "componentType": 5126,
      "count": 890,
      "max": [
        9.500003814697266,
        15.400007247924805,
        0.10001800209283829
      ],
      "min": [
        -12.100005149841309,
        -13.000005722045898,
        -0.40001198649406433
      ],
      "type": "VEC3"
    },
    {
      "bufferView": 2,
      "byteOffset": 331152,
      "componentType": 5126,
      "count": 890,
      "max": [
        1.0,
        1.0,
        1.0
      ],
      "min": [
        -1.0,
        -1.0,
        0.0
      ],
      "type": "VEC3"
    },
    {
      "bufferView": 1,
      "byteOffset": 106824,
      "componentType": 5126,
      "count": 890,
      "max": [
        2.4198999404907227,
        2.4170000553131104
      ],
      "min": [
        -1.4198999404907227,
        -1.4179999828338623
      ],
      "type": "VEC2"
    },
    {
      "bufferView": 0,
      "byteOffset": 92964,
      "componentType": 5125,
      "count": 1332,
      "type": "SCALAR"
    },
    {
      "bufferView": 2,
      "byteOffset": 341832,
      "componentType": 5126,
      "count": 792,
      "max": [
        9.500003814697266,
        15.399998664855957,
        3.3000190258026123
      ],
      "min": [
        -12.100005149841309,
        -11.000009536743164,
        3.199989080429077
      ],
      "type": "VEC3"
    },
    {
      "bufferView": 2,
      "byteOffset": 351336,
      "componentType": 5126,
      "count": 792,
      "max": [
        1.0,
        1.0,
        1.0
      ],
      "min": [
        -1.0,
        -1.0,
        0.0
      ],
      "type": "VEC3"
    },
    {
      "bufferView": 1,
      "byteOffset": 113944,
      "componentType": 5126,
      "count": 792,
      "max": [
        1.9463000297546387,
        1.9501999616622925
      ],
      "min": [
        -0.948199987411499,
        -0.9502000212669373
      ],
      "type": "VEC2"
    },
    {
      "bufferView": 0,
      "byteOffset": 98292,
      "componentType": 5125,
      "count": 1188,
      "type": "SCALAR"
    },
    {
      "bufferView": 2,
      "byteOffset": 360840,
      "componentType": 5126,
      "count": 366,
      "max": [
        12.700005531311035,
        17.899995803833008,
        25.30002212524414
      ],
      "min": [
        -14.300004959106445,
        -11.200017929077148,
        6.1999969482421875
      ],
      "type": "VEC3"
    },
    {
      "bufferView": 2,
      "byteOffset": 365232,
      "componentType": 5126,
      "count": 366,
      "max": [
        1.0,
        1.0,
        0.0
      ],
      "min": [
        -1.0,
        -1.0,
        -1.0
      ],
      "type": "VEC3"
    },
    {
      "bufferView": 1,
      "byteOffset": 120280,
      "componentType": 5126,
      "count": 366,
      "max": [
        16.593799591064453,
        3.013700008392334
      ],
      "min": [
        -7.757800102233887,
        -1.8652000427246094
      ],
      "type": "VEC2"
    },
    {
      "bufferView": 0,
      "byteOffset": 103044,
      "componentType": 5125,
      "count": 894,
      "type": "SCALAR"
    },
    {
      "bufferView": 2,
      "byteOffset": 369624,
      "componentType": 5126,
      "count": 132,
      "max": [
        9.700004577636719,
        15.600001335144043,
        6.200016021728516
      ],
      "min": [
        -12.300005912780762,
        -11.200005531311035,
        3.1999900341033936
      ],
      "type": "VEC3"
    },
    {
      "bufferView": 2,
      "byteOffset": 371208,
      "componentType": 5126,
      "count": 132,
      "max": [
        1.0,
        1.0,
        0.0
      ],
      "min": [
        -1.0,
        -1.0,
        0.0
      ],
      "type": "VEC3"
    },
    {
      "bufferView": 1,
      "byteOffset": 123208,
      "componentType": 5126,
      "count": 132,
      "max": [
        12.765600204467773,
        0.8313999772071838
      ],
      "min": [
        -5.144499778747559,
        0.19089999794960022
      ],
      "type": "VEC2"
    },
    {
      "bufferView": 0,
      "byteOffset": 106620,
      "componentType": 5125,
      "count": 396,
      "type": "SCALAR"
    },
    {
      "bufferView": 2,
      "byteOffset": 372792,
      "componentType": 5126,
      "count": 25,
      "max": [
        12.700005531311035,
        17.899995803833008,
        6.400021076202393
      ],
      "min": [
        -14.300004959106445,
        -11.20001220703125,
        6.399991989135742
      ],
      "type": "VEC3"
    },
    {
      "bufferView": 2,
      "byteOffset": 373092,
      "componentType": 5126,
      "count": 25,
      "max": [
        0.0,
        -0.0,
        1.0
      ],
      "min": [
        0.0,
        -0.0,
        1.0
      ],
      "type": "VEC3"
    },
    {
      "bufferView": 1,
      "byteOffset": 124264,
      "componentType": 5126,
      "count": 25,
      "max": [
        4.234399795532227,
        4.939499855041504
      ],
      "min": [
        -4.414100170135498,
        -3.0664000511169434
      ],
      "type": "VEC2"
    },
    {
      "bufferView": 0,
      "byteOffset": 108204,
      "componentType": 5125,
      "count": 75,
      "type": "SCALAR"
    },
    {
      "bufferView": 2,
      "byteOffset": 373392,
      "componentType": 5126,
      "count": 8,
      "max": [
        -0.2999989986419678,
        10.0,
        1.2000000424450263e-05
      ],
      "min": [
        -7.40000581741333,
        -11.550004005432129,
        -1.2999999853491317e-05
      ],
      "type": "VEC3"
    },
    {
      "bufferView": 2,
      "byteOffset": 373488,
      "componentType": 5126,
      "count": 8,
      "max": [
        0.0,
        -0.0,
        1.0
      ],
      "min": [
        0.0,
        -0.0,
        1.0
      ],
      "type": "VEC3"
    },
    {
      "bufferView": 1,
      "byteOffset": 124464,
      "componentType": 5126,
      "count": 8,
      "max": [
        1.1260000467300415,
        0.01810000091791153
      ],
      "min": [
        -1.0879000425338745,
        -1.4375
      ],
      "type": "VEC2"
    },
    {
      "bufferView": 0,
      "byteOffset": 108504,
      "componentType": 5125,
      "count": 12,
      "type": "SCALAR"
    },
    {
      "bufferView": 2,
      "byteOffset": 373584,
      "componentType": 5126,
      "count": 74,
      "max": [
        8.000003814697266,
        15.599998474121094,
        6.200002193450928
      ],
      "min": [
        -10.350007057189941,
        -13.700014114379883,
        2.9399890899658203
      ],
      "type": "VEC3"
    },
    {
      "bufferView": 2,
      "byteOffset": 374472,
      "componentType": 5126,
      "count": 74,
      "max": [
        1.0,
        1.0,
        0.8008152842521667
      ],
      "min": [
        -1.0,
        -1.0,
        -1.0
      ],
      "type": "VEC3"
    },
    {
      "bufferView": 1,
      "byteOffset": 124528,
      "componentType": 5126,
      "count": 74,
      "max": [
        2.622999906539917,
        2.575200080871582
      ],
      "min": [
        -9.781299591064453,
        -2.5897998809814453
      ],
      "type": "VEC2"
    },
    {
      "bufferView": 0,
      "byteOffset": 108552,
      "componentType": 5125,
      "count": 204,
      "type": "SCALAR"
    }
  ],
  "asset": {
    "extras": {
      "author": "Mr Peterson (https://sketchfab.com/SirenFace)",
      "license": "CC-BY-4.0 (http://creativecommons.org/licenses/by/4.0/)",
      "source": "https://sketchfab.com/3d-models/hello-neighbor-alpha-1-house-9f53c77b6a854bf49ee64d361478a96f",
      "title": "Hello neighbor Alpha 1 house"
    },
    "generator": "Sketchfab-12.74.0",
    "version": "2.0"
  },
  "bufferViews": [
    {
      "buffer": 0,
      "byteLength": 109368,
      "name": "floatBufferViews",
      "target": 34963
    },
    {
      "buffer": 0,
      "byteLength": 125120,
      "byteOffset": 109368,
      "byteStride": 8,
      "name": "floatBufferViews",
      "target": 34962
    },
    {
      "buffer": 0,
      "byteLength": 375360,
      "byteOffset": 234488,
      "byteStride": 12,
      "name": "floatBufferViews",
      "target": 34962
    }
  ],
  "buffers": [
    {
      "byteLength": 609848,
      "uri": "scene.bin"
    }
  ],
  "images": [
    {
      "uri": "textures/T_Default_Material_Grid_M.png_baseColor.png"
    },
    {
      "uri": "textures/T_Default_Material_Grid_M.png_metallicRoughness.png"
    },
    {
      "uri": "textures/board.png_baseColor.png"
    },
    {
      "uri": "textures/brick_brown_dif.png_baseColor.png"
    },
    {
      "uri": "textures/brick_yellow_dif.png_baseColor.png"
    },
    {
      "uri": "textures/ceiling_dif.png_baseColor.png"
    },
    {
      "uri": "textures/corridor.png_baseColor.png"
    },
    {
      "uri": "textures/dark_dif.png_baseColor.png"
    },
    {
      "uri": "textures/fault.png_baseColor.png"
    },
    {
      "uri": "textures/kids_room.png_baseColor.png"
    },
    {
      "uri": "textures/plaster_dif.png_baseColor.png"
    },
    {
      "uri": "textures/pretzel.png_baseColor.png"
    },
    {
      "uri": "textures/roof_dif.png_baseColor.png"
    },
    {
      "uri": "textures/room.png_baseColor.png"
    },
    {
      "uri": "textures/room_water.png_baseColor.png"
    },
    {
      "uri": "textures/school_dif.png_baseColor.png"
    },
    {
      "uri": "textures/security.png_baseColor.png"
    },
    {
      "uri": "textures/stone_dif.png_baseColor.png"
    },
    {
      "uri": "textures/stone_white_dif.png_baseColor.png"
    },
    {
      "uri": "textures/tile_1.png_baseColor.png"
    },
    {
      "uri": "textures/tile_2_dif.png_baseColor.png"
    },
    {
      "uri": "textures/tile_3.png_baseColor.png"
    },
    {
      "uri": "textures/wallpaper_1_dif.png_baseColor.png"
    },
    {
      "uri": "textures/wallpaper_3_dif.png_baseColor.png"
    },
    {
      "uri": "textures/wallpaper_4_dif.png_baseColor.png"
    },
    {
      "uri": "textures/wallpaper_5_dif.png_baseColor.png"
    },
    {
      "uri": "textures/wallpaper_6_dif.png_baseColor.png"
    },
    {
      "uri": "textures/wood_2_dif.png_baseColor.png"
    },
    {
      "uri": "textures/wood_3_dif.png_baseColor.png"
    },
    {
      "uri": "textures/wood_4_dif.png_baseColor.png"
    },
    {
      "uri": "textures/wood_blue_dif.png_baseColor.png"
    },
    {
      "uri": "textures/wood_brown_dif.png_baseColor.png"
    }
  ],
  "materials": [
    {
      "doubleSided": true,
      "name": "T_Default_Material_Grid_M.png",
      "pbrMetallicRoughness": {
        "baseColorTexture": {
          "index": 0
        },
        "metallicRoughnessTexture": {
          "index": 1
        }
      }
    },
    {
      "doubleSided": true,
      "name": "board.png",
      "pbrMetallicRoughness": {
        "baseColorTexture": {
          "index": 2
        },
        "metallicFactor": 0.0
      }
    },
    {
      "doubleSided": true,
      "name": "brick_brown_dif.png",
      "pbrMetallicRoughness": {
        "baseColorTexture": {
          "index": 3
        },
        "metallicFactor": 0.0
      }
    },
    {
      "doubleSided": true,
      "name": "brick_brown_dif.png_1",
      "pbrMetallicRoughness": {
        "baseColorTexture": {
          "index": 3
        },
        "metallicFactor": 0.0
      }
    },
    {
      "doubleSided": true,
      "name": "brick_brown_dif.png_2",
      "pbrMetallicRoughness": {
        "baseColorTexture": {
          "index": 3
        },
        "metallicFactor": 0.0
      }
    },
    {
      "doubleSided": true,
      "name": "brick_yellow_dif.png",
      "pbrMetallicRoughness": {
        "baseColorTexture": {
          "index": 4
        },
        "metallicFactor": 0.0
      }
    },
    {
      "doubleSided": true,
      "name": "brick_yellow_dif.png_1",
      "pbrMetallicRoughness": {
        "baseColorTexture": {
          "index": 4
        },
        "metallicFactor": 0.0
      }
    },
    {
      "doubleSided": true,
      "emissiveTexture": {
        "index": 3
      },
      "name": "bricks_yellow_test",
      "pbrMetallicRoughness": {
        "baseColorTexture": {
          "index": 3
        },
        "metallicFactor": 0.0
      }
    },
    {
      "doubleSided": true,
      "name": "ceiling_dif.png",
      "pbrMetallicRoughness": {
        "baseColorTexture": {
          "index": 5
        },
        "metallicFactor": 0.0
      }
    },
    {
      "doubleSided": true,
      "name": "ceiling_dif.png_1",
      "pbrMetallicRoughness": {
        "baseColorTexture": {
          "index": 5
        },
        "metallicFactor": 0.0
      }
    },
    {
      "doubleSided": true,
      "name": "ceiling_dif.png_2",
      "pbrMetallicRoughness": {
        "baseColorTexture": {
          "index": 5
        },
        "metallicFactor": 0.0
      }
    },
    {
      "doubleSided": true,
      "name": "corridor.png",
      "pbrMetallicRoughness": {
        "baseColorTexture": {
          "index": 6
        },
        "metallicFactor": 0.0
      }
    },
    {
      "doubleSided": true,
      "name": "dark_dif.png",
      "pbrMetallicRoughness": {
        "baseColorTexture": {
          "index": 7
        },
        "metallicFactor": 0.0
      }
    },
    {
      "doubleSided": true,
      "name": "fault.png",
      "pbrMetallicRoughness": {
        "baseColorTexture": {
          "index": 8
        },
        "metallicFactor": 0.0
      }
    },
    {
      "doubleSided": true,
      "name": "kids_room.png",
      "pbrMetallicRoughness": {
        "baseColorTexture": {
          "index": 9
        },
        "metallicFactor": 0.0
      }
    },
    {
      "doubleSided": true,
      "name": "plaster_dif.png",
      "pbrMetallicRoughness": {
        "baseColorTexture": {
          "index": 10
        },
        "metallicFactor": 0.0
      }
    },
    {
      "doubleSided": true,
      "name": "plaster_dif.png_1",
      "pbrMetallicRoughness": {
        "baseColorTexture": {
          "index": 10
        },
        "metallicFactor": 0.0
      }
    },
    {
      "doubleSided": true,
      "name": "plaster_dif.png_2",
      "pbrMetallicRoughness": {
        "baseColorTexture": {
          "index": 10
        },
        "metallicFactor": 0.0
      }
    },
    {
      "doubleSided": true,
      "name": "pretzel.png",
      "pbrMetallicRoughness": {
        "baseColorTexture": {
          "index": 11
        },
        "metallicFactor": 0.0
      }
    },
    {
      "doubleSided": true,
      "name": "roof_dif.png",
      "pbrMetallicRoughness": {
        "baseColorTexture": {
          "index": 12
        },
        "metallicFactor": 0.0
      }
    },
    {
      "doubleSided": true,
      "name": "roof_dif.png_1",
      "pbrMetallicRoughness": {
        "baseColorTexture": {
          "index": 12
        },
        "metallicFactor": 0.0
      }
    },
    {
      "doubleSided": true,
      "name": "room.png",
      "pbrMetallicRoughness": {
        "baseColorTexture": {
          "index": 13
        },
        "metallicFactor": 0.0
      }
    },
    {
      "doubleSided": true,
      "name": "room.png_1",
      "pbrMetallicRoughness": {
        "baseColorTexture": {
          "index": 13
        },
        "metallicFactor": 0.0
      }
    },
    {
      "doubleSided": true,
      "name": "room_water.png",
      "pbrMetallicRoughness": {
        "baseColorTexture": {
          "index": 14
        },
        "metallicFactor": 0.0
      }
    },
    {
      "doubleSided": true,
      "name": "school_dif.png",
      "pbrMetallicRoughness": {
        "baseColorTexture": {
          "index": 15
        },
        "metallicFactor": 0.0
      }
    },
    {
      "doubleSided": true,
      "name": "security.png",
      "pbrMetallicRoughness": {
        "baseColorTexture": {
          "index": 16
        },
        "metallicFactor": 0.0
      }
    },
    {
      "doubleSided": true,
      "name": "stone_dif.png",
      "pbrMetallicRoughness": {
        "baseColorTexture": {
          "index": 17
        },
        "metallicFactor": 0.0
      }
    },
    {
      "doubleSided": true,
      "name": "stone_white_dif.png",
      "pbrMetallicRoughness": {
        "baseColorTexture": {
          "index": 18
        },
        "metallicFactor": 0.0
      }
    },
    {
      "doubleSided": true,
      "name": "tile_1.png",
      "pbrMetallicRoughness": {
        "baseColorTexture": {
          "index": 19
        },
        "metallicFactor": 0.0
      }
    },
    {
      "doubleSided": true,
      "name": "tile_2_dif.png",
      "pbrMetallicRoughness": {
        "baseColorTexture": {
          "index": 20
        },
        "metallicFactor": 0.0
      }
    },
    {
      "doubleSided": true,
      "name": "tile_2_dif.png_1",
      "pbrMetallicRoughness": {
        "baseColorTexture": {
          "index": 20
        },
        "metallicFactor": 0.0
      }
    },
    {
      "doubleSided": true,
      "name": "tile_3.png",
      "pbrMetallicRoughness": {
        "baseColorTexture": {
          "index": 21
        },
        "metallicFactor": 0.0
      }
    },
    {
      "doubleSided": true,
      "name": "tile_3.png_1",
      "pbrMetallicRoughness": {
        "baseColorTexture": {
          "index": 21
        },
        "metallicFactor": 0.0
      }
    },
    {
      "doubleSided": true,
      "name": "wallpaper_1_dif.png",
      "pbrMetallicRoughness": {
        "baseColorTexture": {
          "index": 22
        },
        "metallicFactor": 0.0
      }
    },
    {
      "doubleSided": true,
      "name": "wallpaper_3_dif.png",
      "pbrMetallicRoughness": {
        "baseColorTexture": {
          "index": 23
        },
        "metallicFactor": 0.0
      }
    },
    {
      "doubleSided": true,
      "name": "wallpaper_3_dif.png_1",
      "pbrMetallicRoughness": {
        "baseColorTexture": {
          "index": 23
        },
        "metallicFactor": 0.0
      }
    },
    {
      "doubleSided": true,
      "name": "wallpaper_4_dif.png",
      "pbrMetallicRoughness": {
        "baseColorTexture": {
          "index": 24
        },
        "metallicFactor": 0.0
      }
    },
    {
      "doubleSided": true,
      "name": "wallpaper_5_dif.png",
      "pbrMetallicRoughness": {
        "baseColorTexture": {
          "index": 25
        },
        "metallicFactor": 0.0
      }
    },
    {
      "doubleSided": true,
      "name": "wallpaper_6_dif.png",
      "pbrMetallicRoughness": {
        "baseColorTexture": {
          "index": 26
        },
        "metallicFactor": 0.0
      }
    },
    {
      "doubleSided": true,
      "name": "wallpaper_6_dif.png_1",
      "pbrMetallicRoughness": {
        "baseColorTexture": {
          "index": 26
        },
        "metallicFactor": 0.0
      }
    },
    {
      "doubleSided": true,
      "name": "wood_2_dif.png",
      "pbrMetallicRoughness": {
        "baseColorTexture": {
          "index": 27
        },
        "metallicFactor": 0.0
      }
    },
    {
      "doubleSided": true,
      "name": "wood_2_dif.png_1",
      "pbrMetallicRoughness": {
        "baseColorTexture": {
          "index": 27
        },
        "metallicFactor": 0.0
      }
    },
    {
      "doubleSided": true,
      "name": "wood_3_dif.png",
      "pbrMetallicRoughness": {
        "baseColorTexture": {
          "index": 28
        },
        "metallicFactor": 0.0
      }
    },
    {
      "doubleSided": true,
      "name": "wood_3_dif.png_1",
      "pbrMetallicRoughness": {
        "baseColorTexture": {
          "index": 28
        },
        "metallicFactor": 0.0
      }
    },
    {
      "doubleSided": true,
      "name": "wood_3_dif.png_2",
      "pbrMetallicRoughness": {
        "baseColorTexture": {
          "index": 28
        },
        "metallicFactor": 0.0
      }
    },
    {
      "doubleSided": true,
      "name": "wood_4_dif.png",
      "pbrMetallicRoughness": {
        "baseColorTexture": {
          "index": 29
        },
        "metallicFactor": 0.0
      }
    },
    {
      "doubleSided": true,
      "name": "wood_4_dif.png_1",
      "pbrMetallicRoughness": {
        "baseColorTexture": {
          "index": 29
        },
        "metallicFactor": 0.0
      }
    },
    {
      "doubleSided": true,
      "name": "wood_blue_dif.png",
      "pbrMetallicRoughness": {
        "baseColorTexture": {
          "index": 30
        },
        "metallicFactor": 0.0
      }
    },
    {
      "doubleSided": true,
      "name": "wood_blue_dif.png_1",
      "pbrMetallicRoughness": {
        "baseColorTexture": {
          "index": 30
        },
        "metallicFactor": 0.0
      }
    },
    {
      "doubleSided": true,
      "name": "wood_brown_dif.png",
      "pbrMetallicRoughness": {
        "baseColorTexture": {
          "index": 31
        },
        "metallicFactor": 0.0
      }
    },
    {
      "doubleSided": true,
      "name": "wood_brown_dif.png_1",
      "pbrMetallicRoughness": {
        "baseColorTexture": {
          "index": 31
        },
        "metallicFactor": 0.0
      }
    },
    {
      "doubleSided": true,
      "name": "wood_brown_dif.png_2",
      "pbrMetallicRoughness": {
        "baseColorTexture": {
          "index": 31
        },
        "metallicFactor": 0.0
      }
    }
  ],
  "meshes": [
    {
      "name": "Object_0",
      "primitives": [
        {
          "attributes": {
            "NORMAL": 1,
            "POSITION": 0,
            "TEXCOORD_0": 2
          },
          "indices": 3,
          "material": 0,
          "mode": 4
        }
      ]
    },
    {
      "name": "Object_1",
      "primitives": [
        {
          "attributes": {
            "NORMAL": 5,
            "POSITION": 4,
            "TEXCOORD_0": 6
          },
          "indices": 7,
          "material": 1,
          "mode": 4
        }
      ]
    },
    {
      "name": "Object_2",
      "primitives": [
        {
          "attributes": {
            "NORMAL": 9,
            "POSITION": 8,
            "TEXCOORD_0": 10
          },
          "indices": 11,
          "material": 2,
          "mode": 4
        }
      ]
    },
    {
      "name": "Object_3",
      "primitives": [
        {
          "attributes": {
            "NORMAL": 13,
            "POSITION": 12,
            "TEXCOORD_0": 14
          },
          "indices": 15,
          "material": 3,
          "mode": 4
        }
      ]
    },
    {
      "name": "Object_4",
      "primitives": [
        {
          "attributes": {
            "NORMAL": 17,
            "POSITION": 16,
            "TEXCOORD_0": 18
          },
          "indices": 19,
          "material": 4,
          "mode": 4
        }
      ]
    },
    {
      "name": "Object_5",
      "primitives": [
        {
          "attributes": {
            "NORMAL": 21,
            "POSITION": 20,
            "TEXCOORD_0": 22
          },
          "indices": 23,
          "material": 5,
          "mode": 4
        }
      ]
    },
    {
      "name": "Object_6",
      "primitives": [
        {
          "attributes": {
            "NORMAL": 25,
            "POSITION": 24,
            "TEXCOORD_0": 26
          },
          "indices": 27,
          "material": 6,
          "mode": 4
        }
      ]
    },
    {
      "name": "Object_7",
      "primitives": [
        {
          "attributes": {
            "NORMAL": 29,
            "POSITION": 28,
            "TEXCOORD_0": 30
          },
          "indices": 31,
          "material": 7,
          "mode": 4
        }
      ]
    },
    {
      "name": "Object_8",
      "primitives": [
        {
          "attributes": {
            "NORMAL": 33,
            "POSITION": 32,
            "TEXCOORD_0": 34
          },
          "indices": 35,
          "material": 8,
          "mode": 4
        }
      ]
    },
    {
      "name": "Object_9",
      "primitives": [
        {
          "attributes": {
            "NORMAL": 37,
            "POSITION": 36,
            "TEXCOORD_0": 38
          },
          "indices": 39,
          "material": 9,
          "mode": 4
        }
      ]
    },
    {
      "name": "Object_10",
      "primitives": [
        {
          "attributes": {
            "NORMAL": 41,
            "POSITION": 40,
            "TEXCOORD_0": 42
          },
          "indices": 43,
          "material": 10,
          "mode": 4
        }
      ]
    },
    {
      "name": "Object_11",
      "primitives": [
        {
          "attributes": {
            "NORMAL": 45,
            "POSITION": 44,
            "TEXCOORD_0": 46
          },
          "indices": 47,
          "material": 11,
          "mode": 4
        }
      ]
    },
    {
      "name": "Object_12",
      "primitives": [
        {
          "attributes": {
            "NORMAL": 49,
            "POSITION": 48,
            "TEXCOORD_0": 50
          },
          "indices": 51,
          "material": 12,
          "mode": 4
        }
      ]
    },
    {
      "name": "Object_13",
      "primitives": [
        {
          "attributes": {
            "NORMAL": 53,
            "POSITION": 52,
            "TEXCOORD_0": 54
          },
          "indices": 55,
          "material": 13,
          "mode": 4
        }
      ]
    },
    {
      "name": "Object_14",
      "primitives": [
        {
          "attributes": {
            "NORMAL": 57,
            "POSITION": 56,
            "TEXCOORD_0": 58
          },
          "indices": 59,
          "material": 14,
          "mode": 4
        }
      ]
    },
    {
      "name": "Object_15",
      "primitives": [
        {
          "attributes": {
            "NORMAL": 61,
            "POSITION": 60,
            "TEXCOORD_0": 62
          },
          "indices": 63,
          "material": 15,
          "mode": 4
        }
      ]
    },
    {
      "name": "Object_16",
      "primitives": [
        {
          "attributes": {
            "NORMAL": 65,
            "POSITION": 64,
            "TEXCOORD_0": 66
          },
          "indices": 67,
          "material": 16,
          "mode": 4
        }
      ]
    },
    {
      "name": "Object_17",
      "primitives": [
        {
          "attributes": {
            "NORMAL": 69,
            "POSITION": 68,
            "TEXCOORD_0": 70
          },
          "indices": 71,
          "material": 17,
          "mode": 4
        }
      ]
    },
    {
      "name": "Object_18",
      "primitives": [
        {
          "attributes": {
            "NORMAL": 73,
            "POSITION": 72,
            "TEXCOORD_0": 74
          },
          "indices": 75,
          "material": 18,
          "mode": 4
        }
      ]
    },
    {
      "name": "Object_19",
      "primitives": [
        {
          "attributes": {
            "NORMAL": 77,
            "POSITION": 76,
            "TEXCOORD_0": 78
          },
          "indices": 79,
          "material": 19,
          "mode": 4
        }
      ]
    },
    {
      "name": "Object_20",
      "primitives": [
        {
          "attributes": {
            "NORMAL": 81,
            "POSITION": 80,
            "TEXCOORD_0": 82
          },
          "indices": 83,
          "material": 20,
          "mode": 4
        }
      ]
    },
    {
      "name": "Object_21",
      "primitives": [
        {
          "attributes": {
            "NORMAL": 85,
            "POSITION": 84,
            "TEXCOORD_0": 86
          },
          "indices": 87,
          "material": 21,
          "mode": 4
        }
      ]
    },
    {
      "name": "Object_22",
      "primitives": [
        {
          "attributes": {
            "NORMAL": 89,
            "POSITION": 88,
            "TEXCOORD_0": 90
          },
          "indices": 91,
          "material": 22,
          "mode": 4
        }
      ]
    },
    {
      "name": "Object_23",
      "primitives": [
        {
          "attributes": {
            "NORMAL": 93,
            "POSITION": 92,
            "TEXCOORD_0": 94
          },
          "indices": 95,
          "material": 23,
          "mode": 4
        }
      ]
    },
    {
      "name": "Object_24",
      "primitives": [
        {
          "attributes": {
            "NORMAL": 97,
            "POSITION": 96,
            "TEXCOORD_0": 98
          },
          "indices": 99,
          "material": 24,
          "mode": 4
        }
      ]
    },
    {
      "name": "Object_25",
      "primitives": [
        {
          "attributes": {
            "NORMAL": 101,
            "POSITION": 100,
            "TEXCOORD_0": 102
          },
          "indices": 103,
          "material": 25,
          "mode": 4
        }
      ]
    },
    {
      "name": "Object_26",
      "primitives": [
        {
          "attributes": {
            "NORMAL": 105,
            "POSITION": 104,
            "TEXCOORD_0": 106
          },
          "indices": 107,
          "material": 26,
          "mode": 4
        }
      ]
    },
    {
      "name": "Object_27",
      "primitives": [
        {
          "attributes": {
            "NORMAL": 109,
            "POSITION": 108,
            "TEXCOORD_0": 110
          },
          "indices": 111,
          "material": 27,
          "mode": 4
        }
      ]
    },
    {
      "name": "Object_28",
      "primitives": [
        {
          "attributes": {
            "NORMAL": 113,
            "POSITION": 112,
            "TEXCOORD_0": 114
          },
          "indices": 115,
          "material": 28,
          "mode": 4
        }
      ]
    },
    {
      "name": "Object_29",
      "primitives": [
        {
          "attributes": {
            "NORMAL": 117,
            "POSITION": 116,
            "TEXCOORD_0": 118
          },
          "indices": 119,
          "material": 29,
          "mode": 4
        }
      ]
    },
    {
      "name": "Object_30",
      "primitives": [
        {
          "attributes": {
            "NORMAL": 121,
            "POSITION": 120,
            "TEXCOORD_0": 122
          },
          "indices": 123,
          "material": 30,
          "mode": 4
        }
      ]
    },
    {
      "name": "Object_31",
      "primitives": [
        {
          "attributes": {
            "NORMAL": 125,
            "POSITION": 124,
            "TEXCOORD_0": 126
          },
          "indices": 127,
          "material": 31,
          "mode": 4
        }
      ]
    },
    {
      "name": "Object_32",
      "primitives": [
        {
          "attributes": {
            "NORMAL": 129,
            "POSITION": 128,
            "TEXCOORD_0": 130
          },
          "indices": 131,
          "material": 32,
          "mode": 4
        }
      ]
    },
    {
      "name": "Object_33",
      "primitives": [
        {
          "attributes": {
            "NORMAL": 133,
            "POSITION": 132,
            "TEXCOORD_0": 134
          },
          "indices": 135,
          "material": 33,
          "mode": 4
        }
      ]
    },
    {
      "name": "Object_34",
      "primitives": [
        {
          "attributes": {
            "NORMAL": 137,
            "POSITION": 136,
            "TEXCOORD_0": 138
          },
          "indices": 139,
          "material": 34,
          "mode": 4
        }
      ]
    },
    {
      "name": "Object_35",
      "primitives": [
        {
          "attributes": {
            "NORMAL": 141,
            "POSITION": 140,
            "TEXCOORD_0": 142
          },
          "indices": 143,
          "material": 35,
          "mode": 4
        }
      ]
    },
    {
      "name": "Object_36",
      "primitives": [
        {
          "attributes": {
            "NORMAL": 145,
            "POSITION": 144,
            "TEXCOORD_0": 146
          },
          "indices": 147,
          "material": 36,
          "mode": 4
        }
      ]
    },
    {
      "name": "Object_37",
      "primitives": [
        {
          "attributes": {
            "NORMAL": 149,
            "POSITION": 148,
            "TEXCOORD_0": 150
          },
          "indices": 151,
          "material": 37,
          "mode": 4
        }
      ]
    },
    {
      "name": "Object_38",
      "primitives": [
        {
          "attributes": {
            "NORMAL": 153,
            "POSITION": 152,
            "TEXCOORD_0": 154
          },
          "indices": 155,
          "material": 38,
          "mode": 4
        }
      ]
    },
    {
      "name": "Object_39",
      "primitives": [
        {
          "attributes": {
            "NORMAL": 157,
            "POSITION": 156,
            "TEXCOORD_0": 158
          },
          "indices": 159,
          "material": 39,
          "mode": 4
        }
      ]
    },
    {
      "name": "Object_40",
      "primitives": [
        {
          "attributes": {
            "NORMAL": 161,
            "POSITION": 160,
            "TEXCOORD_0": 162
          },
          "indices": 163,
          "material": 40,
          "mode": 4
        }
      ]
    },
    {
      "name": "Object_41",
      "primitives": [
        {
          "attributes": {
            "NORMAL": 165,
            "POSITION": 164,
            "TEXCOORD_0": 166
          },
          "indices": 167,
          "material": 41,
          "mode": 4
        }
      ]
    },
    {
      "name": "Object_42",
      "primitives": [
        {
          "attributes": {
            "NORMAL": 169,
            "POSITION": 168,
            "TEXCOORD_0": 170
          },
          "indices": 171,
          "material": 42,
          "mode": 4
        }
      ]
    },
    {
      "name": "Object_43",
      "primitives": [
        {
          "attributes": {
            "NORMAL": 173,
            "POSITION": 172,
            "TEXCOORD_0": 174
          },
          "indices": 175,
          "material": 43,
          "mode": 4
        }
      ]
    },
    {
      "name": "Object_44",
      "primitives": [
        {
          "attributes": {
            "NORMAL": 177,
            "POSITION": 176,
            "TEXCOORD_0": 178
          },
          "indices": 179,
          "material": 44,
          "mode": 4
        }
      ]
    },
    {
      "name": "Object_45",
      "primitives": [
        {
          "attributes": {
            "NORMAL": 181,
            "POSITION": 180,
            "TEXCOORD_0": 182
          },
          "indices": 183,
          "material": 45,
          "mode": 4
        }
      ]
    },
    {
      "name": "Object_46",
      "primitives": [
        {
          "attributes": {
            "NORMAL": 185,
            "POSITION": 184,
            "TEXCOORD_0": 186
          },
          "indices": 187,
          "material": 46,
          "mode": 4
        }
      ]
    },
    {
      "name": "Object_47",
      "primitives": [
        {
          "attributes": {
            "NORMAL": 189,
            "POSITION": 188,
            "TEXCOORD_0": 190
          },
          "indices": 191,
          "material": 47,
          "mode": 4
        }
      ]
    },
    {
      "name": "Object_48",
      "primitives": [
        {
          "attributes": {
            "NORMAL": 193,
            "POSITION": 192,
            "TEXCOORD_0": 194
          },
          "indices": 195,
          "material": 48,
          "mode": 4
        }
      ]
    },
    {
      "name": "Object_49",
      "primitives": [
        {
          "attributes": {
            "NORMAL": 197,
            "POSITION": 196,
            "TEXCOORD_0": 198
          },
          "indices": 199,
          "material": 49,
          "mode": 4
        }
      ]
    },
    {
      "name": "Object_50",
      "primitives": [
        {
          "attributes": {
            "NORMAL": 201,
            "POSITION": 200,
            "TEXCOORD_0": 202
          },
          "indices": 203,
          "material": 50,
          "mode": 4
        }
      ]
    },
    {
      "name": "Object_51",
      "primitives": [
        {
          "attributes": {
            "NORMAL": 205,
            "POSITION": 204,
            "TEXCOORD_0": 206
          },
          "indices": 207,
          "material": 51,
          "mode": 4
        }
      ]
    }
  ],
  "nodes": [
    {
      "children": [
        1
      ],
      "matrix": [
        1.0,
        0.0,
        0.0,
        0.0,
        0.0,
        2.220446049250313e-16,
        -1.0,
        0.0,
        0.0,
        1.0,
        2.220446049250313e-16,
        0.0,
        0.0,
        0.0,
        0.0,
        1.0
      ],
      "name": "Sketchfab_model"
    },
    {
      "children": [
        2,
        3,
        4,
        5,
        6,
        7,
        8,
        9,
        10,
        11,
        12,
        13,
        14,
        15,
        16,
        17,
        18,
        19,
        20,
        21,
        22,
        23,
        24,
        25,
        26,
        27,
        28,
        29,
        30,
        31,
        32,
        33,
        34,
        35,
        36,
        37,
        38,
        39,
        40,
        41,
        42,
        43,
        44,
        45,
        46,
        47,
        48,
        49,
        50,
        51,
        52,
        53
      ],
      "name": "Neighbor's House (Alpha 1).obj.cleaner.materialmerger.gles"
    },
    {
      "mesh": 0,
      "name": "Object_2"
    },
    {
      "mesh": 1,
      "name": "Object_3"
    },
    {
      "mesh": 2,
      "name": "Object_4"
    },
    {
      "mesh": 3,
      "name": "Object_5"
    },
    {
      "mesh": 4,
      "name": "Object_6"
    },
    {
      "mesh": 5,
      "name": "Object_7"
    },
    {
      "mesh": 6,
      "name": "Object_8"
    },
    {
      "mesh": 7,
      "name": "Object_9"
    },
    {
      "mesh": 8,
      "name": "Object_10"
    },
    {
      "mesh": 9,
      "name": "Object_11"
    },
    {
      "mesh": 10,
      "name": "Object_12"
    },
    {
      "mesh": 11,
      "name": "Object_13"
    },
    {
      "mesh": 12,
      "name": "Object_14"
    },
    {
      "mesh": 13,
      "name": "Object_15"
    },
    {
      "mesh": 14,
      "name": "Object_16"
    },
    {
      "mesh": 15,
      "name": "Object_17"
    },
    {
      "mesh": 16,
      "name": "Object_18"
    },
    {
      "mesh": 17,
      "name": "Object_19"
    },
    {
      "mesh": 18,
      "name": "Object_20"
    },
    {
      "mesh": 19,
      "name": "Object_21"
    },
    {
      "mesh": 20,
      "name": "Object_22"
    },
    {
      "mesh": 21,
      "name": "Object_23"
    },
    {
      "mesh": 22,
      "name": "Object_24"
    },
    {
      "mesh": 23,
      "name": "Object_25"
    },
    {
      "mesh": 24,
      "name": "Object_26"
    },
    {
      "mesh": 25,
      "name": "Object_27"
    },
    {
      "mesh": 26,
      "name": "Object_28"
    },
    {
      "mesh": 27,
      "name": "Object_29"
    },
    {
      "mesh": 28,
      "name": "Object_30"
    },
    {
      "mesh": 29,
      "name": "Object_31"
    },
    {
      "mesh": 30,
      "name": "Object_32"
    },
    {
      "mesh": 31,
      "name": "Object_33"
    },
    {
      "mesh": 32,
      "name": "Object_34"
    },
    {
      "mesh": 33,
      "name": "Object_35"
    },
    {
      "mesh": 34,
      "name": "Object_36"
    },
    {
      "mesh": 35,
      "name": "Object_37"
    },
    {
      "mesh": 36,
      "name": "Object_38"
    },
    {
      "mesh": 37,
      "name": "Object_39"
    },
    {
      "mesh": 38,
      "name": "Object_40"
    },
    {
      "mesh": 39,
      "name": "Object_41"
    },
    {
      "mesh": 40,
      "name": "Object_42"
    },
    {
      "mesh": 41,
      "name": "Object_43"
    },
    {
      "mesh": 42,
      "name": "Object_44"
    },
    {
      "mesh": 43,
      "name": "Object_45"
    },
    {
      "mesh": 44,
      "name": "Object_46"
    },
    {
      "mesh": 45,
      "name": "Object_47"
    },
    {
      "mesh": 46,
      "name": "Object_48"
    },
    {
      "mesh": 47,
      "name": "Object_49"
    },
    {
      "mesh": 48,
      "name": "Object_50"
    },
    {
      "mesh": 49,
      "name": "Object_51"
    },
    {
      "mesh": 50,
      "name": "Object_52"
    },
    {
      "mesh": 51,
      "name": "Object_53"
    }
  ],
  "samplers": [
    {
      "magFilter": 9729,
      "minFilter": 9987,
      "wrapS": 10497,
      "wrapT": 10497
    }
  ],
  "scene": 0,
  "scenes": [
    {
      "name": "Sketchfab_Scene",
      "nodes": [
        0
      ]
    }
  ],
  "textures": [
    {
      "sampler": 0,
      "source": 0
    },
    {
      "sampler": 0,
      "source": 1
    },
    {
      "sampler": 0,
      "source": 2
    },
    {
      "sampler": 0,
      "source": 3
    },
    {
      "sampler": 0,
      "source": 4
    },
    {
      "sampler": 0,
      "source": 5
    },
    {
      "sampler": 0,
      "source": 6
    },
    {
      "sampler": 0,
      "source": 7
    },
    {
      "sampler": 0,
      "source": 8
    },
    {
      "sampler": 0,
      "source": 9
    },
    {
      "sampler": 0,
      "source": 10
    },
    {
      "sampler": 0,
      "source": 11
    },
    {
      "sampler": 0,
      "source": 12
    },
    {
      "sampler": 0,
      "source": 13
    },
    {
      "sampler": 0,
      "source": 14
    },
    {
      "sampler": 0,
      "source": 15
    },
    {
      "sampler": 0,
      "source": 16
    },
    {
      "sampler": 0,
      "source": 17
    },
    {
      "sampler": 0,
      "source": 18
    },
    {
      "sampler": 0,
      "source": 19
    },
    {
      "sampler": 0,
      "source": 20
    },
    {
      "sampler": 0,
      "source": 21
    },
    {
      "sampler": 0,
      "source": 22
    },
    {
      "sampler": 0,
      "source": 23
    },
    {
      "sampler": 0,
      "source": 24
    },
    {
      "sampler": 0,
      "source": 25
    },
    {
      "sampler": 0,
      "source": 26
    },
    {
      "sampler": 0,
      "source": 27
    },
    {
      "sampler": 0,
      "source": 28
    },
    {
      "sampler": 0,
      "source": 29
    },
    {
      "sampler": 0,
      "source": 30
    },
    {
      "sampler": 0,
      "source": 31
    }
  ]
}
